<svg width="335" height="170" viewBox="0 0 335 170" fill="none" xmlns="http://www.w3.org/2000/svg">
<rect width="335" height="170" rx="12" fill="#E6F9F2"/>
<mask id="mask0_1_1676" style="mask-type:alpha" maskUnits="userSpaceOnUse" x="0" y="0" width="335" height="170">
<rect width="335" height="170" rx="12" fill="white"/>
</mask>
<g mask="url(#mask0_1_1676)">
<path d="M320.8 7.4C320.8 6.1 319.7 5 318.4 5C317.1 5 316 6.1 316 7.4C316 7.9 316.6 8.2 317.3 8.3V10.6H319.3V8.3C320.2 8.1 320.8 7.8 320.8 7.4Z" fill="#FFD15C"/>
<path d="M272.6 27.1748C273.6 26.3748 273.8 24.8748 272.9 23.8748C272.1 22.8748 270.6 22.6748 269.6 23.5748C269.2 23.8748 269.4 24.4748 269.8 25.1748L268 26.5748L269.3 28.1748L271.1 26.6748C271.6 27.1748 272.2 27.4748 272.6 27.1748Z" fill="#FFD15C"/>
<path fill-rule="evenodd" clip-rule="evenodd" d="M315.194 24.2C315.194 23 316.194 22 317.394 22C318.694 22 319.694 23 319.594 24.2C319.594 25.4 318.594 26.4 317.394 26.4C316.194 26.4 315.194 25.4 315.194 24.2ZM315.994 24.2C315.994 25 316.594 25.6 317.394 25.6C318.194 25.6 318.794 25 318.794 24.2C318.794 23.4 318.194 22.8 317.394 22.8C316.594 22.8 315.994 23.4 315.994 24.2Z" fill="#FF7058"/>
<path fill-rule="evenodd" clip-rule="evenodd" d="M276 5.2C276 4 277 3 278.2 3C279.5 3 280.5 4 280.4 5.2C280.4 6.4 279.4 7.4 278.2 7.4C277 7.4 276 6.4 276 5.2ZM276.8 5.2C276.8 6 277.4 6.6 278.2 6.6C279 6.6 279.6 6 279.6 5.2C279.6 4.4 279 3.8 278.2 3.8C277.4 3.8 276.8 4.4 276.8 5.2Z" fill="#FF7058"/>
<path fill-rule="evenodd" clip-rule="evenodd" d="M308 35.7137C308 34.5137 309 33.5137 310.2 33.5137C311.4 33.5137 312.4 34.5137 312.4 35.7137C312.4 36.9137 311.4 37.9137 310.2 37.9137C309 37.9137 308 36.9137 308 35.7137ZM308.8 35.6137C308.8 36.4137 309.4 37.0137 310.2 37.0137C311 37.0137 311.6 36.4137 311.6 35.6137C311.6 34.8137 311 34.2137 310.2 34.2137C309.4 34.2137 308.8 34.8137 308.8 35.6137Z" fill="#FF7058"/>
<path d="M107.5 204C107.5 204 -62.5 177 167.5 162C397.5 147 326 222.5 300.5 110C275 -2.5 356.5 178.5 330 95C303.5 11.5 491 71 359.5 8C228 -55 327.5 112 192.5 61.5C57.5 11 76 -80 76 -80" stroke="#868686" stroke-linecap="round" stroke-dasharray="5"/>
<path opacity="0.84" d="M30.0781 112.953V113.672C30.0781 114.526 29.9714 115.292 29.7578 115.969C29.5443 116.646 29.237 117.221 28.8359 117.695C28.4349 118.169 27.9531 118.531 27.3906 118.781C26.8333 119.031 26.2083 119.156 25.5156 119.156C24.8438 119.156 24.2266 119.031 23.6641 118.781C23.1068 118.531 22.6224 118.169 22.2109 117.695C21.8047 117.221 21.4896 116.646 21.2656 115.969C21.0417 115.292 20.9297 114.526 20.9297 113.672V112.953C20.9297 112.099 21.0391 111.336 21.2578 110.664C21.4818 109.987 21.7969 109.411 22.2031 108.938C22.6094 108.458 23.0911 108.094 23.6484 107.844C24.2109 107.594 24.8281 107.469 25.5 107.469C26.1927 107.469 26.8177 107.594 27.375 107.844C27.9375 108.094 28.4193 108.458 28.8203 108.938C29.2266 109.411 29.5365 109.987 29.75 110.664C29.9688 111.336 30.0781 112.099 30.0781 112.953ZM28.5859 113.672V112.938C28.5859 112.26 28.5156 111.661 28.375 111.141C28.2396 110.62 28.0391 110.182 27.7734 109.828C27.5078 109.474 27.1823 109.206 26.7969 109.023C26.4167 108.841 25.9844 108.75 25.5 108.75C25.0312 108.75 24.6068 108.841 24.2266 109.023C23.8516 109.206 23.5286 109.474 23.2578 109.828C22.9922 110.182 22.7865 110.62 22.6406 111.141C22.4948 111.661 22.4219 112.26 22.4219 112.938V113.672C22.4219 114.354 22.4948 114.958 22.6406 115.484C22.7865 116.005 22.9948 116.445 23.2656 116.805C23.5417 117.159 23.8672 117.427 24.2422 117.609C24.6224 117.792 25.0469 117.883 25.5156 117.883C26.0052 117.883 26.4401 117.792 26.8203 117.609C27.2005 117.427 27.5208 117.159 27.7812 116.805C28.0469 116.445 28.2474 116.005 28.3828 115.484C28.5182 114.958 28.5859 114.354 28.5859 113.672ZM33.1625 111.875V119H31.7172V110.547H33.1234L33.1625 111.875ZM35.8031 110.5L35.7953 111.844C35.6755 111.818 35.5609 111.802 35.4516 111.797C35.3474 111.786 35.2276 111.781 35.0922 111.781C34.7589 111.781 34.4646 111.833 34.2094 111.938C33.9542 112.042 33.738 112.188 33.5609 112.375C33.3839 112.562 33.2432 112.786 33.1391 113.047C33.0401 113.302 32.975 113.583 32.9438 113.891L32.5375 114.125C32.5375 113.615 32.587 113.135 32.6859 112.688C32.7901 112.24 32.949 111.844 33.1625 111.5C33.376 111.151 33.6469 110.88 33.975 110.688C34.3083 110.49 34.7042 110.391 35.1625 110.391C35.2667 110.391 35.3865 110.404 35.5219 110.43C35.6573 110.451 35.751 110.474 35.8031 110.5ZM41.9109 117.359V107H43.3641V119H42.0359L41.9109 117.359ZM36.2234 114.867V114.703C36.2234 114.057 36.3016 113.471 36.4578 112.945C36.6193 112.414 36.8458 111.958 37.1375 111.578C37.4344 111.198 37.7859 110.906 38.1922 110.703C38.6036 110.495 39.062 110.391 39.5672 110.391C40.0984 110.391 40.562 110.484 40.9578 110.672C41.3589 110.854 41.6974 111.122 41.9734 111.477C42.2547 111.826 42.476 112.247 42.6375 112.742C42.799 113.237 42.9109 113.797 42.9734 114.422V115.141C42.9161 115.76 42.8042 116.318 42.6375 116.812C42.476 117.307 42.2547 117.729 41.9734 118.078C41.6974 118.427 41.3589 118.695 40.9578 118.883C40.5568 119.065 40.088 119.156 39.5516 119.156C39.0568 119.156 38.6036 119.049 38.1922 118.836C37.7859 118.622 37.4344 118.323 37.1375 117.938C36.8458 117.552 36.6193 117.099 36.4578 116.578C36.3016 116.052 36.2234 115.482 36.2234 114.867ZM37.6766 114.703V114.867C37.6766 115.289 37.7182 115.685 37.8016 116.055C37.8901 116.424 38.0255 116.75 38.2078 117.031C38.3901 117.312 38.6219 117.534 38.9031 117.695C39.1844 117.852 39.5203 117.93 39.9109 117.93C40.3901 117.93 40.7833 117.828 41.0906 117.625C41.4031 117.422 41.6531 117.154 41.8406 116.82C42.0281 116.487 42.174 116.125 42.2781 115.734V113.852C42.2156 113.565 42.1245 113.289 42.0047 113.023C41.8901 112.753 41.7391 112.513 41.5516 112.305C41.3693 112.091 41.1427 111.922 40.8719 111.797C40.6062 111.672 40.2911 111.609 39.9266 111.609C39.5307 111.609 39.1896 111.693 38.9031 111.859C38.6219 112.021 38.3901 112.245 38.2078 112.531C38.0255 112.812 37.8901 113.141 37.8016 113.516C37.7182 113.885 37.6766 114.281 37.6766 114.703ZM48.7219 119.156C48.1333 119.156 47.5995 119.057 47.1203 118.859C46.6464 118.656 46.2375 118.372 45.8937 118.008C45.5552 117.643 45.2948 117.211 45.1125 116.711C44.9302 116.211 44.8391 115.664 44.8391 115.07V114.742C44.8391 114.055 44.9406 113.443 45.1437 112.906C45.3469 112.365 45.6229 111.906 45.9719 111.531C46.3208 111.156 46.7167 110.872 47.1594 110.68C47.6021 110.487 48.0604 110.391 48.5344 110.391C49.1385 110.391 49.6594 110.495 50.0969 110.703C50.5396 110.911 50.9016 111.203 51.1828 111.578C51.4641 111.948 51.6724 112.385 51.8078 112.891C51.9432 113.391 52.0109 113.938 52.0109 114.531V115.18H45.6984V114H50.5656V113.891C50.5448 113.516 50.4667 113.151 50.3312 112.797C50.201 112.443 49.9927 112.151 49.7062 111.922C49.4198 111.693 49.0292 111.578 48.5344 111.578C48.2062 111.578 47.9042 111.648 47.6281 111.789C47.3521 111.924 47.1151 112.128 46.9172 112.398C46.7193 112.669 46.5656 113 46.4562 113.391C46.3469 113.781 46.2922 114.232 46.2922 114.742V115.07C46.2922 115.471 46.3469 115.849 46.4562 116.203C46.5708 116.552 46.7349 116.859 46.9484 117.125C47.1672 117.391 47.4302 117.599 47.7375 117.75C48.05 117.901 48.4042 117.977 48.8 117.977C49.3104 117.977 49.7427 117.872 50.0969 117.664C50.451 117.456 50.7609 117.177 51.0266 116.828L51.9016 117.523C51.7193 117.799 51.4875 118.062 51.2062 118.312C50.925 118.562 50.5786 118.766 50.1672 118.922C49.7609 119.078 49.2792 119.156 48.7219 119.156ZM54.7438 111.875V119H53.2984V110.547H54.7047L54.7438 111.875ZM57.3844 110.5L57.3766 111.844C57.2568 111.818 57.1422 111.802 57.0328 111.797C56.9286 111.786 56.8089 111.781 56.6734 111.781C56.3401 111.781 56.0458 111.833 55.7906 111.938C55.5354 112.042 55.3193 112.188 55.1422 112.375C54.9651 112.562 54.8245 112.786 54.7203 113.047C54.6214 113.302 54.5563 113.583 54.525 113.891L54.1188 114.125C54.1188 113.615 54.1682 113.135 54.2672 112.688C54.3714 112.24 54.5302 111.844 54.7438 111.5C54.9573 111.151 55.2281 110.88 55.5563 110.688C55.8896 110.49 56.2854 110.391 56.7438 110.391C56.8479 110.391 56.9677 110.404 57.1031 110.43C57.2385 110.451 57.3323 110.474 57.3844 110.5ZM66.8734 117.555V113.203C66.8734 112.87 66.8057 112.581 66.6703 112.336C66.5401 112.086 66.3422 111.893 66.0766 111.758C65.8109 111.622 65.4828 111.555 65.0922 111.555C64.7276 111.555 64.4073 111.617 64.1312 111.742C63.8604 111.867 63.6469 112.031 63.4906 112.234C63.3396 112.438 63.2641 112.656 63.2641 112.891H61.8187C61.8187 112.589 61.8969 112.289 62.0531 111.992C62.2094 111.695 62.4333 111.427 62.725 111.188C63.0219 110.943 63.376 110.75 63.7875 110.609C64.2042 110.464 64.6677 110.391 65.1781 110.391C65.7927 110.391 66.3344 110.495 66.8031 110.703C67.2771 110.911 67.6469 111.227 67.9125 111.648C68.1833 112.065 68.3187 112.589 68.3187 113.219V117.156C68.3187 117.438 68.3422 117.737 68.3891 118.055C68.4411 118.372 68.5167 118.646 68.6156 118.875V119H67.1078C67.0349 118.833 66.9776 118.612 66.9359 118.336C66.8943 118.055 66.8734 117.794 66.8734 117.555ZM67.1234 113.875L67.1391 114.891H65.6781C65.2667 114.891 64.8995 114.924 64.5766 114.992C64.2536 115.055 63.9828 115.151 63.7641 115.281C63.5453 115.411 63.3786 115.576 63.2641 115.773C63.1495 115.966 63.0922 116.193 63.0922 116.453C63.0922 116.719 63.1521 116.961 63.2719 117.18C63.3917 117.398 63.5714 117.573 63.8109 117.703C64.0557 117.828 64.3552 117.891 64.7094 117.891C65.1521 117.891 65.5427 117.797 65.8812 117.609C66.2198 117.422 66.488 117.193 66.6859 116.922C66.8891 116.651 66.9984 116.388 67.0141 116.133L67.6312 116.828C67.5948 117.047 67.4958 117.289 67.3344 117.555C67.1729 117.82 66.9568 118.076 66.6859 118.32C66.4203 118.56 66.1026 118.76 65.7328 118.922C65.3682 119.078 64.9568 119.156 64.4984 119.156C63.9255 119.156 63.4229 119.044 62.9906 118.82C62.5635 118.596 62.2302 118.297 61.9906 117.922C61.7562 117.542 61.6391 117.117 61.6391 116.648C61.6391 116.195 61.7276 115.797 61.9047 115.453C62.0818 115.104 62.337 114.815 62.6703 114.586C63.0036 114.352 63.4047 114.174 63.8734 114.055C64.3422 113.935 64.8656 113.875 65.4437 113.875H67.1234ZM73.7313 110.547V111.656H69.1609V110.547H73.7313ZM70.7078 108.492H72.1531V116.906C72.1531 117.193 72.1974 117.409 72.2859 117.555C72.3745 117.701 72.4891 117.797 72.6297 117.844C72.7703 117.891 72.9214 117.914 73.0828 117.914C73.2026 117.914 73.3276 117.904 73.4578 117.883C73.5932 117.857 73.6948 117.836 73.7625 117.82L73.7703 119C73.6557 119.036 73.5047 119.07 73.3172 119.102C73.1349 119.138 72.9135 119.156 72.6531 119.156C72.299 119.156 71.9734 119.086 71.6766 118.945C71.3797 118.805 71.1427 118.57 70.9656 118.242C70.7938 117.909 70.7078 117.461 70.7078 116.898V108.492ZM80.1656 107V119H78.7125V107H80.1656ZM85.5938 119.156C85.0052 119.156 84.4714 119.057 83.9922 118.859C83.5182 118.656 83.1094 118.372 82.7656 118.008C82.4271 117.643 82.1667 117.211 81.9844 116.711C81.8021 116.211 81.7109 115.664 81.7109 115.07V114.742C81.7109 114.055 81.8125 113.443 82.0156 112.906C82.2188 112.365 82.4948 111.906 82.8438 111.531C83.1927 111.156 83.5885 110.872 84.0312 110.68C84.474 110.487 84.9323 110.391 85.4062 110.391C86.0104 110.391 86.5312 110.495 86.9688 110.703C87.4115 110.911 87.7734 111.203 88.0547 111.578C88.3359 111.948 88.5443 112.385 88.6797 112.891C88.8151 113.391 88.8828 113.938 88.8828 114.531V115.18H82.5703V114H87.4375V113.891C87.4167 113.516 87.3385 113.151 87.2031 112.797C87.0729 112.443 86.8646 112.151 86.5781 111.922C86.2917 111.693 85.901 111.578 85.4062 111.578C85.0781 111.578 84.776 111.648 84.5 111.789C84.224 111.924 83.987 112.128 83.7891 112.398C83.5911 112.669 83.4375 113 83.3281 113.391C83.2188 113.781 83.1641 114.232 83.1641 114.742V115.07C83.1641 115.471 83.2188 115.849 83.3281 116.203C83.4427 116.552 83.6068 116.859 83.8203 117.125C84.0391 117.391 84.3021 117.599 84.6094 117.75C84.9219 117.901 85.276 117.977 85.6719 117.977C86.1823 117.977 86.6146 117.872 86.9688 117.664C87.3229 117.456 87.6328 117.177 87.8984 116.828L88.7734 117.523C88.5911 117.799 88.3594 118.062 88.0781 118.312C87.7969 118.562 87.4505 118.766 87.0391 118.922C86.6328 119.078 86.151 119.156 85.5938 119.156ZM95.1547 117.555V113.203C95.1547 112.87 95.087 112.581 94.9516 112.336C94.8214 112.086 94.6234 111.893 94.3578 111.758C94.0922 111.622 93.7641 111.555 93.3734 111.555C93.0089 111.555 92.6885 111.617 92.4125 111.742C92.1417 111.867 91.9281 112.031 91.7719 112.234C91.6208 112.438 91.5453 112.656 91.5453 112.891H90.1C90.1 112.589 90.1781 112.289 90.3344 111.992C90.4906 111.695 90.7146 111.427 91.0062 111.188C91.3031 110.943 91.6573 110.75 92.0687 110.609C92.4854 110.464 92.949 110.391 93.4594 110.391C94.074 110.391 94.6156 110.495 95.0844 110.703C95.5583 110.911 95.9281 111.227 96.1937 111.648C96.4646 112.065 96.6 112.589 96.6 113.219V117.156C96.6 117.438 96.6234 117.737 96.6703 118.055C96.7224 118.372 96.7979 118.646 96.8969 118.875V119H95.3891C95.3161 118.833 95.2589 118.612 95.2172 118.336C95.1755 118.055 95.1547 117.794 95.1547 117.555ZM95.4047 113.875L95.4203 114.891H93.9594C93.5479 114.891 93.1807 114.924 92.8578 114.992C92.5349 115.055 92.2641 115.151 92.0453 115.281C91.8266 115.411 91.6599 115.576 91.5453 115.773C91.4307 115.966 91.3734 116.193 91.3734 116.453C91.3734 116.719 91.4333 116.961 91.5531 117.18C91.6729 117.398 91.8526 117.573 92.0922 117.703C92.337 117.828 92.6365 117.891 92.9906 117.891C93.4333 117.891 93.824 117.797 94.1625 117.609C94.501 117.422 94.7693 117.193 94.9672 116.922C95.1703 116.651 95.2797 116.388 95.2953 116.133L95.9125 116.828C95.876 117.047 95.7771 117.289 95.6156 117.555C95.4542 117.82 95.238 118.076 94.9672 118.32C94.7016 118.56 94.3839 118.76 94.0141 118.922C93.6495 119.078 93.238 119.156 92.7797 119.156C92.2068 119.156 91.7042 119.044 91.2719 118.82C90.8448 118.596 90.5115 118.297 90.2719 117.922C90.0375 117.542 89.9203 117.117 89.9203 116.648C89.9203 116.195 90.0089 115.797 90.1859 115.453C90.363 115.104 90.6182 114.815 90.9516 114.586C91.2849 114.352 91.6859 114.174 92.1547 114.055C92.6234 113.935 93.1469 113.875 93.725 113.875H95.4047ZM103.395 116.758C103.395 116.549 103.348 116.357 103.255 116.18C103.166 115.997 102.981 115.833 102.7 115.688C102.424 115.536 102.007 115.406 101.45 115.297C100.981 115.198 100.557 115.081 100.177 114.945C99.8016 114.81 99.4812 114.646 99.2156 114.453C98.9552 114.26 98.7547 114.034 98.6141 113.773C98.4734 113.513 98.4031 113.208 98.4031 112.859C98.4031 112.526 98.476 112.211 98.6219 111.914C98.7729 111.617 98.9839 111.354 99.2547 111.125C99.5307 110.896 99.8615 110.716 100.247 110.586C100.632 110.456 101.062 110.391 101.536 110.391C102.213 110.391 102.791 110.51 103.27 110.75C103.749 110.99 104.117 111.31 104.372 111.711C104.627 112.107 104.755 112.547 104.755 113.031H103.309C103.309 112.797 103.239 112.57 103.098 112.352C102.963 112.128 102.762 111.943 102.497 111.797C102.236 111.651 101.916 111.578 101.536 111.578C101.135 111.578 100.809 111.641 100.559 111.766C100.315 111.885 100.135 112.039 100.02 112.227C99.9109 112.414 99.8562 112.612 99.8562 112.82C99.8562 112.977 99.8823 113.117 99.9344 113.242C99.9917 113.362 100.091 113.474 100.231 113.578C100.372 113.677 100.57 113.771 100.825 113.859C101.08 113.948 101.406 114.036 101.802 114.125C102.494 114.281 103.065 114.469 103.512 114.688C103.96 114.906 104.294 115.174 104.512 115.492C104.731 115.81 104.841 116.195 104.841 116.648C104.841 117.018 104.762 117.357 104.606 117.664C104.455 117.971 104.234 118.237 103.942 118.461C103.656 118.68 103.312 118.852 102.911 118.977C102.515 119.096 102.07 119.156 101.575 119.156C100.83 119.156 100.2 119.023 99.6844 118.758C99.1687 118.492 98.7781 118.148 98.5125 117.727C98.2469 117.305 98.1141 116.859 98.1141 116.391H99.5672C99.588 116.786 99.7026 117.102 99.9109 117.336C100.119 117.565 100.374 117.729 100.677 117.828C100.979 117.922 101.278 117.969 101.575 117.969C101.971 117.969 102.302 117.917 102.567 117.812C102.838 117.708 103.044 117.565 103.184 117.383C103.325 117.201 103.395 116.992 103.395 116.758ZM109.878 110.547V111.656H105.308V110.547H109.878ZM106.855 108.492H108.3V116.906C108.3 117.193 108.344 117.409 108.433 117.555C108.521 117.701 108.636 117.797 108.777 117.844C108.917 117.891 109.068 117.914 109.23 117.914C109.349 117.914 109.474 117.904 109.605 117.883C109.74 117.857 109.842 117.836 109.909 117.82L109.917 119C109.803 119.036 109.652 119.07 109.464 119.102C109.282 119.138 109.06 119.156 108.8 119.156C108.446 119.156 108.12 119.086 107.823 118.945C107.527 118.805 107.29 118.57 107.113 118.242C106.941 117.909 106.855 117.461 106.855 116.898V108.492ZM126.07 111.648V112.836H113.883V111.648H126.07ZM126.07 113.992V115.18H113.883V113.992H126.07ZM124.32 107.625V119H122.812L117.086 110.227V119H115.578V107.625H117.086L122.836 116.422V107.625H124.32ZM131.608 107.562V119H130.162V109.367L127.248 110.43V109.125L131.381 107.562H131.608ZM142.598 112.406V114.141C142.598 115.073 142.515 115.859 142.348 116.5C142.182 117.141 141.942 117.656 141.63 118.047C141.317 118.438 140.94 118.721 140.497 118.898C140.059 119.07 139.565 119.156 139.012 119.156C138.575 119.156 138.171 119.102 137.802 118.992C137.432 118.883 137.098 118.708 136.802 118.469C136.51 118.224 136.26 117.906 136.052 117.516C135.843 117.125 135.684 116.651 135.575 116.094C135.466 115.536 135.411 114.885 135.411 114.141V112.406C135.411 111.474 135.494 110.693 135.661 110.062C135.833 109.432 136.075 108.927 136.387 108.547C136.7 108.161 137.075 107.885 137.512 107.719C137.955 107.552 138.45 107.469 138.997 107.469C139.44 107.469 139.846 107.523 140.216 107.633C140.591 107.737 140.924 107.906 141.216 108.141C141.507 108.37 141.755 108.677 141.958 109.062C142.166 109.443 142.325 109.909 142.434 110.461C142.544 111.013 142.598 111.661 142.598 112.406ZM141.145 114.375V112.164C141.145 111.654 141.114 111.206 141.052 110.82C140.994 110.43 140.908 110.096 140.794 109.82C140.679 109.544 140.533 109.32 140.356 109.148C140.184 108.977 139.984 108.852 139.755 108.773C139.531 108.69 139.278 108.648 138.997 108.648C138.653 108.648 138.348 108.714 138.083 108.844C137.817 108.969 137.593 109.169 137.411 109.445C137.234 109.721 137.098 110.083 137.005 110.531C136.911 110.979 136.864 111.523 136.864 112.164V114.375C136.864 114.885 136.893 115.336 136.95 115.727C137.012 116.117 137.104 116.456 137.223 116.742C137.343 117.023 137.489 117.255 137.661 117.438C137.833 117.62 138.031 117.755 138.255 117.844C138.484 117.927 138.736 117.969 139.012 117.969C139.367 117.969 139.677 117.901 139.942 117.766C140.208 117.63 140.429 117.419 140.606 117.133C140.789 116.841 140.924 116.469 141.012 116.016C141.101 115.557 141.145 115.01 141.145 114.375ZM145.527 117.281V118.445C145.527 118.919 145.407 119.419 145.167 119.945C144.928 120.477 144.592 120.919 144.159 121.273L143.339 120.703C143.506 120.474 143.646 120.24 143.761 120C143.876 119.766 143.961 119.521 144.019 119.266C144.081 119.016 144.113 118.75 144.113 118.469V117.281H145.527ZM153.955 112.406V114.141C153.955 115.073 153.871 115.859 153.705 116.5C153.538 117.141 153.298 117.656 152.986 118.047C152.673 118.438 152.296 118.721 151.853 118.898C151.416 119.07 150.921 119.156 150.369 119.156C149.931 119.156 149.528 119.102 149.158 118.992C148.788 118.883 148.455 118.708 148.158 118.469C147.866 118.224 147.616 117.906 147.408 117.516C147.199 117.125 147.041 116.651 146.931 116.094C146.822 115.536 146.767 114.885 146.767 114.141V112.406C146.767 111.474 146.851 110.693 147.017 110.062C147.189 109.432 147.431 108.927 147.744 108.547C148.056 108.161 148.431 107.885 148.869 107.719C149.311 107.552 149.806 107.469 150.353 107.469C150.796 107.469 151.202 107.523 151.572 107.633C151.947 107.737 152.28 107.906 152.572 108.141C152.864 108.37 153.111 108.677 153.314 109.062C153.522 109.443 153.681 109.909 153.791 110.461C153.9 111.013 153.955 111.661 153.955 112.406ZM152.502 114.375V112.164C152.502 111.654 152.47 111.206 152.408 110.82C152.351 110.43 152.265 110.096 152.15 109.82C152.035 109.544 151.89 109.32 151.713 109.148C151.541 108.977 151.34 108.852 151.111 108.773C150.887 108.69 150.634 108.648 150.353 108.648C150.009 108.648 149.705 108.714 149.439 108.844C149.173 108.969 148.949 109.169 148.767 109.445C148.59 109.721 148.455 110.083 148.361 110.531C148.267 110.979 148.22 111.523 148.22 112.164V114.375C148.22 114.885 148.249 115.336 148.306 115.727C148.369 116.117 148.46 116.456 148.58 116.742C148.699 117.023 148.845 117.255 149.017 117.438C149.189 117.62 149.387 117.755 149.611 117.844C149.84 117.927 150.093 117.969 150.369 117.969C150.723 117.969 151.033 117.901 151.298 117.766C151.564 117.63 151.785 117.419 151.963 117.133C152.145 116.841 152.28 116.469 152.369 116.016C152.457 115.557 152.502 115.01 152.502 114.375ZM162.555 112.406V114.141C162.555 115.073 162.471 115.859 162.305 116.5C162.138 117.141 161.898 117.656 161.586 118.047C161.273 118.438 160.896 118.721 160.453 118.898C160.016 119.07 159.521 119.156 158.969 119.156C158.531 119.156 158.128 119.102 157.758 118.992C157.388 118.883 157.055 118.708 156.758 118.469C156.466 118.224 156.216 117.906 156.008 117.516C155.799 117.125 155.641 116.651 155.531 116.094C155.422 115.536 155.367 114.885 155.367 114.141V112.406C155.367 111.474 155.451 110.693 155.617 110.062C155.789 109.432 156.031 108.927 156.344 108.547C156.656 108.161 157.031 107.885 157.469 107.719C157.911 107.552 158.406 107.469 158.953 107.469C159.396 107.469 159.802 107.523 160.172 107.633C160.547 107.737 160.88 107.906 161.172 108.141C161.464 108.37 161.711 108.677 161.914 109.062C162.122 109.443 162.281 109.909 162.391 110.461C162.5 111.013 162.555 111.661 162.555 112.406ZM161.102 114.375V112.164C161.102 111.654 161.07 111.206 161.008 110.82C160.951 110.43 160.865 110.096 160.75 109.82C160.635 109.544 160.49 109.32 160.312 109.148C160.141 108.977 159.94 108.852 159.711 108.773C159.487 108.69 159.234 108.648 158.953 108.648C158.609 108.648 158.305 108.714 158.039 108.844C157.773 108.969 157.549 109.169 157.367 109.445C157.19 109.721 157.055 110.083 156.961 110.531C156.867 110.979 156.82 111.523 156.82 112.164V114.375C156.82 114.885 156.849 115.336 156.906 115.727C156.969 116.117 157.06 116.456 157.18 116.742C157.299 117.023 157.445 117.255 157.617 117.438C157.789 117.62 157.987 117.755 158.211 117.844C158.44 117.927 158.693 117.969 158.969 117.969C159.323 117.969 159.633 117.901 159.898 117.766C160.164 117.63 160.385 117.419 160.562 117.133C160.745 116.841 160.88 116.469 160.969 116.016C161.057 115.557 161.102 115.01 161.102 114.375ZM171.155 112.406V114.141C171.155 115.073 171.071 115.859 170.905 116.5C170.738 117.141 170.498 117.656 170.186 118.047C169.873 118.438 169.496 118.721 169.053 118.898C168.616 119.07 168.121 119.156 167.569 119.156C167.131 119.156 166.728 119.102 166.358 118.992C165.988 118.883 165.655 118.708 165.358 118.469C165.066 118.224 164.816 117.906 164.608 117.516C164.399 117.125 164.241 116.651 164.131 116.094C164.022 115.536 163.967 114.885 163.967 114.141V112.406C163.967 111.474 164.051 110.693 164.217 110.062C164.389 109.432 164.631 108.927 164.944 108.547C165.256 108.161 165.631 107.885 166.069 107.719C166.511 107.552 167.006 107.469 167.553 107.469C167.996 107.469 168.402 107.523 168.772 107.633C169.147 107.737 169.48 107.906 169.772 108.141C170.064 108.37 170.311 108.677 170.514 109.062C170.722 109.443 170.881 109.909 170.991 110.461C171.1 111.013 171.155 111.661 171.155 112.406ZM169.702 114.375V112.164C169.702 111.654 169.67 111.206 169.608 110.82C169.551 110.43 169.465 110.096 169.35 109.82C169.235 109.544 169.09 109.32 168.913 109.148C168.741 108.977 168.54 108.852 168.311 108.773C168.087 108.69 167.834 108.648 167.553 108.648C167.209 108.648 166.905 108.714 166.639 108.844C166.373 108.969 166.149 109.169 165.967 109.445C165.79 109.721 165.655 110.083 165.561 110.531C165.467 110.979 165.42 111.523 165.42 112.164V114.375C165.42 114.885 165.449 115.336 165.506 115.727C165.569 116.117 165.66 116.456 165.78 116.742C165.899 117.023 166.045 117.255 166.217 117.438C166.389 117.62 166.587 117.755 166.811 117.844C167.04 117.927 167.293 117.969 167.569 117.969C167.923 117.969 168.233 117.901 168.498 117.766C168.764 117.63 168.985 117.419 169.163 117.133C169.345 116.841 169.48 116.469 169.569 116.016C169.657 115.557 169.702 115.01 169.702 114.375ZM178.48 117.5L180.652 110.547H181.605L181.417 111.93L179.206 119H178.277L178.48 117.5ZM177.019 110.547L178.87 117.578L179.003 119H178.027L175.573 110.547H177.019ZM183.683 117.523L185.448 110.547H186.886L184.433 119H183.464L183.683 117.523ZM181.816 110.547L183.941 117.383L184.183 119H183.261L180.988 111.914L180.8 110.547H181.816ZM187.587 114.867V114.688C187.587 114.078 187.676 113.513 187.853 112.992C188.03 112.466 188.285 112.01 188.619 111.625C188.952 111.234 189.356 110.932 189.83 110.719C190.304 110.5 190.835 110.391 191.423 110.391C192.017 110.391 192.551 110.5 193.025 110.719C193.504 110.932 193.91 111.234 194.244 111.625C194.582 112.01 194.84 112.466 195.017 112.992C195.194 113.513 195.283 114.078 195.283 114.688V114.867C195.283 115.477 195.194 116.042 195.017 116.562C194.84 117.083 194.582 117.539 194.244 117.93C193.91 118.315 193.507 118.617 193.033 118.836C192.564 119.049 192.033 119.156 191.439 119.156C190.845 119.156 190.311 119.049 189.837 118.836C189.364 118.617 188.957 118.315 188.619 117.93C188.285 117.539 188.03 117.083 187.853 116.562C187.676 116.042 187.587 115.477 187.587 114.867ZM189.033 114.688V114.867C189.033 115.289 189.082 115.688 189.181 116.062C189.28 116.432 189.429 116.76 189.627 117.047C189.83 117.333 190.082 117.56 190.384 117.727C190.686 117.888 191.038 117.969 191.439 117.969C191.835 117.969 192.181 117.888 192.478 117.727C192.78 117.56 193.03 117.333 193.228 117.047C193.426 116.76 193.574 116.432 193.673 116.062C193.778 115.688 193.83 115.289 193.83 114.867V114.688C193.83 114.271 193.778 113.878 193.673 113.508C193.574 113.133 193.423 112.802 193.22 112.516C193.022 112.224 192.772 111.995 192.47 111.828C192.173 111.661 191.824 111.578 191.423 111.578C191.028 111.578 190.679 111.661 190.377 111.828C190.08 111.995 189.83 112.224 189.627 112.516C189.429 112.802 189.28 113.133 189.181 113.508C189.082 113.878 189.033 114.271 189.033 114.688ZM198.141 111.875V119H196.695V110.547H198.102L198.141 111.875ZM200.781 110.5L200.773 111.844C200.654 111.818 200.539 111.802 200.43 111.797C200.326 111.786 200.206 111.781 200.07 111.781C199.737 111.781 199.443 111.833 199.188 111.938C198.932 112.042 198.716 112.188 198.539 112.375C198.362 112.562 198.221 112.786 198.117 113.047C198.018 113.302 197.953 113.583 197.922 113.891L197.516 114.125C197.516 113.615 197.565 113.135 197.664 112.688C197.768 112.24 197.927 111.844 198.141 111.5C198.354 111.151 198.625 110.88 198.953 110.688C199.286 110.49 199.682 110.391 200.141 110.391C200.245 110.391 200.365 110.404 200.5 110.43C200.635 110.451 200.729 110.474 200.781 110.5ZM205.647 110.547V111.656H201.077V110.547H205.647ZM202.623 108.492H204.069V116.906C204.069 117.193 204.113 117.409 204.202 117.555C204.29 117.701 204.405 117.797 204.545 117.844C204.686 117.891 204.837 117.914 204.998 117.914C205.118 117.914 205.243 117.904 205.373 117.883C205.509 117.857 205.61 117.836 205.678 117.82L205.686 119C205.571 119.036 205.42 119.07 205.233 119.102C205.051 119.138 204.829 119.156 204.569 119.156C204.215 119.156 203.889 119.086 203.592 118.945C203.295 118.805 203.058 118.57 202.881 118.242C202.709 117.909 202.623 117.461 202.623 116.898V108.492ZM208.387 107V119H206.942V107H208.387ZM208.044 114.453L207.442 114.43C207.447 113.852 207.533 113.318 207.7 112.828C207.867 112.333 208.101 111.904 208.403 111.539C208.705 111.174 209.065 110.893 209.481 110.695C209.903 110.492 210.369 110.391 210.88 110.391C211.296 110.391 211.671 110.448 212.005 110.562C212.338 110.672 212.622 110.849 212.856 111.094C213.096 111.339 213.278 111.656 213.403 112.047C213.528 112.432 213.591 112.904 213.591 113.461V119H212.137V113.445C212.137 113.003 212.072 112.648 211.942 112.383C211.812 112.112 211.622 111.917 211.372 111.797C211.122 111.672 210.815 111.609 210.45 111.609C210.091 111.609 209.762 111.685 209.466 111.836C209.174 111.987 208.921 112.195 208.708 112.461C208.499 112.727 208.335 113.031 208.216 113.375C208.101 113.714 208.044 114.073 208.044 114.453ZM218.541 114.867V114.688C218.541 114.078 218.629 113.513 218.806 112.992C218.983 112.466 219.239 112.01 219.572 111.625C219.905 111.234 220.309 110.932 220.783 110.719C221.257 110.5 221.788 110.391 222.377 110.391C222.97 110.391 223.504 110.5 223.978 110.719C224.457 110.932 224.864 111.234 225.197 111.625C225.535 112.01 225.793 112.466 225.97 112.992C226.147 113.513 226.236 114.078 226.236 114.688V114.867C226.236 115.477 226.147 116.042 225.97 116.562C225.793 117.083 225.535 117.539 225.197 117.93C224.864 118.315 224.46 118.617 223.986 118.836C223.517 119.049 222.986 119.156 222.392 119.156C221.798 119.156 221.265 119.049 220.791 118.836C220.317 118.617 219.91 118.315 219.572 117.93C219.239 117.539 218.983 117.083 218.806 116.562C218.629 116.042 218.541 115.477 218.541 114.867ZM219.986 114.688V114.867C219.986 115.289 220.035 115.688 220.134 116.062C220.233 116.432 220.382 116.76 220.58 117.047C220.783 117.333 221.035 117.56 221.337 117.727C221.64 117.888 221.991 117.969 222.392 117.969C222.788 117.969 223.134 117.888 223.431 117.727C223.733 117.56 223.983 117.333 224.181 117.047C224.379 116.76 224.528 116.432 224.627 116.062C224.731 115.688 224.783 115.289 224.783 114.867V114.688C224.783 114.271 224.731 113.878 224.627 113.508C224.528 113.133 224.377 112.802 224.173 112.516C223.976 112.224 223.726 111.995 223.423 111.828C223.127 111.661 222.778 111.578 222.377 111.578C221.981 111.578 221.632 111.661 221.33 111.828C221.033 111.995 220.783 112.224 220.58 112.516C220.382 112.802 220.233 113.133 220.134 113.508C220.035 113.878 219.986 114.271 219.986 114.688ZM229.805 119H228.359V109.656C228.359 109.047 228.469 108.534 228.688 108.117C228.911 107.695 229.232 107.378 229.648 107.164C230.065 106.945 230.56 106.836 231.133 106.836C231.299 106.836 231.466 106.846 231.633 106.867C231.805 106.888 231.971 106.919 232.133 106.961L232.055 108.141C231.945 108.115 231.82 108.096 231.68 108.086C231.544 108.076 231.409 108.07 231.273 108.07C230.966 108.07 230.701 108.133 230.477 108.258C230.258 108.378 230.091 108.555 229.977 108.789C229.862 109.023 229.805 109.312 229.805 109.656V119ZM231.602 110.547V111.656H227.023V110.547H231.602ZM23.2578 143H21.8125V133.656C21.8125 133.047 21.9219 132.534 22.1406 132.117C22.3646 131.695 22.6849 131.378 23.1016 131.164C23.5182 130.945 24.013 130.836 24.5859 130.836C24.7526 130.836 24.9193 130.846 25.0859 130.867C25.2578 130.888 25.4245 130.919 25.5859 130.961L25.5078 132.141C25.3984 132.115 25.2734 132.096 25.1328 132.086C24.9974 132.076 24.862 132.07 24.7266 132.07C24.4193 132.07 24.1536 132.133 23.9297 132.258C23.7109 132.378 23.5443 132.555 23.4297 132.789C23.3151 133.023 23.2578 133.312 23.2578 133.656V143ZM25.0547 134.547V135.656H20.4766V134.547H25.0547ZM25.8812 138.867V138.688C25.8812 138.078 25.9698 137.513 26.1469 136.992C26.324 136.466 26.5792 136.01 26.9125 135.625C27.2458 135.234 27.6495 134.932 28.1234 134.719C28.5974 134.5 29.1286 134.391 29.7172 134.391C30.3109 134.391 30.8448 134.5 31.3187 134.719C31.7979 134.932 32.2042 135.234 32.5375 135.625C32.876 136.01 33.1339 136.466 33.3109 136.992C33.488 137.513 33.5766 138.078 33.5766 138.688V138.867C33.5766 139.477 33.488 140.042 33.3109 140.562C33.1339 141.083 32.876 141.539 32.5375 141.93C32.2042 142.315 31.8005 142.617 31.3266 142.836C30.8578 143.049 30.3266 143.156 29.7328 143.156C29.1391 143.156 28.6052 143.049 28.1312 142.836C27.6573 142.617 27.251 142.315 26.9125 141.93C26.5792 141.539 26.324 141.083 26.1469 140.562C25.9698 140.042 25.8812 139.477 25.8812 138.867ZM27.3266 138.688V138.867C27.3266 139.289 27.376 139.688 27.475 140.062C27.574 140.432 27.7224 140.76 27.9203 141.047C28.1234 141.333 28.376 141.56 28.6781 141.727C28.9802 141.888 29.3318 141.969 29.7328 141.969C30.1286 141.969 30.475 141.888 30.7719 141.727C31.074 141.56 31.324 141.333 31.5219 141.047C31.7198 140.76 31.8682 140.432 31.9672 140.062C32.0714 139.688 32.1234 139.289 32.1234 138.867V138.688C32.1234 138.271 32.0714 137.878 31.9672 137.508C31.8682 137.133 31.7172 136.802 31.5141 136.516C31.3161 136.224 31.0661 135.995 30.7641 135.828C30.4672 135.661 30.1182 135.578 29.7172 135.578C29.3214 135.578 28.9724 135.661 28.6703 135.828C28.3734 135.995 28.1234 136.224 27.9203 136.516C27.7224 136.802 27.574 137.133 27.475 137.508C27.376 137.878 27.3266 138.271 27.3266 138.688ZM34.6062 138.867V138.688C34.6062 138.078 34.6948 137.513 34.8719 136.992C35.049 136.466 35.3042 136.01 35.6375 135.625C35.9708 135.234 36.3745 134.932 36.8484 134.719C37.3224 134.5 37.8536 134.391 38.4422 134.391C39.0359 134.391 39.5698 134.5 40.0437 134.719C40.5229 134.932 40.9292 135.234 41.2625 135.625C41.601 136.01 41.8589 136.466 42.0359 136.992C42.213 137.513 42.3016 138.078 42.3016 138.688V138.867C42.3016 139.477 42.213 140.042 42.0359 140.562C41.8589 141.083 41.601 141.539 41.2625 141.93C40.9292 142.315 40.5255 142.617 40.0516 142.836C39.5828 143.049 39.0516 143.156 38.4578 143.156C37.8641 143.156 37.3302 143.049 36.8562 142.836C36.3823 142.617 35.976 142.315 35.6375 141.93C35.3042 141.539 35.049 141.083 34.8719 140.562C34.6948 140.042 34.6062 139.477 34.6062 138.867ZM36.0516 138.688V138.867C36.0516 139.289 36.101 139.688 36.2 140.062C36.299 140.432 36.4474 140.76 36.6453 141.047C36.8484 141.333 37.101 141.56 37.4031 141.727C37.7052 141.888 38.0568 141.969 38.4578 141.969C38.8536 141.969 39.2 141.888 39.4969 141.727C39.799 141.56 40.049 141.333 40.2469 141.047C40.4448 140.76 40.5932 140.432 40.6922 140.062C40.7964 139.688 40.8484 139.289 40.8484 138.867V138.688C40.8484 138.271 40.7964 137.878 40.6922 137.508C40.5932 137.133 40.4422 136.802 40.2391 136.516C40.0411 136.224 39.7911 135.995 39.4891 135.828C39.1922 135.661 38.8432 135.578 38.4422 135.578C38.0464 135.578 37.6974 135.661 37.3953 135.828C37.0984 135.995 36.8484 136.224 36.6453 136.516C36.4474 136.802 36.299 137.133 36.2 137.508C36.101 137.878 36.0516 138.271 36.0516 138.688ZM49.0422 141.359V131H50.4953V143H49.1672L49.0422 141.359ZM43.3547 138.867V138.703C43.3547 138.057 43.4328 137.471 43.5891 136.945C43.7505 136.414 43.9771 135.958 44.2687 135.578C44.5656 135.198 44.9172 134.906 45.3234 134.703C45.7349 134.495 46.1932 134.391 46.6984 134.391C47.2297 134.391 47.6932 134.484 48.0891 134.672C48.4901 134.854 48.8286 135.122 49.1047 135.477C49.3859 135.826 49.6073 136.247 49.7687 136.742C49.9302 137.237 50.0422 137.797 50.1047 138.422V139.141C50.0474 139.76 49.9354 140.318 49.7687 140.812C49.6073 141.307 49.3859 141.729 49.1047 142.078C48.8286 142.427 48.4901 142.695 48.0891 142.883C47.688 143.065 47.2193 143.156 46.6828 143.156C46.188 143.156 45.7349 143.049 45.3234 142.836C44.9172 142.622 44.5656 142.323 44.2687 141.938C43.9771 141.552 43.7505 141.099 43.5891 140.578C43.4328 140.052 43.3547 139.482 43.3547 138.867ZM44.8078 138.703V138.867C44.8078 139.289 44.8495 139.685 44.9328 140.055C45.0214 140.424 45.1568 140.75 45.3391 141.031C45.5214 141.312 45.7531 141.534 46.0344 141.695C46.3156 141.852 46.6516 141.93 47.0422 141.93C47.5214 141.93 47.9146 141.828 48.2219 141.625C48.5344 141.422 48.7844 141.154 48.9719 140.82C49.1594 140.487 49.3052 140.125 49.4094 139.734V137.852C49.3469 137.565 49.2557 137.289 49.1359 137.023C49.0214 136.753 48.8703 136.513 48.6828 136.305C48.5005 136.091 48.274 135.922 48.0031 135.797C47.7375 135.672 47.4224 135.609 47.0578 135.609C46.662 135.609 46.3208 135.693 46.0344 135.859C45.7531 136.021 45.5214 136.245 45.3391 136.531C45.1568 136.812 45.0214 137.141 44.9328 137.516C44.8495 137.885 44.8078 138.281 44.8078 138.703ZM58.0547 141.5L60.2266 134.547H61.1797L60.9922 135.93L58.7812 143H57.8516L58.0547 141.5ZM56.5938 134.547L58.4453 141.578L58.5781 143H57.6016L55.1484 134.547H56.5938ZM63.2578 141.523L65.0234 134.547H66.4609L64.0078 143H63.0391L63.2578 141.523ZM61.3906 134.547L63.5156 141.383L63.7578 143H62.8359L60.5625 135.914L60.375 134.547H61.3906ZM69.1156 134.547V143H67.6625V134.547H69.1156ZM67.5531 132.305C67.5531 132.07 67.6234 131.872 67.7641 131.711C67.9099 131.549 68.1234 131.469 68.4047 131.469C68.6807 131.469 68.8917 131.549 69.0375 131.711C69.1885 131.872 69.2641 132.07 69.2641 132.305C69.2641 132.529 69.1885 132.721 69.0375 132.883C68.8917 133.039 68.6807 133.117 68.4047 133.117C68.1234 133.117 67.9099 133.039 67.7641 132.883C67.6234 132.721 67.5531 132.529 67.5531 132.305ZM74.575 134.547V135.656H70.0047V134.547H74.575ZM71.5516 132.492H72.9969V140.906C72.9969 141.193 73.0411 141.409 73.1297 141.555C73.2182 141.701 73.3328 141.797 73.4734 141.844C73.6141 141.891 73.7651 141.914 73.9266 141.914C74.0464 141.914 74.1714 141.904 74.3016 141.883C74.437 141.857 74.5385 141.836 74.6063 141.82L74.6141 143C74.4995 143.036 74.3484 143.07 74.1609 143.102C73.9786 143.138 73.7573 143.156 73.4969 143.156C73.1427 143.156 72.8172 143.086 72.5203 142.945C72.2234 142.805 71.9865 142.57 71.8094 142.242C71.6375 141.909 71.5516 141.461 71.5516 140.898V132.492ZM77.3156 131V143H75.8703V131H77.3156ZM76.9719 138.453L76.3703 138.43C76.3755 137.852 76.4615 137.318 76.6281 136.828C76.7948 136.333 77.0292 135.904 77.3312 135.539C77.6333 135.174 77.9927 134.893 78.4094 134.695C78.8312 134.492 79.2974 134.391 79.8078 134.391C80.2245 134.391 80.5995 134.448 80.9328 134.562C81.2661 134.672 81.55 134.849 81.7844 135.094C82.024 135.339 82.2062 135.656 82.3312 136.047C82.4562 136.432 82.5187 136.904 82.5187 137.461V143H81.0656V137.445C81.0656 137.003 81.0005 136.648 80.8703 136.383C80.7401 136.112 80.55 135.917 80.3 135.797C80.05 135.672 79.7427 135.609 79.3781 135.609C79.0187 135.609 78.6906 135.685 78.3937 135.836C78.1021 135.987 77.8495 136.195 77.6359 136.461C77.4276 136.727 77.2635 137.031 77.1437 137.375C77.0292 137.714 76.9719 138.073 76.9719 138.453ZM85.8531 134.547V143H84.4V134.547H85.8531ZM84.2906 132.305C84.2906 132.07 84.3609 131.872 84.5016 131.711C84.6474 131.549 84.8609 131.469 85.1422 131.469C85.4182 131.469 85.6292 131.549 85.775 131.711C85.926 131.872 86.0016 132.07 86.0016 132.305C86.0016 132.529 85.926 132.721 85.775 132.883C85.6292 133.039 85.4182 133.117 85.1422 133.117C84.8609 133.117 84.6474 133.039 84.5016 132.883C84.3609 132.721 84.2906 132.529 84.2906 132.305ZM89.2188 136.352V143H87.7734V134.547H89.1406L89.2188 136.352ZM88.875 138.453L88.2734 138.43C88.2786 137.852 88.3646 137.318 88.5312 136.828C88.6979 136.333 88.9323 135.904 89.2344 135.539C89.5365 135.174 89.8958 134.893 90.3125 134.695C90.7344 134.492 91.2005 134.391 91.7109 134.391C92.1276 134.391 92.5026 134.448 92.8359 134.562C93.1693 134.672 93.4531 134.849 93.6875 135.094C93.9271 135.339 94.1094 135.656 94.2344 136.047C94.3594 136.432 94.4219 136.904 94.4219 137.461V143H92.9688V137.445C92.9688 137.003 92.9036 136.648 92.7734 136.383C92.6432 136.112 92.4531 135.917 92.2031 135.797C91.9531 135.672 91.6458 135.609 91.2812 135.609C90.9219 135.609 90.5938 135.685 90.2969 135.836C90.0052 135.987 89.7526 136.195 89.5391 136.461C89.3307 136.727 89.1667 137.031 89.0469 137.375C88.9323 137.714 88.875 138.073 88.875 138.453ZM104.77 141.555V137.203C104.77 136.87 104.703 136.581 104.567 136.336C104.437 136.086 104.239 135.893 103.973 135.758C103.708 135.622 103.38 135.555 102.989 135.555C102.624 135.555 102.304 135.617 102.028 135.742C101.757 135.867 101.544 136.031 101.387 136.234C101.236 136.438 101.161 136.656 101.161 136.891H99.7156C99.7156 136.589 99.7937 136.289 99.95 135.992C100.106 135.695 100.33 135.427 100.622 135.188C100.919 134.943 101.273 134.75 101.684 134.609C102.101 134.464 102.565 134.391 103.075 134.391C103.69 134.391 104.231 134.495 104.7 134.703C105.174 134.911 105.544 135.227 105.809 135.648C106.08 136.065 106.216 136.589 106.216 137.219V141.156C106.216 141.438 106.239 141.737 106.286 142.055C106.338 142.372 106.414 142.646 106.512 142.875V143H105.005C104.932 142.833 104.874 142.612 104.833 142.336C104.791 142.055 104.77 141.794 104.77 141.555ZM105.02 137.875L105.036 138.891H103.575C103.164 138.891 102.796 138.924 102.473 138.992C102.151 139.055 101.88 139.151 101.661 139.281C101.442 139.411 101.276 139.576 101.161 139.773C101.046 139.966 100.989 140.193 100.989 140.453C100.989 140.719 101.049 140.961 101.169 141.18C101.289 141.398 101.468 141.573 101.708 141.703C101.953 141.828 102.252 141.891 102.606 141.891C103.049 141.891 103.44 141.797 103.778 141.609C104.117 141.422 104.385 141.193 104.583 140.922C104.786 140.651 104.895 140.388 104.911 140.133L105.528 140.828C105.492 141.047 105.393 141.289 105.231 141.555C105.07 141.82 104.854 142.076 104.583 142.32C104.317 142.56 103.999 142.76 103.63 142.922C103.265 143.078 102.854 143.156 102.395 143.156C101.822 143.156 101.32 143.044 100.887 142.82C100.46 142.596 100.127 142.297 99.8875 141.922C99.6531 141.542 99.5359 141.117 99.5359 140.648C99.5359 140.195 99.6245 139.797 99.8016 139.453C99.9786 139.104 100.234 138.815 100.567 138.586C100.901 138.352 101.302 138.174 101.77 138.055C102.239 137.935 102.762 137.875 103.341 137.875H105.02ZM113.095 136.227V143H111.642V134.547H113.017L113.095 136.227ZM112.798 138.453L112.127 138.43C112.132 137.852 112.207 137.318 112.353 136.828C112.499 136.333 112.715 135.904 113.002 135.539C113.288 135.174 113.645 134.893 114.072 134.695C114.499 134.492 114.994 134.391 115.556 134.391C115.952 134.391 116.317 134.448 116.65 134.562C116.983 134.672 117.272 134.846 117.517 135.086C117.762 135.326 117.952 135.633 118.088 136.008C118.223 136.383 118.291 136.836 118.291 137.367V143H116.845V137.438C116.845 136.995 116.77 136.641 116.619 136.375C116.473 136.109 116.265 135.917 115.994 135.797C115.723 135.672 115.405 135.609 115.041 135.609C114.614 135.609 114.257 135.685 113.97 135.836C113.684 135.987 113.455 136.195 113.283 136.461C113.111 136.727 112.986 137.031 112.908 137.375C112.835 137.714 112.798 138.073 112.798 138.453ZM118.275 137.656L117.306 137.953C117.311 137.49 117.387 137.044 117.533 136.617C117.684 136.19 117.9 135.81 118.181 135.477C118.468 135.143 118.819 134.88 119.236 134.688C119.653 134.49 120.129 134.391 120.666 134.391C121.119 134.391 121.52 134.451 121.869 134.57C122.223 134.69 122.52 134.875 122.759 135.125C123.004 135.37 123.189 135.685 123.314 136.07C123.439 136.456 123.502 136.914 123.502 137.445V143H122.048V137.43C122.048 136.956 121.973 136.589 121.822 136.328C121.676 136.062 121.468 135.878 121.197 135.773C120.931 135.664 120.614 135.609 120.244 135.609C119.926 135.609 119.645 135.664 119.4 135.773C119.155 135.883 118.949 136.034 118.783 136.227C118.616 136.414 118.489 136.63 118.4 136.875C118.317 137.12 118.275 137.38 118.275 137.656ZM124.906 138.867V138.688C124.906 138.078 124.995 137.513 125.172 136.992C125.349 136.466 125.604 136.01 125.938 135.625C126.271 135.234 126.674 134.932 127.148 134.719C127.622 134.5 128.154 134.391 128.742 134.391C129.336 134.391 129.87 134.5 130.344 134.719C130.823 134.932 131.229 135.234 131.562 135.625C131.901 136.01 132.159 136.466 132.336 136.992C132.513 137.513 132.602 138.078 132.602 138.688V138.867C132.602 139.477 132.513 140.042 132.336 140.562C132.159 141.083 131.901 141.539 131.562 141.93C131.229 142.315 130.826 142.617 130.352 142.836C129.883 143.049 129.352 143.156 128.758 143.156C128.164 143.156 127.63 143.049 127.156 142.836C126.682 142.617 126.276 142.315 125.938 141.93C125.604 141.539 125.349 141.083 125.172 140.562C124.995 140.042 124.906 139.477 124.906 138.867ZM126.352 138.688V138.867C126.352 139.289 126.401 139.688 126.5 140.062C126.599 140.432 126.747 140.76 126.945 141.047C127.148 141.333 127.401 141.56 127.703 141.727C128.005 141.888 128.357 141.969 128.758 141.969C129.154 141.969 129.5 141.888 129.797 141.727C130.099 141.56 130.349 141.333 130.547 141.047C130.745 140.76 130.893 140.432 130.992 140.062C131.096 139.688 131.148 139.289 131.148 138.867V138.688C131.148 138.271 131.096 137.878 130.992 137.508C130.893 137.133 130.742 136.802 130.539 136.516C130.341 136.224 130.091 135.995 129.789 135.828C129.492 135.661 129.143 135.578 128.742 135.578C128.346 135.578 127.997 135.661 127.695 135.828C127.398 135.995 127.148 136.224 126.945 136.516C126.747 136.802 126.599 137.133 126.5 137.508C126.401 137.878 126.352 138.271 126.352 138.688ZM135.459 136.352V143H134.014V134.547H135.381L135.459 136.352ZM135.116 138.453L134.514 138.43C134.519 137.852 134.605 137.318 134.772 136.828C134.939 136.333 135.173 135.904 135.475 135.539C135.777 135.174 136.136 134.893 136.553 134.695C136.975 134.492 137.441 134.391 137.952 134.391C138.368 134.391 138.743 134.448 139.077 134.562C139.41 134.672 139.694 134.849 139.928 135.094C140.168 135.339 140.35 135.656 140.475 136.047C140.6 136.432 140.662 136.904 140.662 137.461V143H139.209V137.445C139.209 137.003 139.144 136.648 139.014 136.383C138.884 136.112 138.694 135.917 138.444 135.797C138.194 135.672 137.886 135.609 137.522 135.609C137.162 135.609 136.834 135.685 136.537 135.836C136.246 135.987 135.993 136.195 135.78 136.461C135.571 136.727 135.407 137.031 135.287 137.375C135.173 137.714 135.116 138.073 135.116 138.453ZM145.997 134.547V135.656H141.427V134.547H145.997ZM142.973 132.492H144.419V140.906C144.419 141.193 144.463 141.409 144.552 141.555C144.64 141.701 144.755 141.797 144.895 141.844C145.036 141.891 145.187 141.914 145.348 141.914C145.468 141.914 145.593 141.904 145.723 141.883C145.859 141.857 145.96 141.836 146.028 141.82L146.036 143C145.921 143.036 145.77 143.07 145.583 143.102C145.401 143.138 145.179 143.156 144.919 143.156C144.565 143.156 144.239 143.086 143.942 142.945C143.645 142.805 143.408 142.57 143.231 142.242C143.059 141.909 142.973 141.461 142.973 140.898V132.492ZM148.738 131V143H147.292V131H148.738ZM148.394 138.453L147.792 138.43C147.797 137.852 147.883 137.318 148.05 136.828C148.217 136.333 148.451 135.904 148.753 135.539C149.055 135.174 149.415 134.893 149.831 134.695C150.253 134.492 150.719 134.391 151.23 134.391C151.646 134.391 152.021 134.448 152.355 134.562C152.688 134.672 152.972 134.849 153.206 135.094C153.446 135.339 153.628 135.656 153.753 136.047C153.878 136.432 153.941 136.904 153.941 137.461V143H152.488V137.445C152.488 137.003 152.422 136.648 152.292 136.383C152.162 136.112 151.972 135.917 151.722 135.797C151.472 135.672 151.165 135.609 150.8 135.609C150.441 135.609 150.113 135.685 149.816 135.836C149.524 135.987 149.271 136.195 149.058 136.461C148.849 136.727 148.685 137.031 148.566 137.375C148.451 137.714 148.394 138.073 148.394 138.453ZM162.812 134.547V135.656H158.242V134.547H162.812ZM159.789 132.492H161.234V140.906C161.234 141.193 161.279 141.409 161.367 141.555C161.456 141.701 161.57 141.797 161.711 141.844C161.852 141.891 162.003 141.914 162.164 141.914C162.284 141.914 162.409 141.904 162.539 141.883C162.674 141.857 162.776 141.836 162.844 141.82L162.852 143C162.737 143.036 162.586 143.07 162.398 143.102C162.216 143.138 161.995 143.156 161.734 143.156C161.38 143.156 161.055 143.086 160.758 142.945C160.461 142.805 160.224 142.57 160.047 142.242C159.875 141.909 159.789 141.461 159.789 140.898V132.492ZM163.569 138.867V138.688C163.569 138.078 163.657 137.513 163.834 136.992C164.011 136.466 164.267 136.01 164.6 135.625C164.933 135.234 165.337 134.932 165.811 134.719C166.285 134.5 166.816 134.391 167.405 134.391C167.998 134.391 168.532 134.5 169.006 134.719C169.485 134.932 169.892 135.234 170.225 135.625C170.564 136.01 170.821 136.466 170.998 136.992C171.176 137.513 171.264 138.078 171.264 138.688V138.867C171.264 139.477 171.176 140.042 170.998 140.562C170.821 141.083 170.564 141.539 170.225 141.93C169.892 142.315 169.488 142.617 169.014 142.836C168.545 143.049 168.014 143.156 167.42 143.156C166.827 143.156 166.293 143.049 165.819 142.836C165.345 142.617 164.939 142.315 164.6 141.93C164.267 141.539 164.011 141.083 163.834 140.562C163.657 140.042 163.569 139.477 163.569 138.867ZM165.014 138.688V138.867C165.014 139.289 165.064 139.688 165.163 140.062C165.261 140.432 165.41 140.76 165.608 141.047C165.811 141.333 166.064 141.56 166.366 141.727C166.668 141.888 167.019 141.969 167.42 141.969C167.816 141.969 168.163 141.888 168.459 141.727C168.761 141.56 169.011 141.333 169.209 141.047C169.407 140.76 169.556 140.432 169.655 140.062C169.759 139.688 169.811 139.289 169.811 138.867V138.688C169.811 138.271 169.759 137.878 169.655 137.508C169.556 137.133 169.405 136.802 169.202 136.516C169.004 136.224 168.754 135.995 168.452 135.828C168.155 135.661 167.806 135.578 167.405 135.578C167.009 135.578 166.66 135.661 166.358 135.828C166.061 135.995 165.811 136.224 165.608 136.516C165.41 136.802 165.261 137.133 165.163 137.508C165.064 137.878 165.014 138.271 165.014 138.688ZM181.566 146.25V136.172L181.691 134.547H183.019V146.25H181.566ZM175.886 138.867V138.703C175.886 138.057 175.961 137.471 176.113 136.945C176.264 136.414 176.485 135.958 176.777 135.578C177.068 135.198 177.42 134.906 177.831 134.703C178.248 134.495 178.722 134.391 179.253 134.391C179.784 134.391 180.251 134.484 180.652 134.672C181.058 134.854 181.402 135.122 181.683 135.477C181.969 135.826 182.196 136.247 182.363 136.742C182.529 137.237 182.644 137.797 182.706 138.422V139.141C182.649 139.76 182.537 140.318 182.37 140.812C182.204 141.307 181.977 141.729 181.691 142.078C181.409 142.427 181.063 142.695 180.652 142.883C180.245 143.065 179.774 143.156 179.238 143.156C178.717 143.156 178.248 143.049 177.831 142.836C177.42 142.622 177.068 142.323 176.777 141.938C176.49 141.552 176.269 141.099 176.113 140.578C175.961 140.052 175.886 139.482 175.886 138.867ZM177.339 138.703V138.867C177.339 139.289 177.383 139.688 177.472 140.062C177.56 140.432 177.696 140.76 177.878 141.047C178.066 141.333 178.3 141.56 178.581 141.727C178.868 141.888 179.206 141.969 179.597 141.969C180.076 141.969 180.474 141.865 180.792 141.656C181.115 141.448 181.373 141.174 181.566 140.836C181.758 140.492 181.907 140.125 182.011 139.734V137.852C181.954 137.565 181.863 137.286 181.738 137.016C181.618 136.745 181.461 136.503 181.269 136.289C181.076 136.07 180.842 135.898 180.566 135.773C180.295 135.643 179.977 135.578 179.613 135.578C179.217 135.578 178.876 135.661 178.589 135.828C178.303 135.995 178.066 136.224 177.878 136.516C177.696 136.802 177.56 137.133 177.472 137.508C177.383 137.883 177.339 138.281 177.339 138.703ZM190.111 141.047V134.547H191.564V143H190.181L190.111 141.047ZM190.384 139.266L190.986 139.25C190.986 139.812 190.926 140.333 190.806 140.812C190.692 141.286 190.504 141.698 190.244 142.047C189.983 142.396 189.642 142.669 189.22 142.867C188.798 143.06 188.285 143.156 187.681 143.156C187.27 143.156 186.892 143.096 186.548 142.977C186.21 142.857 185.918 142.672 185.673 142.422C185.429 142.172 185.239 141.846 185.103 141.445C184.973 141.044 184.908 140.562 184.908 140V134.547H186.353V140.016C186.353 140.396 186.395 140.711 186.478 140.961C186.567 141.206 186.684 141.401 186.83 141.547C186.981 141.688 187.147 141.786 187.33 141.844C187.517 141.901 187.71 141.93 187.908 141.93C188.522 141.93 189.009 141.812 189.369 141.578C189.728 141.339 189.986 141.018 190.142 140.617C190.304 140.211 190.384 139.76 190.384 139.266ZM198.352 141.555V137.203C198.352 136.87 198.284 136.581 198.148 136.336C198.018 136.086 197.82 135.893 197.555 135.758C197.289 135.622 196.961 135.555 196.57 135.555C196.206 135.555 195.885 135.617 195.609 135.742C195.339 135.867 195.125 136.031 194.969 136.234C194.818 136.438 194.742 136.656 194.742 136.891H193.297C193.297 136.589 193.375 136.289 193.531 135.992C193.688 135.695 193.911 135.427 194.203 135.188C194.5 134.943 194.854 134.75 195.266 134.609C195.682 134.464 196.146 134.391 196.656 134.391C197.271 134.391 197.812 134.495 198.281 134.703C198.755 134.911 199.125 135.227 199.391 135.648C199.661 136.065 199.797 136.589 199.797 137.219V141.156C199.797 141.438 199.82 141.737 199.867 142.055C199.919 142.372 199.995 142.646 200.094 142.875V143H198.586C198.513 142.833 198.456 142.612 198.414 142.336C198.372 142.055 198.352 141.794 198.352 141.555ZM198.602 137.875L198.617 138.891H197.156C196.745 138.891 196.378 138.924 196.055 138.992C195.732 139.055 195.461 139.151 195.242 139.281C195.023 139.411 194.857 139.576 194.742 139.773C194.628 139.966 194.57 140.193 194.57 140.453C194.57 140.719 194.63 140.961 194.75 141.18C194.87 141.398 195.049 141.573 195.289 141.703C195.534 141.828 195.833 141.891 196.188 141.891C196.63 141.891 197.021 141.797 197.359 141.609C197.698 141.422 197.966 141.193 198.164 140.922C198.367 140.651 198.477 140.388 198.492 140.133L199.109 140.828C199.073 141.047 198.974 141.289 198.812 141.555C198.651 141.82 198.435 142.076 198.164 142.32C197.898 142.56 197.581 142.76 197.211 142.922C196.846 143.078 196.435 143.156 195.977 143.156C195.404 143.156 194.901 143.044 194.469 142.82C194.042 142.596 193.708 142.297 193.469 141.922C193.234 141.542 193.117 141.117 193.117 140.648C193.117 140.195 193.206 139.797 193.383 139.453C193.56 139.104 193.815 138.815 194.148 138.586C194.482 138.352 194.883 138.174 195.352 138.055C195.82 137.935 196.344 137.875 196.922 137.875H198.602ZM203.241 131V143H201.788V131H203.241ZM206.731 134.547V143H205.278V134.547H206.731ZM205.169 132.305C205.169 132.07 205.239 131.872 205.38 131.711C205.526 131.549 205.739 131.469 206.02 131.469C206.296 131.469 206.507 131.549 206.653 131.711C206.804 131.872 206.88 132.07 206.88 132.305C206.88 132.529 206.804 132.721 206.653 132.883C206.507 133.039 206.296 133.117 206.02 133.117C205.739 133.117 205.526 133.039 205.38 132.883C205.239 132.721 205.169 132.529 205.169 132.305ZM210.808 143H209.363V133.656C209.363 133.047 209.472 132.534 209.691 132.117C209.915 131.695 210.235 131.378 210.652 131.164C211.068 130.945 211.563 130.836 212.136 130.836C212.303 130.836 212.469 130.846 212.636 130.867C212.808 130.888 212.974 130.919 213.136 130.961L213.058 132.141C212.948 132.115 212.823 132.096 212.683 132.086C212.547 132.076 212.412 132.07 212.277 132.07C211.969 132.07 211.704 132.133 211.48 132.258C211.261 132.378 211.094 132.555 210.98 132.789C210.865 133.023 210.808 133.312 210.808 133.656V143ZM212.605 134.547V135.656H208.027V134.547H212.605ZM216.189 142.125L218.541 134.547H220.087L216.697 144.305C216.619 144.513 216.515 144.737 216.384 144.977C216.259 145.221 216.098 145.453 215.9 145.672C215.702 145.891 215.462 146.068 215.181 146.203C214.905 146.344 214.574 146.414 214.189 146.414C214.074 146.414 213.929 146.398 213.752 146.367C213.574 146.336 213.449 146.31 213.377 146.289L213.369 145.117C213.41 145.122 213.476 145.128 213.564 145.133C213.658 145.143 213.723 145.148 213.759 145.148C214.087 145.148 214.366 145.104 214.595 145.016C214.824 144.932 215.017 144.789 215.173 144.586C215.335 144.388 215.473 144.115 215.587 143.766L216.189 142.125ZM214.462 134.547L216.658 141.109L217.033 142.633L215.994 143.164L212.884 134.547H214.462Z" fill="#010F07"/>
<path d="M26.3164 28.0938V48H21.5176V28.0938H26.3164ZM34.0547 36.3789V40.0703H24.9492V36.3789H34.0547ZM34.834 28.0938V31.7988H24.9492V28.0938H34.834ZM41.0843 36.8711V48H36.4769V33.207H40.7835L41.0843 36.8711ZM45.4593 33.0977L45.3773 37.377C45.195 37.3587 44.9489 37.3359 44.639 37.3086C44.3291 37.2812 44.0693 37.2676 43.8597 37.2676C43.3219 37.2676 42.8571 37.3314 42.4652 37.459C42.0823 37.5775 41.7633 37.7598 41.5081 38.0059C41.262 38.2428 41.0797 38.5436 40.9613 38.9082C40.8519 39.2728 40.8017 39.6966 40.8109 40.1797L39.9769 39.6328C39.9769 38.6393 40.0726 37.737 40.264 36.9258C40.4645 36.1055 40.7471 35.3991 41.1116 34.8066C41.4762 34.2051 41.9183 33.7448 42.4378 33.4258C42.9573 33.0977 43.5407 32.9336 44.1878 32.9336C44.4157 32.9336 44.639 32.9473 44.8577 32.9746C45.0856 33.002 45.2861 33.043 45.4593 33.0977ZM54.1159 48.2734C52.9127 48.2734 51.8372 48.0866 50.8893 47.7129C49.9414 47.3301 49.1393 46.806 48.483 46.1406C47.8359 45.4753 47.3392 44.7096 46.9928 43.8438C46.6556 42.9779 46.487 42.0618 46.487 41.0957V40.5762C46.487 39.4915 46.6373 38.4889 46.9381 37.5684C47.2389 36.6387 47.6855 35.8275 48.278 35.1348C48.8704 34.4421 49.6133 33.9043 50.5065 33.5215C51.3997 33.1296 52.4388 32.9336 53.6237 32.9336C54.6718 32.9336 55.6107 33.1022 56.4401 33.4395C57.2695 33.7767 57.9713 34.2598 58.5455 34.8887C59.1289 35.5176 59.5709 36.2786 59.8717 37.1719C60.1816 38.0651 60.3366 39.0677 60.3366 40.1797V42.0527H48.2506V39.168H55.8385V38.8125C55.8476 38.3203 55.761 37.901 55.5788 37.5547C55.4056 37.2083 55.1504 36.944 54.8131 36.7617C54.4759 36.5794 54.0657 36.4883 53.5827 36.4883C53.0814 36.4883 52.6666 36.5977 52.3385 36.8164C52.0195 37.0352 51.7689 37.3359 51.5866 37.7188C51.4134 38.0924 51.2903 38.5254 51.2174 39.0176C51.1445 39.5098 51.108 40.0293 51.108 40.5762V41.0957C51.108 41.6426 51.181 42.1393 51.3268 42.5859C51.4817 43.0326 51.7005 43.4154 51.983 43.7344C52.2747 44.0443 52.6211 44.2858 53.0221 44.459C53.4323 44.6322 53.8971 44.7188 54.4166 44.7188C55.0455 44.7188 55.6653 44.6003 56.276 44.3633C56.8867 44.1263 57.4108 43.7344 57.8483 43.1875L59.9401 45.6758C59.6393 46.1042 59.2109 46.5189 58.6549 46.9199C58.108 47.321 57.4518 47.6491 56.6862 47.9043C55.9205 48.1504 55.0638 48.2734 54.1159 48.2734ZM69.5537 48.2734C68.3505 48.2734 67.275 48.0866 66.3271 47.7129C65.3792 47.3301 64.5771 46.806 63.9209 46.1406C63.2737 45.4753 62.777 44.7096 62.4306 43.8438C62.0934 42.9779 61.9248 42.0618 61.9248 41.0957V40.5762C61.9248 39.4915 62.0752 38.4889 62.3759 37.5684C62.6767 36.6387 63.1233 35.8275 63.7158 35.1348C64.3082 34.4421 65.0511 33.9043 65.9443 33.5215C66.8375 33.1296 67.8766 32.9336 69.0615 32.9336C70.1097 32.9336 71.0485 33.1022 71.8779 33.4395C72.7073 33.7767 73.4091 34.2598 73.9834 34.8887C74.5667 35.5176 75.0088 36.2786 75.3095 37.1719C75.6194 38.0651 75.7744 39.0677 75.7744 40.1797V42.0527H63.6884V39.168H71.2763V38.8125C71.2854 38.3203 71.1989 37.901 71.0166 37.5547C70.8434 37.2083 70.5882 36.944 70.2509 36.7617C69.9137 36.5794 69.5035 36.4883 69.0205 36.4883C68.5192 36.4883 68.1045 36.5977 67.7763 36.8164C67.4573 37.0352 67.2067 37.3359 67.0244 37.7188C66.8512 38.0924 66.7282 38.5254 66.6552 39.0176C66.5823 39.5098 66.5459 40.0293 66.5459 40.5762V41.0957C66.5459 41.6426 66.6188 42.1393 66.7646 42.5859C66.9196 43.0326 67.1383 43.4154 67.4209 43.7344C67.7125 44.0443 68.0589 44.2858 68.4599 44.459C68.8701 44.6322 69.3349 44.7188 69.8545 44.7188C70.4834 44.7188 71.1032 44.6003 71.7138 44.3633C72.3245 44.1263 72.8486 43.7344 73.2861 43.1875L75.3779 45.6758C75.0771 46.1042 74.6487 46.5189 74.0927 46.9199C73.5459 47.321 72.8896 47.6491 72.124 47.9043C71.3584 48.1504 70.5016 48.2734 69.5537 48.2734ZM91.6656 48H87.2496L87.277 44.3086H91.6656C92.5771 44.3086 93.3473 44.0898 93.9762 43.6523C94.6142 43.2148 95.0973 42.5632 95.4254 41.6973C95.7626 40.8223 95.9313 39.7467 95.9313 38.4707V37.6094C95.9313 36.6523 95.8355 35.8138 95.6441 35.0938C95.4619 34.3646 95.1884 33.7585 94.8238 33.2754C94.4592 32.7832 94.0035 32.4141 93.4566 32.168C92.9189 31.9219 92.2991 31.7988 91.5973 31.7988H87.1676V28.0938H91.5973C92.9462 28.0938 94.1813 28.3262 95.3023 28.791C96.4326 29.2467 97.4078 29.903 98.2281 30.7598C99.0576 31.6074 99.6956 32.6146 100.142 33.7812C100.598 34.9388 100.826 36.224 100.826 37.6367V38.4707C100.826 39.8743 100.598 41.1595 100.142 42.3262C99.6956 43.4928 99.0621 44.5 98.2418 45.3477C97.4215 46.1953 96.4508 46.8516 95.3297 47.3164C94.2177 47.7721 92.9964 48 91.6656 48ZM89.9977 28.0938V48H85.1988V28.0938H89.9977ZM110.453 48.2734C109.25 48.2734 108.174 48.0866 107.226 47.7129C106.279 47.3301 105.476 46.806 104.82 46.1406C104.173 45.4753 103.676 44.7096 103.33 43.8438C102.993 42.9779 102.824 42.0618 102.824 41.0957V40.5762C102.824 39.4915 102.975 38.4889 103.275 37.5684C103.576 36.6387 104.023 35.8275 104.615 35.1348C105.208 34.4421 105.95 33.9043 106.844 33.5215C107.737 33.1296 108.776 32.9336 109.961 32.9336C111.009 32.9336 111.948 33.1022 112.777 33.4395C113.607 33.7767 114.309 34.2598 114.883 34.8887C115.466 35.5176 115.908 36.2786 116.209 37.1719C116.519 38.0651 116.674 39.0677 116.674 40.1797V42.0527H104.588V39.168H112.176V38.8125C112.185 38.3203 112.098 37.901 111.916 37.5547C111.743 37.2083 111.488 36.944 111.15 36.7617C110.813 36.5794 110.403 36.4883 109.92 36.4883C109.419 36.4883 109.004 36.5977 108.676 36.8164C108.357 37.0352 108.106 37.3359 107.924 37.7188C107.751 38.0924 107.628 38.5254 107.555 39.0176C107.482 39.5098 107.445 40.0293 107.445 40.5762V41.0957C107.445 41.6426 107.518 42.1393 107.664 42.5859C107.819 43.0326 108.038 43.4154 108.32 43.7344C108.612 44.0443 108.958 44.2858 109.359 44.459C109.769 44.6322 110.234 44.7188 110.754 44.7188C111.383 44.7188 112.003 44.6003 112.613 44.3633C113.224 44.1263 113.748 43.7344 114.185 43.1875L116.277 45.6758C115.976 46.1042 115.548 46.5189 114.992 46.9199C114.445 47.321 113.789 47.6491 113.023 47.9043C112.258 48.1504 111.401 48.2734 110.453 48.2734ZM123.594 27V48H118.973V27H123.594ZM131.485 33.207V48H126.864V33.207H131.485ZM126.59 29.3926C126.59 28.7363 126.827 28.1986 127.301 27.7793C127.775 27.36 128.391 27.1504 129.147 27.1504C129.904 27.1504 130.519 27.36 130.993 27.7793C131.467 28.1986 131.704 28.7363 131.704 29.3926C131.704 30.0488 131.467 30.5866 130.993 31.0059C130.519 31.4251 129.904 31.6348 129.147 31.6348C128.391 31.6348 127.775 31.4251 127.301 31.0059C126.827 30.5866 126.59 30.0488 126.59 29.3926ZM139.841 44.8418L142.753 33.207H147.606L142.766 48H139.895L139.841 44.8418ZM138.118 33.207L140.989 44.8418L140.962 48H138.077L133.251 33.207H138.118ZM156.126 48.2734C154.923 48.2734 153.848 48.0866 152.9 47.7129C151.952 47.3301 151.15 46.806 150.493 46.1406C149.846 45.4753 149.349 44.7096 149.003 43.8438C148.666 42.9779 148.497 42.0618 148.497 41.0957V40.5762C148.497 39.4915 148.648 38.4889 148.948 37.5684C149.249 36.6387 149.696 35.8275 150.288 35.1348C150.881 34.4421 151.624 33.9043 152.517 33.5215C153.41 33.1296 154.449 32.9336 155.634 32.9336C156.682 32.9336 157.621 33.1022 158.45 33.4395C159.28 33.7767 159.982 34.2598 160.556 34.8887C161.139 35.5176 161.581 36.2786 161.882 37.1719C162.192 38.0651 162.347 39.0677 162.347 40.1797V42.0527H150.261V39.168H157.849V38.8125C157.858 38.3203 157.771 37.901 157.589 37.5547C157.416 37.2083 157.161 36.944 156.823 36.7617C156.486 36.5794 156.076 36.4883 155.593 36.4883C155.092 36.4883 154.677 36.5977 154.349 36.8164C154.03 37.0352 153.779 37.3359 153.597 37.7188C153.424 38.0924 153.301 38.5254 153.228 39.0176C153.155 39.5098 153.118 40.0293 153.118 40.5762V41.0957C153.118 41.6426 153.191 42.1393 153.337 42.5859C153.492 43.0326 153.711 43.4154 153.993 43.7344C154.285 44.0443 154.631 44.2858 155.032 44.459C155.443 44.6322 155.907 44.7188 156.427 44.7188C157.056 44.7188 157.676 44.6003 158.286 44.3633C158.897 44.1263 159.421 43.7344 159.859 43.1875L161.95 45.6758C161.65 46.1042 161.221 46.5189 160.665 46.9199C160.118 47.321 159.462 47.6491 158.696 47.9043C157.931 48.1504 157.074 48.2734 156.126 48.2734ZM169.048 36.8711V48H164.441V33.207H168.748L169.048 36.8711ZM173.423 33.0977L173.341 37.377C173.159 37.3587 172.913 37.3359 172.603 37.3086C172.293 37.2812 172.033 37.2676 171.824 37.2676C171.286 37.2676 170.821 37.3314 170.429 37.459C170.046 37.5775 169.727 37.7598 169.472 38.0059C169.226 38.2428 169.044 38.5436 168.925 38.9082C168.816 39.2728 168.766 39.6966 168.775 40.1797L167.941 39.6328C167.941 38.6393 168.037 37.737 168.228 36.9258C168.429 36.1055 168.711 35.3991 169.076 34.8066C169.44 34.2051 169.882 33.7448 170.402 33.4258C170.921 33.0977 171.505 32.9336 172.152 32.9336C172.38 32.9336 172.603 32.9473 172.822 32.9746C173.05 33.002 173.25 33.043 173.423 33.0977ZM179.974 46.2637L183.803 33.207H188.752L182.805 50.2012C182.677 50.5749 182.508 50.9759 182.299 51.4043C182.089 51.8418 181.802 52.2565 181.437 52.6484C181.073 53.0404 180.603 53.3594 180.029 53.6055C179.464 53.8516 178.762 53.9746 177.924 53.9746C177.477 53.9746 177.149 53.9518 176.939 53.9062C176.739 53.8698 176.429 53.8014 176.01 53.7012V50.4062C176.128 50.4062 176.228 50.4062 176.31 50.4062C176.402 50.4062 176.502 50.4062 176.611 50.4062C177.103 50.4062 177.495 50.3561 177.787 50.2559C178.088 50.1556 178.316 50.0098 178.471 49.8184C178.635 49.627 178.762 49.3945 178.853 49.1211L179.974 46.2637ZM179.004 33.207L181.916 43.5566L182.422 48.4375H179.332L174.068 33.207H179.004ZM202.934 48H198.299V32.0039C198.299 30.8555 198.532 29.8893 198.997 29.1055C199.461 28.3216 200.118 27.7292 200.965 27.3281C201.813 26.918 202.816 26.7129 203.973 26.7129C204.374 26.7129 204.752 26.7402 205.108 26.7949C205.463 26.8496 205.81 26.918 206.147 27L206.161 30.3906C205.997 30.3451 205.828 30.3132 205.655 30.2949C205.482 30.2767 205.267 30.2676 205.012 30.2676C204.566 30.2676 204.187 30.3359 203.877 30.4727C203.568 30.6003 203.331 30.7962 203.166 31.0605C203.012 31.3158 202.934 31.6302 202.934 32.0039V48ZM205.805 33.207V36.4062H196.166V33.207H205.805ZM207.065 40.7539V40.4668C207.065 39.3822 207.22 38.3841 207.53 37.4727C207.84 36.5521 208.296 35.7546 208.897 35.0801C209.499 34.4056 210.242 33.8815 211.126 33.5078C212.01 33.125 213.031 32.9336 214.188 32.9336C215.355 32.9336 216.38 33.125 217.264 33.5078C218.158 33.8815 218.905 34.4056 219.507 35.0801C220.108 35.7546 220.564 36.5521 220.874 37.4727C221.184 38.3841 221.339 39.3822 221.339 40.4668V40.7539C221.339 41.8294 221.184 42.8275 220.874 43.748C220.564 44.6595 220.108 45.457 219.507 46.1406C218.905 46.8151 218.162 47.3392 217.278 47.7129C216.394 48.0866 215.373 48.2734 214.216 48.2734C213.058 48.2734 212.033 48.0866 211.139 47.7129C210.246 47.3392 209.499 46.8151 208.897 46.1406C208.296 45.457 207.84 44.6595 207.53 43.748C207.22 42.8275 207.065 41.8294 207.065 40.7539ZM211.673 40.4668V40.7539C211.673 41.3099 211.714 41.8294 211.796 42.3125C211.878 42.7956 212.014 43.2194 212.206 43.584C212.397 43.9395 212.657 44.2174 212.985 44.418C213.313 44.6185 213.723 44.7188 214.216 44.7188C214.699 44.7188 215.1 44.6185 215.419 44.418C215.747 44.2174 216.007 43.9395 216.198 43.584C216.389 43.2194 216.526 42.7956 216.608 42.3125C216.69 41.8294 216.731 41.3099 216.731 40.7539V40.4668C216.731 39.929 216.69 39.4232 216.608 38.9492C216.526 38.4661 216.389 38.0423 216.198 37.6777C216.007 37.304 215.747 37.0124 215.419 36.8027C215.091 36.5931 214.68 36.4883 214.188 36.4883C213.705 36.4883 213.3 36.5931 212.971 36.8027C212.652 37.0124 212.397 37.304 212.206 37.6777C212.014 38.0423 211.878 38.4661 211.796 38.9492C211.714 39.4232 211.673 39.929 211.673 40.4668ZM228.218 36.8711V48H223.61V33.207H227.917L228.218 36.8711ZM232.593 33.0977L232.511 37.377C232.329 37.3587 232.082 37.3359 231.773 37.3086C231.463 37.2812 231.203 37.2676 230.993 37.2676C230.456 37.2676 229.991 37.3314 229.599 37.459C229.216 37.5775 228.897 37.7598 228.642 38.0059C228.396 38.2428 228.213 38.5436 228.095 38.9082C227.985 39.2728 227.935 39.6966 227.944 40.1797L227.11 39.6328C227.11 38.6393 227.206 37.737 227.398 36.9258C227.598 36.1055 227.881 35.3991 228.245 34.8066C228.61 34.2051 229.052 33.7448 229.571 33.4258C230.091 33.0977 230.674 32.9336 231.321 32.9336C231.549 32.9336 231.773 32.9473 231.991 32.9746C232.219 33.002 232.42 33.043 232.593 33.0977ZM31.4297 64.0938V84H26.8223V69.2891L22.2832 70.6152V67.1152L31.0059 64.0938H31.4297ZM47.4713 64.0938H51.3815L55.8248 77.9434L60.2682 64.0938H64.1784L57.4108 84H54.2389L47.4713 64.0938ZM45.0924 64.0938H49.1393L49.8913 79.3516V84H45.0924V64.0938ZM62.5104 64.0938H66.5709V84H61.7584V79.3516L62.5104 64.0938ZM69.0341 76.7539V76.4668C69.0341 75.3822 69.1891 74.3841 69.499 73.4727C69.8089 72.5521 70.2646 71.7546 70.8662 71.0801C71.4677 70.4056 72.2106 69.8815 73.0947 69.5078C73.9788 69.125 74.9996 68.9336 76.1572 68.9336C77.3239 68.9336 78.3492 69.125 79.2334 69.5078C80.1266 69.8815 80.874 70.4056 81.4755 71.0801C82.0771 71.7546 82.5328 72.5521 82.8427 73.4727C83.1526 74.3841 83.3076 75.3822 83.3076 76.4668V76.7539C83.3076 77.8294 83.1526 78.8275 82.8427 79.748C82.5328 80.6595 82.0771 81.457 81.4755 82.1406C80.874 82.8151 80.1311 83.3392 79.247 83.7129C78.3629 84.0866 77.3421 84.2734 76.1845 84.2734C75.027 84.2734 74.0016 84.0866 73.1084 83.7129C72.2151 83.3392 71.4677 82.8151 70.8662 82.1406C70.2646 81.457 69.8089 80.6595 69.499 79.748C69.1891 78.8275 69.0341 77.8294 69.0341 76.7539ZM73.6416 76.4668V76.7539C73.6416 77.3099 73.6826 77.8294 73.7646 78.3125C73.8466 78.7956 73.9834 79.2194 74.1748 79.584C74.3662 79.9395 74.6259 80.2174 74.9541 80.418C75.2822 80.6185 75.6923 80.7188 76.1845 80.7188C76.6676 80.7188 77.0686 80.6185 77.3877 80.418C77.7158 80.2174 77.9755 79.9395 78.167 79.584C78.3584 79.2194 78.4951 78.7956 78.5771 78.3125C78.6591 77.8294 78.7002 77.3099 78.7002 76.7539V76.4668C78.7002 75.929 78.6591 75.4232 78.5771 74.9492C78.4951 74.4661 78.3584 74.0423 78.167 73.6777C77.9755 73.304 77.7158 73.0124 77.3877 72.8027C77.0595 72.5931 76.6494 72.4883 76.1572 72.4883C75.6741 72.4883 75.2685 72.5931 74.9404 72.8027C74.6214 73.0124 74.3662 73.304 74.1748 73.6777C73.9834 74.0423 73.8466 74.4661 73.7646 74.9492C73.6826 75.4232 73.6416 75.929 73.6416 76.4668ZM90.0638 72.3652V84H85.4563V69.207H89.7766L90.0638 72.3652ZM89.5169 76.0977L88.4368 76.125C88.4368 74.9948 88.5735 73.9876 88.847 73.1035C89.1204 72.2103 89.5078 71.4538 90.0091 70.834C90.5104 70.2142 91.1074 69.7448 91.8001 69.4258C92.5019 69.0977 93.2812 68.9336 94.138 68.9336C94.8216 68.9336 95.4459 69.0339 96.011 69.2344C96.5852 69.4349 97.0774 69.7585 97.4876 70.2051C97.9069 70.6517 98.2259 71.2441 98.4446 71.9824C98.6725 72.7116 98.7864 73.6139 98.7864 74.6895V84H94.1516V74.6758C94.1516 74.0833 94.0696 73.6322 93.9055 73.3223C93.7415 73.0033 93.5045 72.7845 93.1946 72.666C92.8847 72.5475 92.5065 72.4883 92.0598 72.4883C91.5859 72.4883 91.1848 72.5794 90.8567 72.7617C90.5286 72.944 90.2643 73.1992 90.0638 73.5273C89.8723 73.8464 89.7311 74.2246 89.6399 74.6621C89.5579 75.0996 89.5169 75.5781 89.5169 76.0977ZM109.316 69.207V72.4062H100.402V69.207H109.316ZM102.275 65.5293H106.882V79.1738C106.882 79.5658 106.928 79.8711 107.019 80.0898C107.11 80.2995 107.265 80.4499 107.484 80.541C107.712 80.623 108.013 80.6641 108.386 80.6641C108.651 80.6641 108.869 80.6595 109.043 80.6504C109.216 80.6322 109.38 80.6094 109.535 80.582V83.877C109.143 84.0046 108.733 84.1003 108.304 84.1641C107.876 84.237 107.42 84.2734 106.937 84.2734C105.953 84.2734 105.11 84.1185 104.408 83.8086C103.715 83.4987 103.186 83.0111 102.822 82.3457C102.457 81.6803 102.275 80.8145 102.275 79.748V65.5293ZM115.84 63V84H111.232V63H115.84ZM115.293 76.0977L114.213 76.125C114.213 75.0859 114.34 74.1289 114.596 73.2539C114.851 72.3789 115.215 71.6178 115.689 70.9707C116.163 70.3236 116.733 69.8223 117.398 69.4668C118.064 69.1113 118.802 68.9336 119.613 68.9336C120.342 68.9336 121.008 69.0384 121.609 69.248C122.22 69.4577 122.744 69.7949 123.182 70.2598C123.628 70.7246 123.97 71.3307 124.207 72.0781C124.453 72.8255 124.576 73.737 124.576 74.8125V84H119.941V74.7852C119.941 74.1836 119.855 73.7188 119.682 73.3906C119.518 73.0534 119.281 72.821 118.971 72.6934C118.661 72.5566 118.282 72.4883 117.836 72.4883C117.298 72.4883 116.861 72.5794 116.523 72.7617C116.186 72.944 115.926 73.1992 115.744 73.5273C115.571 73.8464 115.452 74.2246 115.389 74.6621C115.325 75.0996 115.293 75.5781 115.293 76.0977ZM132.481 64.0938L131.893 77.6973H128.147L127.559 64.0938H132.481ZM127.436 81.9355C127.436 81.2793 127.673 80.7324 128.147 80.2949C128.621 79.8483 129.236 79.625 129.992 79.625C130.749 79.625 131.36 79.8483 131.824 80.2949C132.298 80.7324 132.535 81.2793 132.535 81.9355C132.535 82.5918 132.298 83.1432 131.824 83.5898C131.36 84.0273 130.749 84.2461 129.992 84.2461C129.236 84.2461 128.621 84.0273 128.147 83.5898C127.673 83.1432 127.436 82.5918 127.436 81.9355Z" fill="#010F07"/>
<path d="M335.057 57.8493C346.479 62.6798 352.023 75.9206 347.34 87.5104C342.583 99.2856 329.212 104.884 317.529 100.164C305.94 95.4818 300.228 82.389 304.726 70.7243L326.329 79.4526L335.057 57.8493Z" fill="#FF7058"/>
<path d="M326.329 79.4526L333.484 61.7434C342.773 65.7124 347.174 76.4423 343.391 85.8068C339.532 95.3568 328.597 99.9985 319.047 96.14C309.683 92.3565 305.114 81.7746 308.62 72.2976L326.329 79.4526Z" fill="#FFD15C"/>
<path d="M318.034 88.5045C318.344 87.7364 317.973 86.8622 317.205 86.5518C316.437 86.2415 315.563 86.6126 315.253 87.3807C314.942 88.1488 315.313 89.0231 316.081 89.3334C316.85 89.6437 317.724 89.2726 318.034 88.5045Z" fill="#F8B64C"/>
<path d="M311.59 78.0274C310.662 77.6528 309.714 78.1323 309.377 78.9668C309.002 79.8939 309.481 80.8427 310.316 81.1798C310.594 81.2922 310.929 80.9962 311.247 80.4774L312.823 81.1142L313.385 79.7234L311.809 79.0866C311.996 78.623 311.96 78.1772 311.59 78.0274Z" fill="#F2F2F2"/>
<path d="M335.738 91.6668C335.407 90.8857 334.48 90.5111 333.699 90.8426C332.918 91.1742 332.543 92.1014 332.874 92.8824C332.985 93.1428 333.393 93.1999 333.969 93.1091L334.577 94.541L335.786 93.951L335.178 92.519C335.606 92.2605 335.849 91.9271 335.738 91.6668Z" fill="#F2F2F2"/>
<path fill-rule="evenodd" clip-rule="evenodd" d="M333.217 79.7551C332.383 79.418 331.996 78.5067 332.333 77.6723C332.67 76.8378 333.581 76.451 334.416 76.7881C335.25 77.1253 335.637 78.0365 335.3 78.871C334.963 79.7055 334.052 80.0923 333.217 79.7551ZM333.442 79.1988C333.998 79.4236 334.519 79.2026 334.744 78.6462C334.931 78.1827 334.747 77.5692 334.191 77.3445C333.635 77.1197 333.114 77.3407 332.889 77.897C332.665 78.4533 332.886 78.9741 333.442 79.1988Z" fill="#FF7058"/>
<path fill-rule="evenodd" clip-rule="evenodd" d="M327.762 94.5917C327.02 94.292 326.634 93.3808 326.933 92.639C327.233 91.8973 328.107 91.6032 328.886 91.8101C329.628 92.1098 330.014 93.0211 329.715 93.7628C329.415 94.5046 328.504 94.8914 327.762 94.5917ZM327.987 94.0354C328.45 94.2227 328.971 94.0017 329.158 93.5381C329.346 93.0745 329.125 92.5538 328.661 92.3665C328.198 92.1792 327.677 92.4002 327.49 92.8638C327.302 93.3274 327.523 93.8481 327.987 94.0354Z" fill="#FF7058"/>
<path d="M319.009 59.1306L317.351 55.2253C322.521 53.1077 328.427 52.9053 334.027 55.0602L325.861 75.2728L319.009 59.1306Z" fill="#FF7058"/>
<path d="M325.861 75.2731L319.009 59.1309C323.137 57.4553 327.928 57.3419 332.416 59.0473L325.861 75.2731Z" fill="#FFD15C"/>
<path d="M330.464 59.8759C330.17 59.0021 329.187 58.4973 328.313 58.7914C327.44 59.0855 326.935 60.0679 327.229 60.9417C327.302 61.2948 327.803 61.3894 328.379 61.2985L328.912 62.9159L330.269 62.4935L329.736 60.8761C330.201 60.5249 330.574 60.1362 330.464 59.8759Z" fill="#F2F2F2"/>
<path fill-rule="evenodd" clip-rule="evenodd" d="M325.508 69.738C324.674 69.4009 324.287 68.4896 324.624 67.6552C324.961 66.8207 325.873 66.4339 326.707 66.7711C327.542 67.1082 327.928 68.0195 327.591 68.8539C327.254 69.6884 326.343 70.0752 325.508 69.738ZM325.826 69.2192C326.382 69.444 326.903 69.2229 327.128 68.6666C327.315 68.203 327.039 67.5521 326.575 67.3648C326.112 67.1775 325.498 67.3611 325.273 67.9174C325.086 68.381 325.27 68.9944 325.826 69.2192Z" fill="#FF7058"/>
<path fill-rule="evenodd" clip-rule="evenodd" d="M323.302 63.4539C322.467 63.1167 322.081 62.2055 322.418 61.371C322.755 60.5365 323.666 60.1497 324.501 60.4869C325.335 60.824 325.722 61.7353 325.385 62.5697C325.048 63.4042 324.136 63.791 323.302 63.4539ZM323.619 62.935C324.083 63.1223 324.696 62.9387 324.921 62.3824C325.146 61.8261 324.832 61.2679 324.369 61.0806C323.812 60.8559 323.292 61.0769 323.067 61.6332C322.842 62.1895 323.063 62.7102 323.619 62.935Z" fill="#FF7058"/>
<path d="M334.81 86.2229C335.203 85.25 334.733 84.1426 333.76 83.7495C332.787 83.3564 331.68 83.8265 331.287 84.7994C330.894 85.7723 331.364 86.8797 332.337 87.2728C333.31 87.6659 334.417 87.1958 334.81 86.2229Z" fill="#F8B64C"/>
<path d="M339.175 70.0823C339.568 69.1093 339.098 68.002 338.125 67.6089C337.152 67.2158 336.044 67.6858 335.651 68.6588C335.258 69.6317 335.728 70.7391 336.701 71.1322C337.674 71.5253 338.781 71.0552 339.175 70.0823Z" fill="#F8B64C"/>
<path d="M316.796 60.0701L323.648 76.2123L303.435 68.0459C305.775 62.5203 310.024 58.4125 315.138 56.1647L316.796 60.0701Z" fill="#FF7058"/>
<path d="M316.796 60.0702L323.648 76.2124L307.422 69.6567C309.313 65.2437 312.685 61.9686 316.796 60.0702Z" fill="#FFD15C"/>
<path fill-rule="evenodd" clip-rule="evenodd" d="M314.716 65.4851C313.881 65.148 313.494 64.2367 313.832 63.4022C314.169 62.5678 315.08 62.181 315.914 62.5181C316.749 62.8553 317.136 63.7665 316.799 64.601C316.461 65.4355 315.55 65.8223 314.716 65.4851ZM314.94 64.9288C315.497 65.1536 316.017 64.9325 316.242 64.3762C316.467 63.8199 316.246 63.2992 315.69 63.0744C315.226 62.8871 314.613 63.0707 314.388 63.627C314.163 64.1833 314.384 64.704 314.94 64.9288Z" fill="#FF7058"/>
<path d="M319.431 71.1653C319.824 70.1923 319.354 69.085 318.381 68.6919C317.409 68.2988 316.301 68.7688 315.908 69.7418C315.515 70.7147 315.985 71.8221 316.958 72.2152C317.931 72.6083 319.038 72.1382 319.431 71.1653Z" fill="#F8B64C"/>
<path d="M311.426 66.4208C311.666 66.6259 311.739 66.979 311.534 67.2197C310.882 68.0345 311.026 69.2792 311.878 69.8392C312.119 70.0443 312.192 70.3974 311.987 70.6381C311.782 70.8788 311.429 70.9518 311.188 70.7467C309.892 69.6838 309.657 67.8631 310.627 66.5295C310.832 66.2888 311.185 66.2157 311.426 66.4208Z" fill="#F8B64C"/>
<path d="M335.082 72.2036C334.969 72.4818 334.616 72.5548 334.338 72.4424C333.486 71.8824 332.296 72.1568 331.699 73.1018C331.587 73.38 331.233 73.453 330.955 73.3406C330.677 73.2282 330.604 72.8752 330.716 72.597C331.594 71.2259 333.397 70.7679 334.805 71.5527C335.214 71.6098 335.287 71.9629 335.082 72.2036Z" fill="#F8B64C"/>
<path d="M330.061 79.5585C330.351 78.8416 330.004 78.0256 329.287 77.736C328.57 77.4463 327.755 77.7927 327.465 78.5096C327.175 79.2265 327.522 80.0424 328.238 80.3321C328.955 80.6217 329.771 80.2754 330.061 79.5585Z" fill="#F8B64C"/>
<path d="M324.233 94.7838C323.803 95.5808 322.837 95.8374 322.077 95.3148C321.28 94.8849 321.024 93.9184 321.546 93.1589C321.659 92.8807 322.16 92.9753 322.661 93.0699L323.408 91.7541L324.538 92.4265L323.754 93.8351C324.18 94.1151 324.438 94.5431 324.233 94.7838Z" fill="#F2F2F2"/>
<path d="M321.677 87.4954C321.565 87.7736 321.768 88.0714 322.084 88.0911C322.993 88.2428 323.565 89.2289 323.413 90.1383C323.301 90.4165 323.504 90.7143 323.82 90.734C324.098 90.8464 324.396 90.6431 324.416 90.3275C324.792 88.8618 323.869 87.4102 322.403 87.0337C321.995 86.9766 321.697 87.1798 321.677 87.4954Z" fill="#F8B64C"/>
<path d="M318.908 77.5328C319.018 77.7932 318.868 78.164 318.515 78.2371C317.511 78.5864 316.969 79.6616 317.319 80.6656C317.429 80.9259 317.279 81.2968 316.926 81.3699C316.666 81.4804 316.295 81.3305 316.222 80.9775C315.689 79.3601 316.549 77.766 318.073 77.1957C318.519 77.1601 318.797 77.2725 318.908 77.5328Z" fill="#F8B64C"/>
<path d="M325.913 81.5494C326.024 81.8098 325.874 82.1807 325.521 82.2537C324.517 82.603 323.975 83.6782 324.324 84.6822C324.434 84.9425 324.285 85.3134 323.932 85.3865C323.671 85.497 323.3 85.3471 323.227 84.9941C322.694 83.3767 323.554 81.7826 325.079 81.2123C325.562 81.084 325.803 81.2891 325.913 81.5494Z" fill="#F8B64C"/>
<path d="M270.8 107.98H266.8C266.4 107.98 266 107.58 266 107.18C266 106.78 266.3 106.38 266.8 106.38H270.8C271.2 106.38 271.6 106.78 271.6 107.18C271.5 107.68 271.2 107.98 270.8 107.98Z" fill="#CD807D"/>
<path d="M278.5 96.0805C278.2 96.0805 278 95.8805 277.8 95.6805L276 92.0805C275.8 91.6805 276 91.2805 276.3 91.0805C276.7 90.8805 277.1 91.0805 277.3 91.3805L279.1 94.9805C279.4 95.2805 279.3 96.0805 278.5 96.0805Z" fill="#CD807D"/>
<path d="M272.8 122.08L270.8 118.58C270.6 118.18 270.7 117.78 271.1 117.58C271.5 117.38 271.9 117.48 272.1 117.88L274.1 121.38C274.3 121.78 274.2 122.18 273.8 122.38C273.5 122.58 273 122.28 272.8 122.08Z" fill="#84DBFF"/>
<path d="M267.4 118.181C268.118 118.181 268.7 117.599 268.7 116.881C268.7 116.163 268.118 115.581 267.4 115.581C266.682 115.581 266.1 116.163 266.1 116.881C266.1 117.599 266.682 118.181 267.4 118.181Z" fill="#FFD15C"/>
<path d="M269.4 99.2807C270.118 99.2807 270.7 98.6986 270.7 97.9807C270.7 97.2627 270.118 96.6807 269.4 96.6807C268.682 96.6807 268.1 97.2627 268.1 97.9807C268.1 98.6986 268.682 99.2807 269.4 99.2807Z" fill="#84DBFF"/>
<path fill-rule="evenodd" clip-rule="evenodd" d="M282.154 154.703C281.185 154.307 280.216 153.911 279.261 153.337L278.92 153.132C269.914 147.721 266.973 135.925 272.384 126.92C277.836 117.846 289.523 114.932 298.596 120.384L298.937 120.589C299.893 121.163 300.738 121.764 301.502 122.502C308.214 128.485 309.928 138.614 305.132 146.596C300.336 154.578 290.587 157.821 282.154 154.703ZM280.646 143.305C281.328 144.179 282.16 144.957 283.115 145.531L283.388 145.695C288.3 148.647 294.744 147.04 297.695 142.128C300.647 137.216 299.108 130.813 294.128 127.821L293.855 127.657C292.832 127.042 291.822 126.714 290.73 126.522C286.581 125.7 282.157 127.499 279.821 131.388C277.484 135.277 277.973 140.027 280.646 143.305Z" fill="#F1543F"/>
<path d="M290.73 126.522C291.905 124.721 293.653 123.357 295.838 122.812C297.148 122.485 298.282 121.681 298.938 120.589C299.893 121.163 300.698 121.833 301.503 122.502C300.341 124.126 298.675 125.353 296.6 125.87C295.508 126.143 294.497 126.743 293.828 127.548C292.832 127.042 291.822 126.714 290.73 126.522Z" fill="white"/>
<path d="M279.261 153.337C279.849 152.204 280.095 150.866 279.768 149.556C279.183 147.44 279.566 145.256 280.646 143.305C281.328 144.179 282.092 144.916 283.115 145.531C282.678 146.568 282.595 147.633 282.936 148.766C283.453 150.841 283.151 152.889 282.263 154.676C281.185 154.307 280.216 153.911 279.261 153.337Z" fill="white"/>
<path d="M279.768 149.556C279.251 147.481 279.566 145.256 280.646 143.305C277.973 140.027 277.525 135.208 279.821 131.388C282.157 127.499 286.581 125.7 290.73 126.522C291.905 124.721 293.653 123.357 295.838 122.812C297.148 122.486 298.213 121.64 298.938 120.589C298.801 120.507 298.733 120.466 298.596 120.384C289.523 114.932 277.837 117.846 272.384 126.92C266.932 135.993 269.846 147.68 278.92 153.132C279.056 153.214 279.124 153.255 279.261 153.337C279.849 152.204 280.095 150.867 279.768 149.556Z" fill="#FFD15C"/>
<path d="M284.368 149.627C284.409 149.559 284.45 149.49 284.559 149.463C284.778 149.409 284.914 149.491 284.901 149.668L285.336 151.416C285.391 151.634 285.309 151.771 285.131 151.757C284.913 151.811 284.776 151.729 284.79 151.552L284.355 149.804C284.355 149.804 284.327 149.695 284.368 149.627Z" fill="#84DBFF"/>
<path d="M296.502 150.604C296.612 150.577 296.68 150.618 296.748 150.659C296.884 150.741 296.939 150.959 296.789 151.055L295.75 152.474C295.668 152.61 295.45 152.664 295.355 152.514C295.218 152.432 295.164 152.214 295.314 152.118L296.352 150.699C296.284 150.658 296.393 150.631 296.502 150.604Z" fill="white"/>
<path d="M291.396 153.385C291.423 153.495 291.382 153.563 291.341 153.631C291.259 153.767 291.041 153.822 290.945 153.672L289.526 152.633C289.39 152.551 289.335 152.333 289.485 152.237C289.567 152.101 289.786 152.047 289.881 152.197L291.3 153.235C291.341 153.167 291.368 153.276 291.396 153.385Z" fill="#FFD15C"/>
<path d="M300.303 141.652C300.262 141.72 300.221 141.789 300.248 141.898C300.302 142.116 300.439 142.198 300.589 142.103L302.337 141.667C302.555 141.613 302.637 141.476 302.541 141.326C302.446 141.176 302.351 141.025 302.2 141.121L300.494 141.488C300.385 141.516 300.344 141.584 300.303 141.652Z" fill="#84DBFF"/>
<path d="M299.617 146.811C299.658 146.743 299.699 146.675 299.808 146.648C300.027 146.593 300.163 146.675 300.149 146.853L300.585 148.6C300.64 148.819 300.558 148.955 300.38 148.941C300.162 148.996 300.025 148.914 300.039 148.736L299.603 146.989C299.603 146.989 299.576 146.88 299.617 146.811Z" fill="#FFD15C"/>
<path d="M305.833 138.011C305.942 137.984 306.011 138.025 306.079 138.066C306.215 138.147 306.27 138.366 306.12 138.461L305.081 139.88C304.999 140.017 304.781 140.071 304.685 139.921C304.549 139.839 304.494 139.621 304.645 139.525L305.683 138.106C305.724 138.038 305.833 138.011 305.833 138.011Z" fill="#FFD15C"/>
<path d="M304.853 133.151C304.881 133.26 304.84 133.328 304.799 133.397C304.717 133.533 304.498 133.588 304.403 133.437L302.943 132.467C302.806 132.385 302.752 132.167 302.902 132.071C302.984 131.935 303.203 131.88 303.298 132.031L304.717 133.069C304.826 133.042 304.853 133.151 304.853 133.151Z" fill="white"/>
<path d="M300.707 128.153C300.666 128.221 300.625 128.289 300.652 128.398C300.707 128.617 300.843 128.699 300.994 128.603L302.741 128.168C302.96 128.113 303.041 127.977 302.946 127.826C302.892 127.608 302.755 127.526 302.605 127.622L300.857 128.057C300.857 128.057 300.748 128.084 300.707 128.153Z" fill="#84DBFF"/>
<path d="M299.112 125.244L299.794 125.654L301.147 123.402L300.465 122.992C299.373 122.337 298.514 121.449 297.695 120.493C297.464 120.261 297.232 120.028 296.85 119.892C295.949 119.536 294.966 119.781 294.338 120.518C293.545 121.528 293.858 123.016 294.95 123.671C295.223 123.835 295.537 123.931 295.782 123.986C296.915 124.11 298.089 124.629 299.112 125.244Z" fill="#F1543F"/>
<path d="M297.076 128.478L297.827 128.929L298.81 127.291L298.06 126.841C297.378 126.431 296.818 125.816 296.259 125.201C296.095 125.01 295.864 124.778 295.618 124.723C295.031 124.464 294.267 124.654 293.829 125.227C293.269 126.005 293.473 127.056 294.224 127.507C294.428 127.63 294.606 127.644 294.852 127.698C295.63 127.795 296.394 128.068 297.076 128.478Z" fill="#F1543F"/>
<path d="M282.455 154.049L282.932 154.336L283.588 153.244L283.11 152.957C282.633 152.67 282.237 152.247 281.842 151.823C281.746 151.673 281.542 151.55 281.405 151.468C280.955 151.29 280.477 151.467 280.163 151.836C279.767 152.341 279.889 153.064 280.435 153.392C280.571 153.474 280.708 153.556 280.817 153.529C281.417 153.611 281.977 153.762 282.455 154.049Z" fill="#F1543F"/>
<path d="M282.688 151.496L283.37 151.906L284.313 150.337L283.631 149.927C282.949 149.517 282.39 148.902 281.898 148.329C281.735 148.138 281.503 147.905 281.257 147.851C280.67 147.591 279.906 147.782 279.51 148.286C278.95 149.064 279.195 150.047 279.945 150.498C280.15 150.621 280.327 150.635 280.505 150.648C281.242 150.813 282.006 151.086 282.688 151.496Z" fill="#F1543F"/>
</g>
</svg>
