<svg width="375" height="235" viewBox="0 0 375 235" fill="none" xmlns="http://www.w3.org/2000/svg">
<rect width="375" height="235" rx="12" transform="matrix(-1 0 0 1 375 0)" fill="#E6F9F2"/>
<mask id="mask0_1_1694" style="mask-type:alpha" maskUnits="userSpaceOnUse" x="0" y="0" width="375" height="235">
<rect width="375" height="235" rx="12" transform="matrix(-1 0 0 1 375 0)" fill="white"/>
</mask>
<g mask="url(#mask0_1_1694)">
<path d="M15.8954 10.2293C15.8954 8.43221 17.1268 6.91162 18.582 6.91162C20.0372 6.91162 21.2686 8.43221 21.2686 10.2293C21.2686 10.9204 20.5969 11.3352 19.8133 11.4734V14.6528H17.5745V11.4734C16.5671 11.1969 15.8954 10.7822 15.8954 10.2293Z" fill="#FFD15C"/>
<path d="M69.8507 37.5649C68.7313 36.459 68.5075 34.3855 69.5149 33.0032C70.4105 31.6208 72.0896 31.3443 73.209 32.5885C73.6567 33.0032 73.4328 33.8326 72.9851 34.8002L75 36.7355L73.5448 38.9473L71.5299 36.8737C70.9702 37.5649 70.2985 37.9796 69.8507 37.5649Z" fill="#FFD15C"/>
<path fill-rule="evenodd" clip-rule="evenodd" d="M22.1704 33.4528C22.1704 31.794 21.051 30.4116 19.7077 30.4116C18.2525 30.4116 17.1331 31.794 17.2451 33.4528C17.2451 35.1116 18.3645 36.494 19.7077 36.494C21.051 36.494 22.1704 35.1116 22.1704 33.4528ZM21.2749 33.4528C21.2749 34.5587 20.6033 35.3881 19.7077 35.3881C18.8122 35.3881 18.1406 34.5587 18.1406 33.4528C18.1406 32.3469 18.8122 31.5175 19.7077 31.5175C20.6033 31.5175 21.2749 32.3469 21.2749 33.4528Z" fill="#FF7058"/>
<path fill-rule="evenodd" clip-rule="evenodd" d="M66.0447 7.18815C66.0447 5.52933 64.9253 4.14697 63.582 4.14697C62.1268 4.14697 61.0073 5.52933 61.1193 7.18815C61.1193 8.84697 62.2387 10.2293 63.582 10.2293C64.9253 10.2293 66.0447 8.84697 66.0447 7.18815ZM65.1492 7.18815C65.1492 8.29403 64.4776 9.12344 63.582 9.12344C62.6865 9.12344 62.0148 8.29403 62.0148 7.18815C62.0148 6.08227 62.6865 5.25286 63.582 5.25286C64.4776 5.25286 65.1492 6.08227 65.1492 7.18815Z" fill="#FF7058"/>
<path fill-rule="evenodd" clip-rule="evenodd" d="M30.2239 49.3688C30.2239 47.71 29.1045 46.3276 27.7612 46.3276C26.4179 46.3276 25.2985 47.71 25.2985 49.3688C25.2985 51.0276 26.4179 52.41 27.7612 52.41C29.1045 52.41 30.2239 51.0276 30.2239 49.3688ZM29.3284 49.2306C29.3284 50.3365 28.6567 51.1659 27.7612 51.1659C26.8657 51.1659 26.194 50.3365 26.194 49.2306C26.194 48.1247 26.8657 47.2953 27.7612 47.2953C28.6567 47.2953 29.3284 48.1247 29.3284 49.2306Z" fill="#FF7058"/>
<path d="M254.664 282C254.664 282 444.963 244.676 187.5 223.941C-69.9628 203.206 10.0746 307.573 38.6193 152.059C67.1641 -3.45603 -24.0672 246.75 5.59694 131.323C35.2611 15.8969 -174.627 98.1469 -27.4254 11.0587C119.776 -76.0296 8.39545 154.823 159.515 85.0146C310.634 15.2057 289.925 -110.588 289.925 -110.588" stroke="#868686" stroke-linecap="round" stroke-dasharray="5"/>
<path d="M0.915458 81.3031C-12.419 88.6798 -19.5082 106.978 -14.8107 122.282C-10.038 137.832 4.93388 144.397 18.5598 137.15C32.0776 129.961 39.3501 111.851 34.8689 96.4307L9.67168 109.831L0.915458 81.3031Z" fill="#FF7058"/>
<path d="M9.66729 109.832L2.48944 86.4457C-8.35778 92.4996 -13.9981 107.321 -10.2025 119.687C-6.33175 132.298 5.90895 137.752 17.0476 131.828C27.97 126.019 33.7937 111.385 30.3225 98.8464L9.66729 109.832Z" fill="#FFD15C"/>
<path d="M18.9264 122.43C18.6151 121.416 19.089 120.208 19.9849 119.731C20.8807 119.255 21.8594 119.691 22.1707 120.705C22.482 121.719 22.0081 122.928 21.1123 123.404C20.2164 123.881 19.2378 123.445 18.9264 122.43Z" fill="#F8B64C"/>
<path d="M26.2944 107.953C27.3708 107.381 28.4235 107.955 28.7601 109.051C29.1342 110.269 28.5349 111.579 27.5661 112.094C27.2432 112.266 26.8783 111.893 26.5463 111.219L24.7164 112.192L24.1553 110.365L25.9852 109.393C25.7982 108.784 25.8638 108.182 26.2944 107.953Z" fill="#F2F2F2"/>
<path d="M-0.807155 126.842C-0.38378 125.762 0.69765 125.187 1.57199 125.576C2.44633 125.966 2.82214 127.19 2.39876 128.27C2.25764 128.63 1.78749 128.738 1.13403 128.658L0.357843 130.637L-0.99125 129.931L-0.215063 127.951C-0.689814 127.634 -0.948279 127.202 -0.807155 126.842Z" fill="#F2F2F2"/>
<path fill-rule="evenodd" clip-rule="evenodd" d="M1.90586 110.129C2.89049 109.595 3.4021 108.336 3.07523 107.25C2.74837 106.164 1.72831 105.735 0.743673 106.269C-0.240964 106.803 -0.752566 108.062 -0.425702 109.148C-0.0988381 110.234 0.921219 110.663 1.90586 110.129ZM1.68795 109.405C1.03152 109.761 0.448629 109.516 0.230719 108.792C0.049127 108.189 0.305153 107.349 0.961581 106.993C1.61801 106.637 2.2009 106.882 2.41881 107.606C2.63672 108.33 2.34438 109.049 1.68795 109.405Z" fill="#FF7058"/>
<path fill-rule="evenodd" clip-rule="evenodd" d="M8.01813 130.646C8.89336 130.172 9.40497 128.912 9.11442 127.947C8.82387 126.982 7.84014 126.673 6.92858 127.027C6.05335 127.502 5.54175 128.761 5.83229 129.726C6.12284 130.691 7.1429 131.121 8.01813 130.646ZM7.80022 129.922C7.2532 130.219 6.67031 129.974 6.48872 129.37C6.30712 128.767 6.59947 128.047 7.14649 127.751C7.69352 127.454 8.27641 127.7 8.458 128.303C8.63959 128.906 8.34725 129.626 7.80022 129.922Z" fill="#FF7058"/>
<path d="M18.3145 81.4366L20.5377 75.9648C14.6614 73.5992 7.78433 73.9094 1.0893 77.393L9.12505 104.054L18.3145 81.4366Z" fill="#FF7058"/>
<path d="M9.34222 104.053L18.5304 81.439C13.8373 79.5712 8.25504 79.8919 2.89236 82.654L9.34222 104.053Z" fill="#FFD15C"/>
<path d="M5.09188 82.955C5.49466 81.7521 6.66391 80.9775 7.6496 81.2871C8.63529 81.5966 9.14539 82.8673 8.74261 84.0702C8.63263 84.5518 8.04819 84.728 7.39094 84.6624L6.65858 86.8879L5.12524 86.4533L5.8576 84.2277C5.34674 83.8014 4.94549 83.3157 5.09188 82.955Z" fill="#F2F2F2"/>
<path fill-rule="evenodd" clip-rule="evenodd" d="M10.5291 96.2729C11.5171 95.7341 12.0339 94.4744 11.7104 93.3936C11.3869 92.3128 10.3668 91.8912 9.37885 92.43C8.39087 92.9688 7.87407 94.2285 8.19758 95.3093C8.5211 96.3901 9.54116 96.8116 10.5291 96.2729ZM10.2097 95.6041C9.55102 95.9633 8.96813 95.7224 8.75245 95.0019C8.57271 94.4014 8.94186 93.5017 9.49074 93.2023C10.0396 92.903 10.7323 93.084 10.948 93.8046C11.1277 94.405 10.8683 95.2449 10.2097 95.6041Z" fill="#FF7058"/>
<path fill-rule="evenodd" clip-rule="evenodd" d="M12.9991 87.5859C13.9871 87.0471 14.5039 85.7874 14.1804 84.7066C13.8569 83.6258 12.8368 83.2042 11.8488 83.743C10.8609 84.2818 10.3441 85.5415 10.6676 86.6223C10.9911 87.7031 12.0111 88.1246 12.9991 87.5859ZM12.6797 86.9171C12.1308 87.2164 11.4381 87.0354 11.2224 86.3149C11.0068 85.5943 11.4119 84.8147 11.9607 84.5153C12.6194 84.1561 13.2023 84.397 13.418 85.1176C13.6337 85.8381 13.3383 86.5579 12.6797 86.9171Z" fill="#FF7058"/>
<path d="M0.129677 119.299C-0.26467 118.014 0.335574 116.484 1.47036 115.88C2.60514 115.277 3.84475 115.829 4.2391 117.114C4.63344 118.398 4.0332 119.929 2.89842 120.533C1.76363 121.136 0.524024 120.584 0.129677 119.299Z" fill="#F8B64C"/>
<path d="M-4.75558 96.9871C-5.14992 95.7023 -4.54968 94.1715 -3.41489 93.568C-2.28011 92.9645 -1.0405 93.5168 -0.646157 94.8016C-0.25181 96.0864 -0.852054 97.6172 -1.98684 98.2207C-3.12162 98.8242 -4.36123 98.2719 -4.75558 96.9871Z" fill="#F8B64C"/>
<path d="M20.7243 83.3767L11.782 105.352L35.334 92.6304C33.0707 85.5569 28.5381 80.5387 22.8878 78.0601L20.7243 83.3767Z" fill="#FF7058"/>
<path d="M20.9061 83.3735L11.9629 105.352L30.8711 95.1382C29.0387 89.4902 25.441 85.4873 20.9061 83.3735Z" fill="#FFD15C"/>
<path fill-rule="evenodd" clip-rule="evenodd" d="M22.6108 90.3946C23.5988 89.8559 24.1155 88.5962 23.7919 87.5153C23.4683 86.4344 22.4482 86.0127 21.4603 86.5514C20.4724 87.0901 19.9557 88.3497 20.2793 89.4306C20.6028 90.5116 21.6229 90.9333 22.6108 90.3946ZM22.3951 89.674C21.7365 90.0331 21.1536 89.7921 20.9379 89.0715C20.7221 88.3509 21.0174 87.6311 21.676 87.272C22.2249 86.9727 22.9175 87.1539 23.1333 87.8745C23.349 88.5951 23.0537 89.3149 22.3951 89.674Z" fill="#FF7058"/>
<path d="M17.3219 98.5176C16.9403 97.2511 17.5613 95.7203 18.7088 95.0985C19.8564 94.4767 21.096 94.9993 21.4776 96.2658C21.8591 97.5324 21.2382 99.0632 20.0906 99.685C18.943 100.307 17.7034 99.7841 17.3219 98.5176Z" fill="#F8B64C"/>
<path d="M26.5405 91.8815C26.2445 92.184 26.1333 92.6712 26.3549 92.9782C27.0567 94.0214 26.7968 95.7276 25.761 96.5729C25.465 96.8755 25.3537 97.3626 25.5754 97.6696C25.797 97.9766 26.2037 98.0411 26.4996 97.7385C28.0905 96.1658 28.4988 93.6677 27.4647 91.9504C27.2431 91.6435 26.8365 91.579 26.5405 91.8815Z" fill="#F8B64C"/>
<path d="M-0.114513 99.9823C-0.00249932 100.347 0.394512 100.419 0.716847 100.247C1.71662 99.4335 3.05244 99.7133 3.67805 100.936C3.79006 101.3 4.18707 101.372 4.50941 101.201C4.83174 101.03 4.93462 100.551 4.8226 100.186C3.90286 98.4135 1.88047 97.933 0.236022 99.0893C-0.231096 99.1961 -0.333972 99.6748 -0.114513 99.9823Z" fill="#F8B64C"/>
<path d="M5.46784 110.058C5.17727 109.111 5.61955 107.983 6.45571 107.539C7.29187 107.094 8.20527 107.501 8.49584 108.447C8.78642 109.394 8.34413 110.522 7.50797 110.967C6.67181 111.412 5.75841 111.005 5.46784 110.058Z" fill="#F8B64C"/>
<path d="M11.9503 131.091C12.3994 132.141 13.4967 132.417 14.4003 131.65C15.3418 131.006 15.6921 129.674 15.1342 128.681C15.0208 128.311 14.439 128.478 13.8571 128.644L13.0723 126.912L11.7335 127.91L12.5561 129.765C12.0498 130.178 11.728 130.779 11.9503 131.091Z" fill="#F2F2F2"/>
<path d="M15.0146 120.903C15.1267 121.268 14.8789 121.683 14.5191 121.732C13.477 122.003 12.7711 123.368 12.8923 124.577C13.0043 124.941 12.7566 125.356 12.3967 125.406C12.0743 125.577 11.7472 125.326 11.7427 124.905C11.3973 122.967 12.5287 120.951 14.2157 120.338C14.683 120.231 15.0101 120.482 15.0146 120.903Z" fill="#F8B64C"/>
<path d="M18.0191 107.307C17.874 107.674 18.0285 108.174 18.4392 108.248C19.5988 108.654 20.1735 110.095 19.7044 111.507C19.5594 111.875 19.7139 112.375 20.1246 112.449C20.4241 112.581 20.8687 112.346 20.9752 111.854C21.6957 109.582 20.7781 107.449 19.0194 106.778C18.4976 106.763 18.1641 106.939 18.0191 107.307Z" fill="#F8B64C"/>
<path d="M10.176 112.858C10.0309 113.226 10.1855 113.726 10.5963 113.8C11.7563 114.205 12.3311 115.647 11.8619 117.059C11.7168 117.427 11.8714 117.927 12.2822 118.001C12.5819 118.134 13.0266 117.899 13.1331 117.406C13.8538 115.134 12.936 113 11.1767 112.329C10.616 112.189 10.3211 112.49 10.176 112.858Z" fill="#F8B64C"/>
<path d="M71.8656 149.267H76.3432C76.791 149.267 77.2388 148.714 77.2388 148.161C77.2388 147.608 76.9029 147.055 76.3432 147.055H71.8656C71.4179 147.055 70.9701 147.608 70.9701 148.161C71.0821 148.852 71.4179 149.267 71.8656 149.267Z" fill="#CD807D"/>
<path d="M63.2462 132.817C63.582 132.817 63.8059 132.541 64.0297 132.264L66.0446 127.288C66.2685 126.735 66.0446 126.182 65.7088 125.905C65.2611 125.629 64.8133 125.905 64.5894 126.32L62.5745 131.296C62.2387 131.711 62.3506 132.817 63.2462 132.817Z" fill="#CD807D"/>
<path d="M69.6268 168.758L71.8656 163.92C72.0895 163.367 71.9775 162.814 71.5298 162.538C71.082 162.261 70.6343 162.399 70.4104 162.952L68.1716 167.791C67.9477 168.344 68.0596 168.896 68.5074 169.173C68.8432 169.449 69.4029 169.035 69.6268 168.758Z" fill="#84DBFF"/>
<path d="M75.6717 163.367C74.868 163.367 74.2165 162.562 74.2165 161.57C74.2165 160.578 74.868 159.773 75.6717 159.773C76.4754 159.773 77.127 160.578 77.127 161.57C77.127 162.562 76.4754 163.367 75.6717 163.367Z" fill="#FFD15C"/>
<path d="M73.433 137.241C72.6293 137.241 71.9777 136.436 71.9777 135.444C71.9777 134.451 72.6293 133.646 73.433 133.646C74.2367 133.646 74.8882 134.451 74.8882 135.444C74.8882 136.436 74.2367 137.241 73.433 137.241Z" fill="#84DBFF"/>
<path fill-rule="evenodd" clip-rule="evenodd" d="M58.2881 213.106C59.4067 212.499 60.5252 211.892 61.6377 211.044L62.0349 210.741C72.5235 202.744 76.4829 186.438 70.8335 174.507C65.1413 162.485 52.0598 159.296 41.4918 167.355L41.0945 167.657C39.9821 168.506 38.9919 169.384 38.0873 170.442C30.1662 179.066 27.6858 193.013 32.6932 203.589C37.7006 214.164 48.5694 217.933 58.2881 213.106ZM60.6032 197.439C59.7842 198.679 58.8002 199.798 57.6878 200.646L57.3699 200.889C51.6489 205.251 44.4357 203.493 41.3542 196.985C38.2728 190.477 40.3563 181.63 46.1568 177.207L46.4746 176.965C47.6665 176.056 48.8279 175.539 50.0748 175.204C54.8181 173.801 59.733 175.959 62.1725 181.111C64.612 186.263 63.8058 192.783 60.6032 197.439Z" fill="#F1543F"/>
<path d="M49.5561 174.551C48.3051 172.145 46.3809 170.375 43.9208 169.759C42.4447 169.39 41.1932 168.352 40.499 166.89C39.3843 167.738 38.4359 168.707 37.4875 169.677C38.7313 171.839 40.5687 173.426 42.9059 174.012C44.136 174.32 45.2573 175.083 45.9805 176.15C47.1387 175.394 48.304 174.881 49.5561 174.551Z" fill="white"/>
<path d="M62.2327 211.808C61.6184 210.286 61.4021 208.462 61.8369 206.64C62.605 203.695 62.2734 200.715 61.1387 198.098C60.3207 199.341 59.4159 200.402 58.2218 201.309C58.6698 202.709 58.7126 204.168 58.2706 205.747C57.5821 208.631 57.827 211.428 58.752 213.832C59.9966 213.259 61.1182 212.655 62.2327 211.808Z" fill="white"/>
<path d="M61.001 206.754C61.6966 203.845 61.442 200.78 60.2956 198.141C63.5281 193.432 64.2764 186.723 61.8227 181.566C59.3251 176.317 54.3266 174.094 49.5166 175.488C48.2531 173.062 46.3096 171.278 43.8247 170.657C42.3338 170.284 41.1502 169.177 40.3687 167.765C40.5295 167.643 40.6099 167.582 40.7708 167.46C51.4674 159.344 64.7615 162.667 70.5891 174.915C76.4168 187.162 72.4996 203.545 61.803 211.661C61.6421 211.783 61.5617 211.844 61.4008 211.966C60.7802 210.431 60.5617 208.592 61.001 206.754Z" fill="#FFD15C"/>
<path d="M56.7311 206.822C56.6879 206.731 56.6448 206.64 56.5225 206.61C56.2778 206.549 56.1195 206.669 56.1266 206.911L55.5499 209.328C55.4779 209.63 55.5641 209.811 55.7656 209.782C56.0102 209.843 56.1686 209.723 56.1615 209.481L56.7382 207.064C56.7382 207.064 56.7742 206.913 56.7311 206.822Z" fill="#84DBFF"/>
<path d="M43.124 208.203C42.9986 208.171 42.9174 208.233 42.8362 208.294C42.6738 208.417 42.5999 208.725 42.7696 208.849L43.9052 210.766C43.9936 210.951 44.2445 211.013 44.3627 210.798C44.5251 210.675 44.599 210.367 44.4293 210.243L43.2937 208.327C43.3749 208.265 43.2495 208.234 43.124 208.203Z" fill="white"/>
<path d="M48.7996 212.069C48.7642 212.216 48.8065 212.304 48.8488 212.393C48.9333 212.57 49.1731 212.629 49.286 212.424L50.9087 210.956C51.0639 210.839 51.1346 210.545 50.9724 210.426C50.8879 210.249 50.6481 210.19 50.5352 210.395L48.9125 211.863C48.8702 211.774 48.8349 211.921 48.7996 212.069Z" fill="#FFD15C"/>
<path d="M38.8529 195.746C38.896 195.837 38.9391 195.928 38.9031 196.079C38.831 196.381 38.6727 196.501 38.5073 196.38L36.5509 195.89C36.3063 195.828 36.2201 195.647 36.3353 195.435C36.4505 195.224 36.5656 195.013 36.731 195.135L38.6443 195.534C38.7666 195.565 38.8097 195.655 38.8529 195.746Z" fill="#84DBFF"/>
<path d="M39.6615 202.93C39.6184 202.839 39.5752 202.748 39.4529 202.717C39.2083 202.656 39.0499 202.776 39.057 203.018L38.4804 205.435C38.4083 205.737 38.4946 205.919 38.6961 205.889C38.9407 205.951 39.099 205.83 39.0919 205.588L39.6686 203.172C39.6686 203.172 39.7046 203.02 39.6615 202.93Z" fill="#FFD15C"/>
<path d="M32.6792 190.795C32.5538 190.764 32.4726 190.825 32.3914 190.887C32.229 191.009 32.1551 191.318 32.3247 191.442L33.4604 193.358C33.5488 193.543 33.7997 193.606 33.9179 193.39C34.0803 193.267 34.1542 192.959 33.9845 192.835L32.8489 190.919C32.8046 190.826 32.6792 190.795 32.6792 190.795Z" fill="#FFD15C"/>
<path d="M33.7367 184.1C33.7013 184.248 33.7436 184.336 33.7859 184.425C33.8705 184.602 34.1102 184.661 34.2231 184.455L35.8881 183.077C36.0433 182.959 36.114 182.665 35.9518 182.547C35.8673 182.37 35.6275 182.31 35.5146 182.516L33.8919 183.983C33.772 183.953 33.7367 184.1 33.7367 184.1Z" fill="white"/>
<path d="M38.4001 177.085C38.4433 177.176 38.4864 177.266 38.4504 177.418C38.3783 177.72 38.2199 177.84 38.0545 177.719L36.0974 177.228C35.8528 177.167 35.7665 176.985 35.8817 176.774C35.9538 176.472 36.1122 176.351 36.2776 176.473L38.2347 176.963C38.2347 176.963 38.357 176.994 38.4001 177.085Z" fill="#84DBFF"/>
<path d="M40.051 173.151L39.2684 173.745L37.8615 170.788L38.644 170.194C39.8961 169.244 40.8994 167.994 41.86 166.656C42.1304 166.328 42.4008 166.001 42.8347 165.794C43.859 165.261 44.947 165.533 45.6152 166.489C46.4538 167.804 46.0334 169.831 44.7813 170.781C44.4683 171.019 44.1126 171.167 43.8352 171.255C42.5621 171.489 41.2248 172.26 40.051 173.151Z" fill="#F1543F"/>
<path d="M42.3713 177.609L41.5103 178.262L40.4868 176.111L41.3479 175.457C42.1306 174.863 42.7854 174 43.4402 173.137C43.6324 172.87 43.9029 172.542 44.1803 172.454C44.8492 172.068 45.6956 172.28 46.1577 173.027C46.7477 174.044 46.4697 175.475 45.6087 176.128C45.3738 176.306 45.1746 176.336 44.8972 176.424C44.0221 176.6 43.1541 177.015 42.3713 177.609Z" fill="#F1543F"/>
<path d="M58.7649 212.958L58.217 213.374L57.5347 211.94L58.0826 211.524C58.6305 211.108 59.0931 210.513 59.5557 209.918C59.6696 209.71 59.9044 209.531 60.061 209.413C60.5732 209.146 61.0995 209.356 61.4336 209.835C61.8531 210.493 61.6819 211.476 61.0558 211.952C60.8992 212.071 60.7427 212.189 60.6218 212.159C59.946 212.306 59.3128 212.542 58.7649 212.958Z" fill="#F1543F"/>
<path d="M58.4776 209.427L57.6952 210.021L56.7147 207.96L57.4972 207.366C58.2796 206.773 58.9342 205.91 59.5105 205.107C59.7026 204.839 59.9729 204.512 60.2503 204.424C60.9189 204.038 61.765 204.25 62.1842 204.907C62.774 205.923 62.4535 207.264 61.5928 207.917C61.3581 208.095 61.1589 208.124 60.9598 208.153C60.1277 208.419 59.2601 208.833 58.4776 209.427Z" fill="#F1543F"/>
</g>
</svg>
