<svg width="206" height="40" viewBox="0 0 206 40" fill="none" xmlns="http://www.w3.org/2000/svg">
<path d="M3.57031 15.9297L3.0957 15.8945C3.04883 15.918 2.9668 16 2.84961 16.1406C2.73242 16.2812 2.55078 16.416 2.30469 16.5449C2.07031 16.6621 1.92969 16.7793 1.88281 16.8965C1.83594 17.0137 1.78906 17.1074 1.74219 17.1777C1.69531 17.2363 1.63672 17.3184 1.56641 17.4238C1.50781 17.5293 1.43164 17.6172 1.33789 17.6875C1.24414 17.7578 1.16797 17.8691 1.10938 18.0215C1.05078 18.1621 0.945312 18.2324 0.792969 18.2324C0.289062 18.2324 0.0371094 17.9102 0.0371094 17.2656C0.0371094 17.0781 0.154297 16.7324 0.388672 16.2285C0.623047 15.7246 0.880859 15.4316 1.16211 15.3496C1.44336 15.2559 1.6543 15.1738 1.79492 15.1035C1.94727 15.0332 2.08203 14.9746 2.19922 14.9277C2.32812 14.8691 2.65625 14.6523 3.18359 14.2773C3.20703 14.2539 3.50586 14.166 4.08008 14.0137L4.73047 13.627C4.82422 13.5098 4.90625 13.4453 4.97656 13.4336C5.04688 13.4219 5.14062 13.3867 5.25781 13.3281L5.55664 13.293C5.68555 13.1406 5.89062 13.0234 6.17188 12.9414L6.66406 12.7305C6.99219 12.543 7.41406 12.373 7.92969 12.2207L8.03516 12.1504C8.05859 12.127 8.09375 12.1035 8.14062 12.0801L8.61523 12.1152C8.75586 12.1152 8.84961 12.0039 8.89648 11.7812C8.94336 11.7578 8.97852 11.7461 9.00195 11.7461L9.44141 11.7812C9.46484 11.7812 9.52344 11.752 9.61719 11.6934C9.71094 11.6348 9.81641 11.5938 9.93359 11.5703C10.0625 11.5469 10.168 11.4824 10.25 11.377C10.332 11.2715 10.4199 11.2188 10.5137 11.2188H10.8125C10.9062 11.2188 11.0176 11.1309 11.1465 10.9551C11.2754 10.7676 11.4512 10.5801 11.6738 10.3926C11.7207 10.416 11.7676 10.4277 11.8145 10.4277C11.8848 10.4277 11.9492 10.3516 12.0078 10.1992C12.0664 10.0352 12.1484 9.90625 12.2539 9.8125C12.3711 9.71875 12.5 9.55469 12.6406 9.32031C12.7812 9.07422 12.9102 8.92188 13.0273 8.86328C13.1562 8.79297 13.2734 8.69922 13.3789 8.58203C13.4961 8.45312 13.6133 8.38281 13.7305 8.37109L13.7656 8.33594V8.10742C13.7656 7.91992 13.9297 7.74414 14.2578 7.58008C14.3047 7.55664 14.3691 7.50977 14.4512 7.43945V7.17578C14.4512 7.15234 14.5098 7.07617 14.627 6.94727C14.7441 6.80664 14.8027 6.70703 14.8027 6.64844C14.8027 6.55469 14.9844 6.30859 15.3477 5.91016C15.7227 5.5 15.9863 5.24805 16.1387 5.1543C16.3027 5.06055 16.4961 4.82617 16.7188 4.45117L16.9648 4.36328C17.2109 4.03516 17.416 3.80078 17.5801 3.66016C17.7441 3.50781 17.8965 3.31445 18.0371 3.08008L18.3008 2.78125C18.3711 2.75781 18.4062 2.71094 18.4062 2.64062C18.4062 2.57031 18.3359 2.53516 18.1953 2.53516C18.043 2.53516 17.8262 2.48828 17.5449 2.39453L17.2461 2.5L16.9297 2.46484L16.4902 2.67578L16.0684 2.64062C15.7754 2.81641 15.5703 2.91602 15.4531 2.93945C15.3359 2.96289 15.2422 2.98633 15.1719 3.00977C15.1133 3.0332 15.043 3.05664 14.9609 3.08008C14.8789 3.10352 14.7676 3.15625 14.627 3.23828C14.4863 3.32031 14.293 3.36133 14.0469 3.36133C13.9531 3.36133 13.8359 3.41992 13.6953 3.53711C13.5664 3.64258 13.3613 3.77734 13.0801 3.94141C13.0801 3.96484 13.0684 3.97656 13.0449 3.97656L12.5352 3.94141C12.0078 4.46875 11.6738 4.73242 11.5332 4.73242L11.1289 4.66211C10.7188 4.81445 10.3965 4.99023 10.1621 5.18945C9.93945 5.38867 9.72266 5.54687 9.51172 5.66406L9.19531 5.62891C8.91406 5.91016 8.73242 6.08008 8.65039 6.13867C8.58008 6.18555 8.50977 6.27344 8.43945 6.40234C8.38086 6.53125 8.26953 6.5957 8.10547 6.5957L7.71875 6.89453C7.71875 7.07031 7.58398 7.26367 7.31445 7.47461L7.2793 7.54492V7.93164C7.2793 8.02539 7.18555 8.1543 6.99805 8.31836C6.82227 8.4707 6.6875 8.54688 6.59375 8.54688C6.38281 8.54688 6.16602 8.41211 5.94336 8.14258C5.73242 7.86133 5.62695 7.57422 5.62695 7.28125C5.62695 7.23438 5.66211 7.11719 5.73242 6.92969L5.9082 6.17383C6.00195 5.81055 6.60547 5.44727 7.71875 5.08398L8 4.87305C8.23438 4.73242 8.4043 4.66211 8.50977 4.66211L8.7207 4.5918L8.82617 4.32812C8.89648 4.28125 9.01367 4.22266 9.17773 4.15234C9.35352 4.08203 9.51172 3.98828 9.65234 3.87109C9.79297 3.75391 9.99805 3.64258 10.2676 3.53711L10.5488 3.36133H10.918C11.4688 2.81055 12.7344 2.24219 14.7148 1.65625C16.6953 1.07031 18.3066 0.777344 19.5488 0.777344C19.8887 0.777344 20.2227 0.994141 20.5508 1.42773C20.8906 1.84961 21.0605 2.24219 21.0605 2.60547C21.0605 2.82813 20.9316 3.05664 20.6738 3.29102C20.4863 3.38477 20.3457 3.60156 20.252 3.94141C20.1582 4.26953 20 4.50977 19.7773 4.66211C19.3086 5.07227 19.0566 5.32422 19.0215 5.41797L18.8633 5.76953C18.8164 5.875 18.7402 5.95117 18.6348 5.99805C18.5293 6.04492 18.4297 6.17383 18.3359 6.38477C18.2422 6.5957 18.002 6.75391 17.6152 6.85938C17.5918 6.87109 17.5742 6.94727 17.5625 7.08789C17.5508 7.2168 17.4102 7.35742 17.1406 7.50977L16.9297 7.68555C16.8125 8.06055 16.7012 8.27734 16.5957 8.33594L16.4199 8.51172C16.2559 9.08594 15.9863 9.37305 15.6113 9.37305C15.5293 9.37305 15.4531 9.47852 15.3828 9.68945C15.3242 9.88867 15.1543 10.0703 14.873 10.2344V10.3398C15.377 10.1758 15.7402 10.0938 15.9629 10.0938L16.209 10.0586L16.3145 9.95312C16.3848 10 16.4551 10.0234 16.5254 10.0234C16.6777 10.0234 16.8477 9.94141 17.0352 9.77734L17.3164 9.8125C17.3398 9.78906 17.3809 9.77734 17.4395 9.77734L18.3359 9.51367C18.5938 9.4668 18.8809 9.4082 19.1973 9.33789H19.373C19.7715 9.33789 20.082 9.46094 20.3047 9.70703C20.5273 9.95312 20.6387 10.252 20.6387 10.6035L20.5684 11.0957L20.6035 11.3594C20.6035 11.4297 20.4922 11.5352 20.2695 11.6758L20.0938 11.8164C19.8125 12.0625 19.5137 12.1855 19.1973 12.1855C18.6582 12.1855 18.3359 12.0508 18.2305 11.7812C18.2305 11.7344 18.1484 11.7051 17.9844 11.6934C17.832 11.6816 17.7148 11.6523 17.6328 11.6055C17.5508 11.5586 17.4863 11.5352 17.4395 11.5352C17.2871 11.5352 17.1289 11.5117 16.9648 11.4648C16.7539 11.6055 16.5254 11.6758 16.2793 11.6758H16.1738L15.9629 11.6055L15.6289 11.8516C15.6055 11.8516 15.5703 11.8398 15.5234 11.8164C15.4766 11.793 15.4297 11.7812 15.3828 11.7812C15.3125 11.7812 15.2305 11.8105 15.1367 11.8691C15.0547 11.916 14.9668 11.9395 14.873 11.9395L14.627 11.8516C14.5566 11.8867 14.4746 11.9102 14.3809 11.9219C14.2988 11.9336 14.2051 12.0098 14.0996 12.1504C13.9941 12.291 13.8828 12.3613 13.7656 12.3613C13.5664 12.3613 13.373 12.5547 13.1855 12.9414L13.0801 13.0469H12.9746C12.8926 13.0469 12.834 13.1465 12.7988 13.3457C12.7637 13.5332 12.7227 13.6504 12.6758 13.6973C12.4883 13.7207 12.3711 13.7852 12.3242 13.8906C12.2891 13.9844 12.2305 14.1836 12.1484 14.4883L11.9902 14.8047L11.7793 14.9277C11.6621 15.373 11.4453 15.7949 11.1289 16.1934C10.8242 16.5918 10.5957 16.9258 10.4434 17.1953C10.3027 17.4531 10.168 17.6289 10.0391 17.7227C9.92188 17.8164 9.83984 17.9746 9.79297 18.1973C9.74609 18.4082 9.6875 18.5547 9.61719 18.6367C9.54688 18.707 9.40625 18.959 9.19531 19.3926L8.65039 20.3242L8.42188 20.834C8.33984 20.998 8.23438 21.0801 8.10547 21.0801C8.03516 21.0801 8 21.1387 8 21.2559V21.6074C8 21.6543 7.88281 21.9355 7.64844 22.4512L7.52539 22.8027C7.50195 22.8496 7.43164 22.9023 7.31445 22.9609C7.19727 23.0195 7.11523 23.1719 7.06836 23.418C7.02148 23.6641 6.95117 23.8223 6.85742 23.8926C6.77539 23.9629 6.72266 24.1152 6.69922 24.3496C6.67578 24.5723 6.55859 24.7188 6.34766 24.7891C6.32422 25 6.30078 25.1406 6.27734 25.2109C6.26562 25.2812 6.16602 25.3574 5.97852 25.4395H5.94336L6.04883 26.0371C6.04883 26.1191 6.02539 26.1602 5.97852 26.1602C5.86133 26.2305 5.80273 26.2891 5.80273 26.3359L5.87305 26.5469V26.6172C5.87305 26.6641 5.82617 26.7754 5.73242 26.9512V26.9863C5.73242 27.0332 5.7793 27.25 5.87305 27.6367L5.76758 27.8477C5.76758 28.0586 5.86133 28.1641 6.04883 28.1641L6.59375 27.8125C6.75781 27.8125 6.83984 28.0059 6.83984 28.3926L6.89258 28.5684C6.78711 28.6387 6.73438 28.6973 6.73438 28.7441C6.73438 28.791 6.74609 28.8438 6.76953 28.9023C6.79297 28.9609 6.80469 29.0137 6.80469 29.0605C6.80469 29.4473 6.45898 29.6406 5.76758 29.6406H5.69727C5.65039 29.6406 5.58008 29.6172 5.48633 29.5703L5.11719 29.6055C4.97656 29.6055 4.71875 29.4707 4.34375 29.2012C3.98047 28.9316 3.69922 28.5215 3.5 27.9707C3.3125 27.4316 3.21875 26.957 3.21875 26.5469L3.71094 24.5254C3.75781 24.4785 3.78125 24.4023 3.78125 24.2969C3.78125 24.1914 3.82227 24.0684 3.9043 23.9277L4.11523 23.3477C4.43164 22.7852 4.625 22.4805 4.69531 22.4336C4.76562 22.3867 4.86523 22.3281 4.99414 22.2578C5.12305 22.1875 5.21094 22.1172 5.25781 22.0469C5.04688 21.9766 4.94141 21.9121 4.94141 21.8535C4.94141 21.8184 5.0293 21.6426 5.20508 21.3262C5.39258 21.0098 5.54492 20.8398 5.66211 20.8164C5.68555 20.8164 5.69727 20.8047 5.69727 20.7812C5.69727 20.7578 5.68555 20.7109 5.66211 20.6406V20.6055C5.66211 20.582 5.73242 20.4531 5.87305 20.2188L5.80273 19.9551C5.84961 19.8848 5.91406 19.8145 5.99609 19.7441C6.08984 19.6738 6.21289 19.4805 6.36523 19.1641C6.51758 18.8359 6.63477 18.6543 6.7168 18.6191C6.79883 18.5723 6.85742 18.5254 6.89258 18.4785L6.83984 17.9863C6.83984 17.9395 6.88086 17.875 6.96289 17.793L7.06836 17.582C7.11523 17.4883 7.17383 17.4004 7.24414 17.3184C7.31445 17.2363 7.4082 17.0957 7.52539 16.8965L7.64844 16.7559C7.69531 16.6855 7.76562 16.5391 7.85938 16.3164C7.85938 16.082 7.98828 15.8301 8.24609 15.5605L8.91406 14.5234C9.38281 13.8086 9.61719 13.3984 9.61719 13.293V13.2578C9.35938 13.2578 9.02539 13.375 8.61523 13.6094C8.20508 13.832 7.97656 13.9434 7.92969 13.9434L7.52539 13.8379C7.47852 13.8613 7.29102 14.043 6.96289 14.3828C6.41211 14.3828 5.87891 14.5645 5.36328 14.9277L5.29297 14.9629H4.94141L4.87109 14.998L4.76562 15.1738C4.63672 15.2207 4.47852 15.3027 4.29102 15.4199C4.10352 15.5254 3.94531 15.6016 3.81641 15.6484L3.57031 15.9297ZM26.1406 21.7656L25.3145 22.4863C25.2676 22.4395 25.2207 22.416 25.1738 22.416C25.0566 22.416 24.9102 22.5215 24.7344 22.7324C24.5703 22.9434 24.4531 23.0488 24.3828 23.0488L24.207 23.0137C23.9141 23.2363 23.7031 23.3652 23.5742 23.4004C23.4453 23.4355 23.2871 23.5 23.0996 23.5938C22.9238 23.6875 22.7598 23.7402 22.6074 23.752C22.4668 23.7637 22.3496 23.8164 22.2559 23.9102C22.1621 23.9922 21.9336 24.0332 21.5703 24.0332L21.2891 23.998C21.1367 24.0684 21.0371 24.1035 20.9902 24.1035C20.8965 24.1035 20.7969 24.0566 20.6914 23.9629C20.5859 23.8574 20.4688 23.7988 20.3398 23.7871C20.2227 23.7754 20.0996 23.6934 19.9707 23.541C19.8418 23.3887 19.7188 23.2832 19.6016 23.2246C19.4961 23.166 19.4082 23.084 19.3379 22.9785L19.0918 22.7676C18.8926 22.627 18.6992 22.3691 18.5117 21.9941C18.3242 21.6191 18.2305 21.3262 18.2305 21.1152V21.0449L18.2656 20.7109L18.2305 20.3242C18.2773 20.2773 18.3359 20.1777 18.4062 20.0254V19.4629L18.8281 18.0566C18.8516 17.998 18.8047 17.9219 18.6875 17.8281C18.5703 18.0039 18.4531 18.1094 18.3359 18.1445C18.2188 18.1797 18.1367 18.2617 18.0898 18.3906C18.0547 18.5195 17.9902 18.584 17.8965 18.584L17.6855 18.5137C17.6621 18.5371 17.6094 18.6602 17.5273 18.8828C17.4453 19.0938 17.3047 19.1992 17.1055 19.1992C16.8945 19.1992 16.7891 19.1172 16.7891 18.9531L16.8242 18.6367L16.7188 18.1973C16.7188 18.1035 16.8125 17.9219 17 17.6523C17.1875 17.3711 17.3574 17.2129 17.5098 17.1777C17.6738 17.1309 17.8086 17.0195 17.9141 16.8438C18.0312 16.6562 18.2773 16.4336 18.6523 16.1758C18.8633 16.1289 19.0449 15.9766 19.1973 15.7188C19.3613 15.5898 19.5723 15.4844 19.8301 15.4023C20.0996 15.3203 20.2988 15.2031 20.4277 15.0508C20.5684 14.8867 20.9668 14.6406 21.623 14.3125C22.291 13.9727 22.7773 13.8027 23.082 13.8027C23.1758 13.8027 23.3047 13.7793 23.4688 13.7324C23.6328 13.6738 23.7852 13.627 23.9258 13.5918C24.0664 13.5449 24.2129 13.4805 24.3652 13.3984C24.5176 13.3047 24.6406 13.2578 24.7344 13.2578L25.2441 13.4336C25.6191 13.5391 25.8477 13.6152 25.9297 13.6621C25.9531 13.6855 26.0703 13.7383 26.2812 13.8203C26.5039 13.8906 26.7266 13.9902 26.9492 14.1191C27.1836 14.248 27.3008 14.4883 27.3008 14.8398C27.1016 15.1328 27.002 15.291 27.002 15.3145C27.002 15.3613 27.1367 15.4316 27.4062 15.5254C27.5 15.7012 27.6406 15.9297 27.8281 16.2109L28.0215 16.8262L28.0566 18.2676L28.0215 18.4082C27.8926 18.5254 27.8281 18.6016 27.8281 18.6367L27.8809 18.9883L27.7402 19.4805C27.7051 19.6328 27.6465 19.7324 27.5645 19.7793C27.4824 19.8262 27.4297 19.8848 27.4062 19.9551L27.3008 20.0957C27.2773 20.1309 27.2246 20.2363 27.1426 20.4121C27.0723 20.5762 26.9902 20.7051 26.8965 20.7988C26.8027 20.8926 26.7441 21.0039 26.7207 21.1328C26.6973 21.2617 26.6387 21.3555 26.5449 21.4141C26.4512 21.4727 26.3809 21.5371 26.334 21.6074C26.2988 21.666 26.2344 21.7188 26.1406 21.7656ZM20.6738 22.2227L20.7441 22.627L20.7793 22.6621H21.0605L21.1484 22.6973C21.3828 22.7441 21.5586 22.7676 21.6758 22.7676C22.0391 22.7676 22.3262 22.6797 22.5371 22.5039C22.7598 22.3164 22.9355 22.2227 23.0645 22.2227C23.1934 22.2227 23.2988 22.1348 23.3809 21.959C23.4746 21.7832 23.5332 21.6953 23.5566 21.6953H23.8027L23.873 21.6602C23.873 21.3906 23.9902 21.1973 24.2246 21.0801C24.4707 20.9629 24.6406 20.8105 24.7344 20.623C24.8398 20.4238 24.957 20.2773 25.0859 20.1836C25.2148 20.0781 25.3027 19.9434 25.3496 19.7793L25.4902 19.5684C25.5371 19.5215 25.5605 19.4336 25.5605 19.3047L25.8945 18.6719C25.9648 18.3789 26 18.1504 26 17.9863C26 17.7402 25.8711 17.5469 25.6133 17.4062C25.3672 17.2656 25.2441 16.9902 25.2441 16.5801C25.2441 16.3105 25.3789 16.0645 25.6484 15.8418C25.9297 15.6074 26.0703 15.4668 26.0703 15.4199C26.0703 15.3496 26.0352 15.3145 25.9648 15.3145C25.9297 15.3145 25.7949 15.3613 25.5605 15.4551C25.4785 15.6191 25.0625 15.8359 24.3125 16.1055C24.0664 15.9883 23.9316 15.9297 23.9082 15.9297C23.8379 15.9297 23.7676 16 23.6973 16.1406C23.627 16.2812 23.5566 16.3809 23.4863 16.4395H23.2578C23.2344 16.4395 23.1582 16.5156 23.0293 16.668C22.9004 16.8203 22.7363 16.8965 22.5371 16.8965L22.3262 17.1074C22.3379 17.2949 22.2207 17.4883 21.9746 17.6875L21.7812 17.916C21.6641 18.0566 21.5117 18.2207 21.3242 18.4082L21.0078 19.1992C20.8789 19.5039 20.8145 19.7324 20.8145 19.8848C20.7793 19.9551 20.6973 20.0312 20.5684 20.1133C20.4512 20.1836 20.3926 20.2773 20.3926 20.3945C20.3926 20.418 20.4336 20.4766 20.5156 20.5703C20.5977 20.6641 20.6387 20.7344 20.6387 20.7812L20.5684 21.0098L20.498 21.6602L20.6738 22.2227ZM39.1836 21.7656L38.3574 22.4863C38.3105 22.4395 38.2637 22.416 38.2168 22.416C38.0996 22.416 37.9531 22.5215 37.7773 22.7324C37.6133 22.9434 37.4961 23.0488 37.4258 23.0488L37.25 23.0137C36.957 23.2363 36.7461 23.3652 36.6172 23.4004C36.4883 23.4355 36.3301 23.5 36.1426 23.5938C35.9668 23.6875 35.8027 23.7402 35.6504 23.752C35.5098 23.7637 35.3926 23.8164 35.2988 23.9102C35.2051 23.9922 34.9766 24.0332 34.6133 24.0332L34.332 23.998C34.1797 24.0684 34.0801 24.1035 34.0332 24.1035C33.9395 24.1035 33.8398 24.0566 33.7344 23.9629C33.6289 23.8574 33.5117 23.7988 33.3828 23.7871C33.2656 23.7754 33.1426 23.6934 33.0137 23.541C32.8848 23.3887 32.7617 23.2832 32.6445 23.2246C32.5391 23.166 32.4512 23.084 32.3809 22.9785L32.1348 22.7676C31.9355 22.627 31.7422 22.3691 31.5547 21.9941C31.3672 21.6191 31.2734 21.3262 31.2734 21.1152V21.0449L31.3086 20.7109L31.2734 20.3242C31.3203 20.2773 31.3789 20.1777 31.4492 20.0254V19.4629L31.8711 18.0566C31.8945 17.998 31.8477 17.9219 31.7305 17.8281C31.6133 18.0039 31.4961 18.1094 31.3789 18.1445C31.2617 18.1797 31.1797 18.2617 31.1328 18.3906C31.0977 18.5195 31.0332 18.584 30.9395 18.584L30.7285 18.5137C30.7051 18.5371 30.6523 18.6602 30.5703 18.8828C30.4883 19.0938 30.3477 19.1992 30.1484 19.1992C29.9375 19.1992 29.832 19.1172 29.832 18.9531L29.8672 18.6367L29.7617 18.1973C29.7617 18.1035 29.8555 17.9219 30.043 17.6523C30.2305 17.3711 30.4004 17.2129 30.5527 17.1777C30.7168 17.1309 30.8516 17.0195 30.957 16.8438C31.0742 16.6562 31.3203 16.4336 31.6953 16.1758C31.9062 16.1289 32.0879 15.9766 32.2402 15.7188C32.4043 15.5898 32.6152 15.4844 32.873 15.4023C33.1426 15.3203 33.3418 15.2031 33.4707 15.0508C33.6113 14.8867 34.0098 14.6406 34.666 14.3125C35.334 13.9727 35.8203 13.8027 36.125 13.8027C36.2188 13.8027 36.3477 13.7793 36.5117 13.7324C36.6758 13.6738 36.8281 13.627 36.9688 13.5918C37.1094 13.5449 37.2559 13.4805 37.4082 13.3984C37.5605 13.3047 37.6836 13.2578 37.7773 13.2578L38.2871 13.4336C38.6621 13.5391 38.8906 13.6152 38.9727 13.6621C38.9961 13.6855 39.1133 13.7383 39.3242 13.8203C39.5469 13.8906 39.7695 13.9902 39.9922 14.1191C40.2266 14.248 40.3438 14.4883 40.3438 14.8398C40.1445 15.1328 40.0449 15.291 40.0449 15.3145C40.0449 15.3613 40.1797 15.4316 40.4492 15.5254C40.543 15.7012 40.6836 15.9297 40.8711 16.2109L41.0645 16.8262L41.0996 18.2676L41.0645 18.4082C40.9355 18.5254 40.8711 18.6016 40.8711 18.6367L40.9238 18.9883L40.7832 19.4805C40.748 19.6328 40.6895 19.7324 40.6074 19.7793C40.5254 19.8262 40.4727 19.8848 40.4492 19.9551L40.3438 20.0957C40.3203 20.1309 40.2676 20.2363 40.1855 20.4121C40.1152 20.5762 40.0332 20.7051 39.9395 20.7988C39.8457 20.8926 39.7871 21.0039 39.7637 21.1328C39.7402 21.2617 39.6816 21.3555 39.5879 21.4141C39.4941 21.4727 39.4238 21.5371 39.377 21.6074C39.3418 21.666 39.2773 21.7188 39.1836 21.7656ZM33.7168 22.2227L33.7871 22.627L33.8223 22.6621H34.1035L34.1914 22.6973C34.4258 22.7441 34.6016 22.7676 34.7188 22.7676C35.082 22.7676 35.3691 22.6797 35.5801 22.5039C35.8027 22.3164 35.9785 22.2227 36.1074 22.2227C36.2363 22.2227 36.3418 22.1348 36.4238 21.959C36.5176 21.7832 36.5762 21.6953 36.5996 21.6953H36.8457L36.916 21.6602C36.916 21.3906 37.0332 21.1973 37.2676 21.0801C37.5137 20.9629 37.6836 20.8105 37.7773 20.623C37.8828 20.4238 38 20.2773 38.1289 20.1836C38.2578 20.0781 38.3457 19.9434 38.3926 19.7793L38.5332 19.5684C38.5801 19.5215 38.6035 19.4336 38.6035 19.3047L38.9375 18.6719C39.0078 18.3789 39.043 18.1504 39.043 17.9863C39.043 17.7402 38.9141 17.5469 38.6562 17.4062C38.4102 17.2656 38.2871 16.9902 38.2871 16.5801C38.2871 16.3105 38.4219 16.0645 38.6914 15.8418C38.9727 15.6074 39.1133 15.4668 39.1133 15.4199C39.1133 15.3496 39.0781 15.3145 39.0078 15.3145C38.9727 15.3145 38.8379 15.3613 38.6035 15.4551C38.5215 15.6191 38.1055 15.8359 37.3555 16.1055C37.1094 15.9883 36.9746 15.9297 36.9512 15.9297C36.8809 15.9297 36.8105 16 36.7402 16.1406C36.6699 16.2812 36.5996 16.3809 36.5293 16.4395H36.3008C36.2773 16.4395 36.2012 16.5156 36.0723 16.668C35.9434 16.8203 35.7793 16.8965 35.5801 16.8965L35.3691 17.1074C35.3809 17.2949 35.2637 17.4883 35.0176 17.6875L34.8242 17.916C34.707 18.0566 34.5547 18.2207 34.3672 18.4082L34.0508 19.1992C33.9219 19.5039 33.8574 19.7324 33.8574 19.8848C33.8223 19.9551 33.7402 20.0312 33.6113 20.1133C33.4941 20.1836 33.4355 20.2773 33.4355 20.3945C33.4355 20.418 33.4766 20.4766 33.5586 20.5703C33.6406 20.6641 33.6816 20.7344 33.6816 20.7812L33.6113 21.0098L33.541 21.6602L33.7168 22.2227ZM43.8066 21.9062L43.666 21.0098C43.666 20.9395 43.7012 20.8281 43.7715 20.6758C43.8418 20.6758 43.9004 20.6523 43.9473 20.6055L43.8418 20.2891C43.8418 19.8789 43.9531 19.5273 44.1758 19.2344C44.4102 18.9297 44.5391 18.7246 44.5625 18.6191C44.5859 18.5137 44.75 18.1738 45.0547 17.5996C45.3711 17.0137 45.6055 16.6387 45.7578 16.4746L45.8633 16.2461L46.0039 16.2109C46.2734 15.7773 46.6543 15.3848 47.1465 15.0332C47.3105 14.7754 47.5098 14.5645 47.7441 14.4004C47.9785 14.2363 48.1367 14.1191 48.2188 14.0488C48.3008 13.9785 48.4238 13.9316 48.5879 13.9082L48.6582 13.873C48.998 13.5332 49.291 13.3633 49.5371 13.3633C49.6191 13.2812 49.7832 13.1875 50.0293 13.082H50.2227C50.293 13.082 50.3633 13.0586 50.4336 13.0117C50.5039 12.9648 50.5742 12.9414 50.6445 12.9414C50.6914 12.9414 50.8145 12.9883 51.0137 13.082C51.2012 12.8945 51.3535 12.8008 51.4707 12.8008C51.7168 12.8008 51.9629 12.8945 52.209 13.082C52.4668 13.2695 52.6309 13.498 52.7012 13.7676C52.7715 14.0371 52.8301 14.1953 52.877 14.2422C52.9238 14.2891 52.9707 14.3477 53.0176 14.418C53.1113 14.418 53.2344 14.2012 53.3867 13.7676L53.5977 13.4863C53.9141 13.0762 54.1309 12.5957 54.248 12.0449C54.2715 12.0215 54.3066 11.9277 54.3535 11.7637C54.4004 11.5879 54.5234 11.2949 54.7227 10.8848C55.0625 10.3926 55.3027 9.88867 55.4434 9.37305L55.6543 9.05664C55.7949 8.96289 55.8711 8.86328 55.8828 8.75781C55.8945 8.64062 55.9297 8.53516 55.9883 8.44141C56.0469 8.34766 56.1113 8.23633 56.1816 8.10742C56.2637 7.9668 56.3281 7.87305 56.375 7.82617C56.4219 7.7793 56.4922 7.62109 56.5859 7.35156C56.6797 7.07031 56.791 6.91211 56.9199 6.87695C57.0605 6.8418 57.2012 6.77734 57.3418 6.68359L57.377 6.56055L57.3066 6.31445C57.3066 6.17383 57.459 5.92773 57.7637 5.57617C58.0801 5.22461 58.3027 4.9375 58.4316 4.71484C58.5723 4.48047 58.8008 4.12891 59.1172 3.66016C59.4453 3.17969 59.6797 2.88672 59.8203 2.78125L60.2246 2.35938C60.4121 2.08984 60.6758 1.95508 61.0156 1.95508C61.2734 1.95508 61.543 2.0957 61.8242 2.37695C62.1055 2.64648 62.2461 2.91602 62.2461 3.18555C62.2461 3.2793 62.1816 3.49609 62.0527 3.83594L62.0176 4.04688C62.0176 4.23438 61.9531 4.45703 61.8242 4.71484C61.6953 4.97266 61.6191 5.17188 61.5957 5.3125L60.6113 7.7207C60.4941 7.76758 60.4238 7.80273 60.4004 7.82617C60.0957 8.49414 59.8555 8.85742 59.6797 8.91602V9.26758C59.6797 9.39648 59.5977 9.49023 59.4336 9.54883L59.3633 9.58398C59.2578 10.0293 59.123 10.3516 58.959 10.5508C58.7949 10.75 58.6719 10.9551 58.5898 11.166C58.5195 11.3652 58.4023 11.4766 58.2383 11.5C58.0742 11.5234 57.9922 11.752 57.9922 12.1855C57.9453 12.4199 57.8281 12.5371 57.6406 12.5371C57.4648 12.5371 57.3535 12.6895 57.3066 12.9941C57.2598 13.2988 57.0312 13.4629 56.6211 13.4863C56.5039 13.5566 56.4336 13.6387 56.4102 13.7324L56.5508 14.1719C56.5508 14.2422 56.334 14.5176 55.9004 14.998L55.7598 15.4551C55.5371 15.5371 55.3555 16.1406 55.2148 17.2656L55.0039 18.4785L55.0391 18.9531L54.9688 19.1992L55.1797 19.9199L55.1445 20.3242C55.1445 20.5117 55.2148 20.6055 55.3555 20.6055C55.4258 20.6055 55.584 20.5 55.8301 20.2891L56.0762 20.1836C56.8145 19.8086 57.2715 19.4453 57.4473 19.0938C57.4941 19.0469 57.5762 19 57.6934 18.9531C57.8223 18.9062 57.916 18.8418 57.9746 18.7598C58.0332 18.6777 58.0801 18.6191 58.1152 18.584C58.8301 18.1152 59.293 17.7051 59.5039 17.3535C59.7148 17.002 59.9316 16.791 60.1543 16.7207L60.2949 16.5801C60.4355 16.4629 60.5527 16.4043 60.6465 16.4043C60.8457 16.4043 60.9453 16.4629 60.9453 16.5801L60.8047 17.0723C60.9219 17.3887 60.9805 17.5703 60.9805 17.6172C60.9805 18.0273 60.7988 18.2793 60.4355 18.373C60.2832 18.5254 60.1602 18.7012 60.0664 18.9004C59.9844 19.0996 59.7969 19.2227 59.5039 19.2695C59.3047 19.5508 59.123 19.7383 58.959 19.832C58.7949 19.9141 58.7129 20.002 58.7129 20.0957V20.2539C58.6191 20.3945 58.5371 20.4883 58.4668 20.5352L58.1328 20.4648C58.0859 20.6055 57.9805 20.7988 57.8164 21.0449C57.7578 20.998 57.7051 20.9746 57.6582 20.9746C57.4941 20.9746 57.3594 21.0742 57.2539 21.2734C57.1484 21.4727 57.0723 21.5723 57.0254 21.5723H56.6211C56.5625 21.6074 56.4688 21.6836 56.3398 21.8008C56.2109 21.918 55.9941 21.9766 55.6895 21.9766L55.1445 22.082C54.6289 22.082 54.1543 21.918 53.7207 21.5898C53.2871 21.25 53.0527 20.9453 53.0176 20.6758C52.9941 20.3945 52.9004 20.0605 52.7363 19.6738L52.7012 18.9531C52.5723 18.2031 52.4258 17.8281 52.2617 17.8281L52.2266 18.0566L52.0859 18.127C52.0156 18.4902 51.8984 18.6719 51.7344 18.6719C51.6641 18.707 51.5879 18.7656 51.5059 18.8477L51.4004 18.918C51.3535 18.9414 51.2832 19.041 51.1895 19.2168C51.1074 19.3926 50.8672 19.6387 50.4688 19.9551C50.3047 20.3887 50.1816 20.6055 50.0996 20.6055L49.8887 20.4648H49.8535C49.7598 20.4648 49.6836 20.6055 49.625 20.8867C49.5664 21.1562 49.4492 21.291 49.2734 21.291C49.2266 21.291 49.1797 21.373 49.1328 21.5371C49.0977 21.6895 48.998 21.7891 48.834 21.8359C48.6699 21.8711 48.5234 22.0293 48.3945 22.3105C48.2656 22.5918 48.1777 22.7324 48.1309 22.7324C48.1074 22.7324 48.0723 22.7207 48.0254 22.6973L47.7266 22.7676C47.668 22.8496 47.5859 22.9844 47.4805 23.1719C47.375 23.207 47.2812 23.2539 47.1992 23.3125C46.8359 23.6641 46.3555 23.8398 45.7578 23.8398C45.3359 23.8398 45.002 23.752 44.7559 23.5762C44.5098 23.3887 44.3633 23.2305 44.3164 23.1016C44.2695 22.9727 44.1816 22.8145 44.0527 22.627C43.9238 22.4277 43.8418 22.1875 43.8066 21.9062ZM56.9023 10.7793L56.7266 11.2891C56.8789 11.2656 57.0137 11.1074 57.1309 10.8145C57.4824 10.3105 57.7227 10 57.8516 9.88281C58.0039 9.88281 58.1152 9.78906 58.1855 9.60156C58.2676 9.40234 58.4082 9.20898 58.6074 9.02148C58.6074 8.93945 58.6953 8.78125 58.8711 8.54688C59.0469 8.3125 59.1582 8.14844 59.2051 8.05469C59.2637 7.94922 59.375 7.81445 59.5391 7.65039C59.7031 7.48633 59.8555 7.20508 59.9961 6.80664C60.1484 6.4082 60.2773 6.16797 60.3828 6.08594C60.4883 6.00391 60.541 5.83984 60.541 5.59375C60.541 5.25391 60.5176 5.08398 60.4707 5.08398C60.3652 5.08398 60.2832 5.1543 60.2246 5.29492C60.1777 5.42383 60.0664 5.59375 59.8906 5.80469L59.293 6.80664C59.0586 7.20508 58.9004 7.52148 58.8184 7.75586C58.748 7.99023 58.6602 8.13086 58.5547 8.17773C58.4609 8.21289 58.3438 8.32422 58.2031 8.51172L57.957 8.75781C57.8984 8.89844 57.8516 9.06836 57.8164 9.26758L57.6582 9.4082V9.74219C57.6582 9.89453 57.5703 10.0352 57.3945 10.1641C57.2188 10.2812 57.1309 10.3574 57.1309 10.3926L56.9023 10.7793ZM50.8203 17.916L50.9434 17.6875C51.1426 17.6172 51.2715 17.4414 51.3301 17.1602C51.4238 17.0898 51.6641 16.7852 52.0508 16.2461C52.4375 15.707 52.6309 15.4082 52.6309 15.3496C52.5137 15.2324 52.3789 15.1738 52.2266 15.1738C52.2031 15.1738 52.1328 15.1973 52.0156 15.2441C51.8984 15.291 51.7754 15.3262 51.6465 15.3496C51.5293 15.373 51.4004 15.4199 51.2598 15.4902L50.8203 15.4199C50.6914 15.4199 50.4043 15.5898 49.959 15.9297L49.5547 15.8594C49.4844 15.8594 49.3672 16.0117 49.2031 16.3164L48.3066 17.0371H48.2012C48.0371 17.0371 47.9258 17.1836 47.8672 17.4766C47.668 17.7344 47.4805 17.916 47.3047 18.0215C47.1289 18.1152 47.0059 18.2559 46.9355 18.4434V18.6719C46.6074 19.0352 46.4434 19.3105 46.4434 19.498C46.1973 19.7324 46.0332 19.9844 45.9512 20.2539C45.8809 20.5234 45.793 20.752 45.6875 20.9395C45.7344 21.1035 45.7695 21.3086 45.793 21.5547C45.8164 21.7891 45.9336 21.9062 46.1445 21.9062C46.4844 21.9062 46.8594 21.7012 47.2695 21.291C47.293 21.2676 47.3926 21.2031 47.5684 21.0977C47.7441 20.9922 47.9844 20.7871 48.2891 20.4824C48.6055 20.166 48.7812 20.002 48.8164 19.9902C48.9336 19.873 49.0039 19.8145 49.0273 19.8145L49.168 19.6738C49.168 19.627 49.2148 19.5742 49.3086 19.5156C49.4141 19.457 49.5488 19.3398 49.7129 19.1641C49.877 18.9766 50 18.8652 50.082 18.8301C50.1758 18.7949 50.2402 18.748 50.2754 18.6895C50.3105 18.6191 50.3691 18.5547 50.4512 18.4961C50.5332 18.4375 50.5742 18.373 50.5742 18.3027L50.6094 18.0918L50.8203 17.916ZM75.8164 8.72266L75.7109 8.03711V7.93164C75.7109 7.38086 75.8984 7.07617 76.2734 7.01758C76.3555 7.00586 76.6016 6.92969 77.0117 6.78906C77.2227 6.83594 77.4395 7.02344 77.6621 7.35156C77.8965 7.66797 78.0137 7.94922 78.0137 8.19531C78.0137 8.21875 77.9961 8.27148 77.9609 8.35352C77.9258 8.43555 77.9023 8.59375 77.8906 8.82812C77.8789 9.05078 77.7617 9.25 77.5391 9.42578C77.3281 9.58984 77.0996 9.67188 76.8535 9.67188C76.6895 9.67188 76.4785 9.56055 76.2207 9.33789C75.9746 9.10352 75.8398 8.89844 75.8164 8.72266ZM68.2227 17.5117L68.5039 17.2656H68.6094C68.6914 17.2656 68.8145 17.1777 68.9785 17.002L69.1543 16.9316C69.3887 16.5801 69.5938 16.375 69.7695 16.3164L70.0508 16.1055C70.0977 16.0586 70.1621 16.0176 70.2441 15.9824C70.3379 15.9473 70.4785 15.8359 70.666 15.6484C70.8652 15.4492 71.0234 15.3496 71.1406 15.3496C71.2578 15.3496 71.3516 15.3613 71.4219 15.3848C71.4922 15.2441 71.6328 15.1094 71.8438 14.9805C72.0547 14.8398 72.2246 14.6758 72.3535 14.4883L72.582 14.3828C72.7695 14.2891 72.9336 14.1719 73.0742 14.0312C73.2266 13.8789 73.4199 13.8027 73.6543 13.8027C73.9941 13.8027 74.3457 13.9785 74.709 14.3301C75.084 14.6699 75.2715 14.998 75.2715 15.3145L74.9727 16.6855C74.7734 17.6934 74.5508 18.2207 74.3047 18.2676L74.2344 18.6367C74.0703 18.7539 73.9883 18.8477 73.9883 18.918L74.0938 19.3398C74.0938 19.3984 74.0293 19.4863 73.9004 19.6035C73.877 19.6035 73.8652 19.6387 73.8652 19.709V20.4297C73.8652 20.5586 73.7832 20.6641 73.6191 20.7461C73.6426 20.7695 73.6777 20.793 73.7246 20.8164C73.7949 20.7461 73.9531 20.7109 74.1992 20.7109L74.4805 20.7461L74.8672 20.3594C74.9492 20.3359 75.0605 20.2832 75.2012 20.2012C75.3535 20.1074 75.6055 19.9902 75.957 19.8496L78.2598 18.0918C78.5762 17.7754 78.8164 17.6172 78.9805 17.6172C79.1562 17.6172 79.2441 17.7285 79.2441 17.9512C79.2441 18.209 79.1914 18.4258 79.0859 18.6016C78.9922 18.7656 78.9043 18.9707 78.8223 19.2168C78.7402 19.4512 78.6406 19.6152 78.5234 19.709C78.418 19.8027 78.3301 19.9082 78.2598 20.0254C78.1895 20.1309 77.9961 20.2891 77.6797 20.5C77.375 20.7109 77.1113 20.9277 76.8887 21.1504C76.6777 21.3613 76.502 21.5137 76.3613 21.6074L75.6055 22.1523L75.5 22.3281C75.4766 22.3516 75.3652 22.4043 75.166 22.4863C74.9785 22.5566 74.8086 22.6504 74.6562 22.7676L74.3398 22.9434C74.2695 22.9902 74.1523 23.0195 73.9883 23.0312C73.8359 23.043 73.7012 23.1133 73.584 23.2422C73.4668 23.3594 73.373 23.418 73.3027 23.418L73.0391 23.3828L72.6875 23.4883C72.4883 23.4883 72.2422 23.3711 71.9492 23.1367C71.668 22.8906 71.5273 22.6328 71.5273 22.3633V22.2578L71.5625 22.0117C71.5625 21.9648 71.5273 21.8477 71.457 21.6602C71.3867 21.4609 71.3516 21.3496 71.3516 21.3262L71.3867 21.0801L71.3516 20.9746C71.3516 20.6582 71.375 20.459 71.4219 20.377C71.4688 20.2949 71.5039 20.1836 71.5273 20.043C71.5508 19.8906 71.5742 19.7676 71.5977 19.6738L71.6855 19.2344C71.7324 19.0938 71.791 19 71.8613 18.9531C71.8848 18.8594 71.9316 18.7012 72.002 18.4785L72.0723 18.1621L72.248 17.916C72.3418 17.8223 72.3945 17.6992 72.4062 17.5469C72.4297 17.3828 72.4941 17.2129 72.5996 17.0371C72.7051 16.8613 72.7578 16.7559 72.7578 16.7207C72.7578 16.5801 72.6875 16.5098 72.5469 16.5098C72.5 16.5098 72.3535 16.6035 72.1074 16.791L71.791 16.6855C71.7676 16.6855 71.7031 16.7441 71.5977 16.8613C71.5977 16.9082 71.5449 16.9434 71.4395 16.9668C71.334 16.9902 71.2344 17.0781 71.1406 17.2305L71 17.2656L70.7715 17.1602H70.7012C70.584 17.1602 70.5137 17.2891 70.4902 17.5469C70.3613 17.7344 70.1914 17.8574 69.9805 17.916L69.5938 18.0215C69.4648 18.0684 69.3711 18.1738 69.3125 18.3379C69.2539 18.502 69.1367 18.6543 68.9609 18.7949C68.7852 18.9238 68.668 18.9883 68.6094 18.9883C68.2812 18.9883 68.1172 18.8066 68.1172 18.4434L68.2578 17.6172L68.2227 17.5117ZM81.9336 15.209L82.1797 14.7695C82.25 14.6641 82.3379 14.5586 82.4434 14.4531C82.5605 14.3359 82.6836 14.0488 82.8125 13.5918C82.9414 13.123 83.082 12.8008 83.2344 12.625C83.3984 12.4492 83.6328 12.3613 83.9375 12.3613C84.1133 12.3613 84.3418 12.4492 84.623 12.625C84.916 12.7891 85.1973 13.2988 85.4668 14.1543C85.748 15.0098 85.8887 15.6133 85.8887 15.9648C85.8887 16.1055 85.9297 16.2871 86.0117 16.5098C86.0938 16.7207 86.1465 16.8848 86.1699 17.002C86.0762 17.2012 86.0293 17.3125 86.0293 17.3359L86.0645 18.0566L85.8535 18.6367V19.0586C85.7129 19.293 85.6426 19.4395 85.6426 19.498C85.6426 19.5684 85.666 19.6387 85.7129 19.709C86.2637 19.4746 86.5977 19.2871 86.7148 19.1465C86.832 18.9941 86.9434 18.9004 87.0488 18.8652C87.166 18.8301 87.3535 18.6777 87.6113 18.4082L87.9453 18.2324C88.0625 18.0918 88.1621 17.9688 88.2441 17.8633C88.3262 17.7461 88.4199 17.6641 88.5254 17.6172C88.6426 17.5703 88.7773 17.4883 88.9297 17.3711C89.082 17.2539 89.3047 17.1191 89.5977 16.9668L89.7734 16.7559C89.9492 16.5566 90.1543 16.3984 90.3887 16.2812C90.6348 16.1641 90.7695 16.1055 90.793 16.1055C90.875 16.1055 90.957 16.2168 91.0391 16.4395C91.1328 16.6504 91.1797 16.8613 91.1797 17.0723C91.1797 17.2715 91.0625 17.4707 90.8281 17.6699C90.6055 17.8574 90.4531 17.998 90.3711 18.0918C90.2891 18.1855 90.1016 18.2676 89.8086 18.3379C89.7852 18.3496 89.5918 18.5898 89.2285 19.0586L88.877 19.2695L88.7012 19.498C88.6777 19.5449 88.5195 19.5918 88.2266 19.6387C88.2148 19.6387 88.1855 19.6973 88.1387 19.8145C88.1035 19.9316 87.9805 20.0137 87.7695 20.0605C87.3477 20.4473 87.1309 20.6641 87.1191 20.7109L86.75 20.7812C86.6797 21.0039 86.6211 21.1387 86.5742 21.1855C86.293 21.2559 86.1348 21.373 86.0996 21.5371C86.0645 21.5605 86.0059 21.584 85.9238 21.6074L85.8535 21.6602C85.584 21.8711 85.3203 22 85.0625 22.0469L84.6582 22.1523L84.5176 22.3633C84.5176 22.4219 84.3711 22.498 84.0781 22.5918C83.7969 22.6855 83.5859 22.8027 83.4453 22.9434L83.1465 23.1719C82.7832 23.3125 82.5547 23.4414 82.4609 23.5586H82.2148C82.0508 23.5586 81.793 23.6816 81.4414 23.9277C81.0898 24.1621 80.8086 24.2793 80.5977 24.2793C79.918 24.2793 79.4492 24.1973 79.1914 24.0332C78.9453 23.8574 78.7402 23.6465 78.5762 23.4004C78.4121 23.1426 78.2656 22.9375 78.1367 22.7852C77.9961 22.6328 77.9258 22.5098 77.9258 22.416C77.9258 22.334 77.9844 22.252 78.1016 22.1699C78.207 22.0879 78.3242 21.9238 78.4531 21.6777C78.582 21.4199 78.9102 21.2559 79.4375 21.1855C79.4609 21.1855 79.543 21.1504 79.6836 21.0801C79.8359 21.0098 79.959 20.9746 80.0527 20.9746C80.1699 20.9746 80.3164 21.0801 80.4922 21.291C80.4922 21.3145 80.5156 21.3262 80.5625 21.3262L80.8438 21.291C80.9727 21.3848 81.0605 21.4316 81.1074 21.4316C81.3887 21.4316 81.6875 21.291 82.0039 21.0098L82.0742 20.9746H82.2148C82.25 20.9746 82.3086 20.875 82.3906 20.6758L82.6895 20.0605L83.3047 19.2695V19.0938C83.3047 19.0586 83.3398 18.9531 83.4102 18.7773V18.5137C83.4102 18.4082 83.4805 18.3438 83.6211 18.3203C83.7617 18.2852 83.832 18.209 83.832 18.0918L83.7969 17.9512C83.7031 17.8223 83.6562 17.7227 83.6562 17.6523L83.832 17.3008L83.7969 16.9316L83.8672 16.791C83.8203 16.627 83.7969 16.5332 83.7969 16.5098L83.8672 16.0703C83.8672 16.0586 83.832 15.9473 83.7617 15.7363C83.7031 15.5254 83.6562 15.4199 83.6211 15.4199C83.5508 15.4199 83.3281 15.6016 82.9531 15.9648C82.5781 16.3281 82.3555 16.5859 82.2852 16.7383C82.2148 16.8906 82.0625 17.0312 81.8281 17.1602C81.6055 17.2773 81.4531 17.4121 81.3711 17.5645C81.2891 17.7168 81.1895 17.8047 81.0723 17.8281L79.8945 18.7773L78.6113 19.7266C78.5176 19.832 78.459 19.8848 78.4355 19.8848C78.002 19.8848 77.7852 19.6445 77.7852 19.1641C77.7852 19.0117 77.873 18.7363 78.0488 18.3379C78.1309 18.291 78.1953 18.2559 78.2422 18.2324C78.2773 18.209 78.2949 18.1914 78.2949 18.1797C78.2949 18.168 78.2832 18.1621 78.2598 18.1621L78.3652 18.2324H78.4004C78.834 17.9395 79.1152 17.7695 79.2441 17.7227C79.373 17.6758 79.4902 17.5469 79.5957 17.3359L80.334 16.8086C80.5215 16.668 80.8086 16.4102 81.1953 16.0352C81.582 15.6602 81.8281 15.3848 81.9336 15.209ZM106.139 4.97852L106.104 5.17188C106.068 5.37109 105.904 5.57031 105.611 5.76953C105.318 5.96875 105.025 6.06836 104.732 6.06836C103.994 6.06836 103.625 5.7168 103.625 5.01367C103.625 4.76758 103.812 4.46875 104.188 4.11719C104.574 3.75391 105.084 3.50195 105.717 3.36133C106.361 3.2207 106.818 3.08594 107.088 2.95703C107.369 2.81641 107.797 2.71094 108.371 2.64062C108.465 2.73437 108.559 2.78125 108.652 2.78125C108.805 2.78125 108.91 2.72852 108.969 2.62305C109.027 2.51758 109.162 2.48828 109.373 2.53516H109.461L110.393 2.28906L110.674 2.39453C110.721 2.39453 110.773 2.37109 110.832 2.32422C110.902 2.27734 110.984 2.24219 111.078 2.21875H111.359L111.693 2.14844C111.951 2.07812 112.104 2.02539 112.15 1.99023L112.449 2.02539C112.672 2.02539 113.035 1.9668 113.539 1.84961C114.055 1.73242 114.441 1.66797 114.699 1.65625C114.969 1.64453 115.162 1.62695 115.279 1.60352C115.408 1.58008 115.484 1.56836 115.508 1.56836C115.578 1.56836 115.666 1.60352 115.771 1.67383C115.877 1.74414 115.953 1.7793 116 1.7793C116.047 1.7793 116.375 1.70898 116.984 1.56836H117.09L117.881 1.74414C118.092 1.62695 118.232 1.56836 118.303 1.56836C118.549 1.56836 118.754 1.65039 118.918 1.81445L119.252 1.67383L119.428 1.70898C119.498 1.70898 119.604 1.69727 119.744 1.67383H119.885C119.967 1.67383 120.055 1.68555 120.148 1.70898C120.172 1.73242 120.195 1.74414 120.219 1.74414C120.336 1.74414 120.43 1.73242 120.5 1.70898H120.729L121.484 1.88477L121.801 1.84961C121.824 1.84961 121.895 1.88477 122.012 1.95508L122.205 1.91992C122.322 2.00195 122.533 2.11328 122.838 2.25391C122.896 2.23047 122.984 2.20703 123.102 2.18359H123.137C123.16 2.18359 123.277 2.25391 123.488 2.39453L123.998 2.64062L124.139 2.57031C124.467 2.73437 124.637 2.82813 124.648 2.85156L124.789 3.15039C124.93 3.2207 125.088 3.31445 125.264 3.43164C125.299 3.54883 125.369 3.68359 125.475 3.83594V3.97656C125.475 4 125.562 4.08789 125.738 4.24023C125.926 4.38086 126.02 4.48633 126.02 4.55664C126.02 4.58008 126.008 4.66211 125.984 4.80273V4.83789C125.984 4.86133 126.025 4.9375 126.107 5.06641C126.189 5.19531 126.23 5.34766 126.23 5.52344L126.195 5.76953L126.23 5.99805L126.055 7.17578C125.949 7.29297 125.879 7.41016 125.844 7.52734C125.809 7.63281 125.721 7.71484 125.58 7.77344C125.439 7.83203 125.322 7.95508 125.229 8.14258C125.146 8.31836 125.023 8.43555 124.859 8.49414C124.695 8.55273 124.537 8.6582 124.385 8.81055C124.244 8.95117 124.08 9.02148 123.893 9.02148L122.012 9.58398L121.801 9.51367C121.59 9.85352 121.279 10.0234 120.869 10.0234C120.764 10.0234 120.529 10.0645 120.166 10.1465L119.814 10.2344L119.533 10.1992L118.883 10.3223C118.684 10.3574 118.537 10.4043 118.443 10.4629C118.35 10.5098 118.232 10.5332 118.092 10.5332L117.617 10.7793C117.594 10.8027 117.559 10.8145 117.512 10.8145C117.418 10.8145 117.359 10.8027 117.336 10.7793L117.09 10.709C116.996 10.7324 116.908 10.7734 116.826 10.832C116.756 10.8906 116.686 10.9199 116.615 10.9199L116.404 10.7441L116.07 11.0254C115.93 11.0488 115.742 11.1016 115.508 11.1836C115.355 11.1016 115.256 11.0605 115.209 11.0605L114.594 11.3242L114.242 11.2188L114.207 11.3242C114.043 11.3242 113.873 11.3828 113.697 11.5C113.533 11.6172 113.393 11.6758 113.275 11.6758C113.193 11.6758 113.105 11.6289 113.012 11.5352C112.965 11.5352 112.918 11.5117 112.871 11.4648C112.754 11.5469 112.666 11.6348 112.607 11.7285C112.549 11.8105 112.42 11.8926 112.221 11.9746L111.799 11.8516C111.799 11.8867 111.688 11.9512 111.465 12.0449C111.242 12.127 111.125 12.1973 111.113 12.2559L110.938 12.502C110.855 12.7012 110.791 12.8652 110.744 12.9941C110.697 13.123 110.639 13.2285 110.568 13.3105C110.498 13.3809 110.434 13.5098 110.375 13.6973C110.316 13.8848 110.211 14.0898 110.059 14.3125L110.023 14.5234C109.953 14.6172 109.848 14.7227 109.707 14.8398L109.303 15.5957C109.186 15.7715 109.127 15.8945 109.127 15.9648C109.127 16.1406 109.285 16.3105 109.602 16.4746L111.465 18.0566L111.764 18.2324H111.799L111.729 18.5488C111.822 18.6074 111.881 18.6367 111.904 18.6367C111.975 18.6367 112.01 18.584 112.01 18.4785H112.115C112.139 18.4785 112.197 18.5312 112.291 18.6367L112.484 18.7422C112.566 18.8242 112.719 18.959 112.941 19.1465C113.164 19.334 113.275 19.4629 113.275 19.5332L113.24 19.6738H113.346C113.393 19.627 113.428 19.6035 113.451 19.6035C113.498 19.6035 113.627 19.6738 113.838 19.8145L114.066 19.9199C114.535 20.2598 114.816 20.4883 114.91 20.6055C115.016 20.7227 115.162 20.8574 115.35 21.0098C115.549 21.1504 115.707 21.3145 115.824 21.502L117.846 23.0137C119.533 24.2793 120.482 25.123 120.693 25.5449C120.74 25.6152 120.852 25.6855 121.027 25.7559C121.203 25.8262 121.455 26.0195 121.783 26.3359C122.111 26.6641 122.311 26.916 122.381 27.0918V27.707C122.381 27.7539 122.322 27.8125 122.205 27.8828L121.977 28.0938C121.672 28.4102 121.408 28.5684 121.186 28.5684C120.635 28.5684 120.23 28.4453 119.973 28.1992L119.885 28.1641H119.709C119.521 28.1641 119.416 28 119.393 27.6719L119.322 27.4434C118.736 27.2559 118.291 26.957 117.986 26.5469L116.984 25.6152C116.961 25.5918 116.768 25.3691 116.404 24.9473C116.041 24.5137 115.719 24.2031 115.438 24.0156C115.168 23.8281 114.951 23.6348 114.787 23.4355C114.635 23.2363 114.424 23.0488 114.154 22.873C113.896 22.6973 113.621 22.4043 113.328 21.9941C113.035 21.5723 112.871 21.3496 112.836 21.3262C112.309 21.0449 112.057 20.7344 112.08 20.3945C112.01 20.3477 111.84 20.3008 111.57 20.2539C111.43 20.1016 111.342 20.0195 111.307 20.0078C111.271 19.9961 111.242 19.9785 111.219 19.9551L111.254 19.6738C110.902 19.5684 110.656 19.4395 110.516 19.2871C110.375 19.123 110.188 18.9062 109.953 18.6367C109.719 18.3672 109.514 18.1621 109.338 18.0215C109.174 17.8691 109.086 17.752 109.074 17.6699C109.062 17.5879 108.951 17.4883 108.74 17.3711C108.658 17.5117 108.57 17.623 108.477 17.7051C108.383 17.7871 108.312 17.8809 108.266 17.9863L108.195 18.0918C108.031 18.2559 107.949 18.4375 107.949 18.6367C107.773 18.7773 107.662 19.0293 107.615 19.3926L106.824 21.1855L106.684 21.8359L106.578 22.9434C106.543 23.2598 106.408 23.418 106.174 23.418L105.822 23.4531C105.729 23.4062 105.506 23.3652 105.154 23.3301C104.814 23.2832 104.533 22.9375 104.311 22.293C104.287 22.2227 104.217 22.1055 104.1 21.9414C103.994 21.7773 103.941 21.6309 103.941 21.502C103.941 21.4082 103.977 21.2559 104.047 21.0449L104.117 20.6406C104.117 20.5703 104.264 20.2363 104.557 19.6387L105.488 17.8633L105.945 17.1777C106.004 17.084 106.068 16.9082 106.139 16.6504C106.209 16.3809 106.314 16.1582 106.455 15.9824C106.607 15.8066 106.684 15.6777 106.684 15.5957C106.684 15.4551 106.572 15.3145 106.35 15.1738C106.139 15.0332 106.021 14.8984 105.998 14.7695L105.928 14.5938C105.307 14.2305 104.996 13.8203 104.996 13.3633C104.996 13.1172 105.307 12.8125 105.928 12.4492C106.549 12.0742 106.965 11.8633 107.176 11.8164C107.398 11.7695 107.615 11.6875 107.826 11.5703L108.125 11.5L108.371 11.2891C108.512 11.2422 108.682 11.2012 108.881 11.166C109.092 11.1191 109.268 10.8789 109.408 10.4453C109.561 10 109.695 9.74219 109.812 9.67188C110.047 9.19141 110.205 8.82812 110.287 8.58203C110.311 8.53516 110.375 8.42969 110.48 8.26562C110.598 8.08984 110.715 7.80859 110.832 7.42188C110.949 7.02344 111.031 6.82422 111.078 6.82422C111.125 6.82422 111.219 6.80078 111.359 6.75391L111.184 6.2793C111.184 6.23242 111.23 6.16211 111.324 6.06836C111.16 5.86914 111.078 5.62891 111.078 5.34766C111.078 4.89062 111.4 4.66211 112.045 4.66211C112.162 4.66211 112.396 4.76758 112.748 4.97852C113.1 5.17773 113.287 5.32422 113.311 5.41797C113.334 5.51172 113.41 5.66406 113.539 5.875C113.668 6.07422 113.732 6.24414 113.732 6.38477C113.732 6.8418 113.656 7.14062 113.504 7.28125C113.352 7.42188 113.193 7.73242 113.029 8.21289L112.555 9.54883L112.484 9.88281L112.396 10.0234L112.836 9.91797C112.93 9.66016 113.328 9.51367 114.031 9.47852L115.139 9.12695H115.473L116.545 8.82812C116.592 8.82812 116.762 8.80469 117.055 8.75781H117.16L117.371 8.72266C117.418 8.74609 117.465 8.79297 117.512 8.86328H117.582C117.711 8.86328 117.781 8.78711 117.793 8.63477C117.805 8.48242 117.975 8.40625 118.303 8.40625C118.35 8.40625 118.391 8.43555 118.426 8.49414C118.473 8.55273 118.52 8.58203 118.566 8.58203C118.59 8.45312 118.678 8.36523 118.83 8.31836C118.994 8.25977 119.111 8.23047 119.182 8.23047L119.463 8.26562C119.439 8.24219 119.428 8.20703 119.428 8.16016C119.428 8.05469 119.785 7.94336 120.5 7.82617C120.699 7.75586 120.857 7.66797 120.975 7.5625C121.092 7.45703 121.461 7.30469 122.082 7.10547L123.137 6.78906C123.57 6.64844 123.869 6.22656 124.033 5.52344C124.01 5.5 123.904 5.3418 123.717 5.04883C123.717 5.02539 123.629 5.01367 123.453 5.01367C123.406 4.9668 123.324 4.91406 123.207 4.85547C123.09 4.78516 122.955 4.67383 122.803 4.52148L122.592 4.5918C122.428 4.49805 122.234 4.42773 122.012 4.38086C121.801 4.32227 121.572 4.19922 121.326 4.01172C121.232 4.05859 121.174 4.08203 121.15 4.08203C121.127 4.08203 120.998 4.02344 120.764 3.90625L120.289 3.69531H120.008L119.885 3.66016C119.814 3.57812 119.756 3.53711 119.709 3.53711L119.533 3.57227C119.486 3.5957 119.428 3.60742 119.357 3.60742H119.059C119.035 3.60742 118.941 3.54883 118.777 3.43164H118.197L117.881 3.50195C117.834 3.50195 117.758 3.45508 117.652 3.36133L117.336 3.43164L117.02 3.29102L116.545 3.36133C116.451 3.29102 116.381 3.25586 116.334 3.25586L114.928 3.39648C114.881 3.39648 114.84 3.37305 114.805 3.32617C114.77 3.2793 114.711 3.24414 114.629 3.2207C114.559 3.19727 114.477 3.15039 114.383 3.08008C114.137 3.2207 113.896 3.29102 113.662 3.29102L113.117 3.2207L113.012 3.25586H112.941C112.918 3.25586 112.812 3.23242 112.625 3.18555C112.625 3.23242 112.613 3.26758 112.59 3.29102L112.326 3.2207L111.359 3.39648H111.324L111.148 3.36133C111.102 3.36133 111.031 3.37891 110.938 3.41406C110.855 3.44922 110.791 3.4668 110.744 3.4668L110.357 3.43164L110.059 3.50195L109.637 3.4668L109.268 3.73047H109.197C109.15 3.73047 109.098 3.71289 109.039 3.67773C108.98 3.63086 108.939 3.60742 108.916 3.60742L108.652 3.66016L108.441 3.60742C108.395 3.60742 108.301 3.71875 108.16 3.94141C108.16 3.96484 108.137 3.97656 108.09 3.97656H108.055L107.791 3.90625C107.744 3.90625 107.65 3.98828 107.51 4.15234C107.287 4.23438 107.07 4.32227 106.859 4.41602C106.695 4.65039 106.555 4.79102 106.438 4.83789L106.139 4.97852ZM107.299 13.293H106.859C106.789 13.293 106.66 13.3633 106.473 13.5039C106.297 13.6328 106.209 13.7207 106.209 13.7676C106.209 13.8145 106.344 13.9492 106.613 14.1719C106.895 14.3828 107.07 14.4883 107.141 14.4883C107.352 14.4883 107.604 14.0078 107.896 13.0469L107.721 13.1172L107.51 13.082C107.369 13.1992 107.299 13.2695 107.299 13.293ZM124.455 16.4395L124.824 16.1406C125.105 16.1172 125.258 15.9707 125.281 15.7012C125.305 15.4316 125.498 15.1973 125.861 14.998L126.072 14.6992C126.248 14.5234 126.729 14.2949 127.514 14.0137C127.713 13.8965 127.848 13.791 127.918 13.6973C127.941 13.6738 127.965 13.6621 127.988 13.6621L128.27 13.7324C128.422 13.7324 128.615 13.6914 128.85 13.6094C129.096 13.5273 129.33 13.4863 129.553 13.4863L130.291 13.4512C130.338 13.4512 130.432 13.4863 130.572 13.5566C130.725 13.627 130.906 13.6621 131.117 13.6621C131.375 13.6621 131.609 13.7793 131.82 14.0137C132.043 14.248 132.154 14.4648 132.154 14.6641C132.154 15.0273 131.967 15.3965 131.592 15.7715C131.217 16.1465 130.918 16.3574 130.695 16.4043C130.496 16.6035 130.344 16.7324 130.238 16.791C130.133 16.8379 130.021 16.9199 129.904 17.0371C129.799 17.1426 129.711 17.1953 129.641 17.1953C129.594 17.1953 129.559 17.1836 129.535 17.1602C129.512 17.125 129.477 17.1074 129.43 17.1074C129.242 17.1074 129.037 17.3359 128.814 17.793L128.498 17.7578C128.299 17.8867 128.17 18.0273 128.111 18.1797C128.053 18.332 127.93 18.4082 127.742 18.4082C127.309 18.8418 127.016 19.0586 126.863 19.0586C126.84 19.0586 126.758 19.0352 126.617 18.9883C126.523 19.1055 126.477 19.2285 126.477 19.3574C126.477 19.498 126.383 19.5801 126.195 19.6035L125.967 19.8145L125.791 19.7793L125.439 20.1484C125.264 20.1484 125.082 20.207 124.895 20.3242C124.871 20.4648 124.836 20.6465 124.789 20.8691C124.742 21.0801 124.719 21.1973 124.719 21.2207C124.719 21.5605 125.029 21.7305 125.65 21.7305L126.494 21.6074C126.717 21.6074 126.922 21.5488 127.109 21.4316C127.309 21.3145 127.52 21.2559 127.742 21.2559C127.812 21.2559 127.918 21.2324 128.059 21.1855L128.234 21.2559C128.316 21.0801 128.469 20.9219 128.691 20.7812C128.914 20.6406 129.09 20.5703 129.219 20.5703L129.395 20.4648C129.441 20.3242 129.512 20.2305 129.605 20.1836L129.746 20.0605C129.84 19.9668 129.928 19.9199 130.01 19.9199H130.256L130.326 19.8848C130.467 19.5801 130.66 19.4043 130.906 19.3574C131.164 19.2988 131.322 19.2109 131.381 19.0938C131.451 18.9766 131.568 18.9062 131.732 18.8828C131.896 18.8594 132.031 18.7832 132.137 18.6543C132.254 18.5137 132.395 18.3848 132.559 18.2676C132.723 18.1504 132.834 18.0625 132.893 18.0039C132.963 17.9453 133.021 17.916 133.068 17.916C133.139 17.916 133.174 17.9688 133.174 18.0742C133.174 18.1797 133.197 18.2324 133.244 18.2324C133.291 18.2324 133.314 18.209 133.314 18.1621C133.314 18.1152 133.303 18.0566 133.279 17.9863V17.8633C133.279 17.6875 133.373 17.5703 133.561 17.5117L134.352 17.002C134.375 16.7559 134.439 16.6152 134.545 16.5801C134.662 16.5332 134.75 16.4863 134.809 16.4395C134.867 16.3809 134.932 16.3516 135.002 16.3516C135.154 16.3516 135.23 16.4395 135.23 16.6152L135.143 17.0723L135.23 17.5469C135.23 17.6172 135.172 17.7168 135.055 17.8457C134.949 17.9629 134.867 18.1504 134.809 18.4082C134.75 18.6543 134.674 18.7891 134.58 18.8125H134.475C134.264 19.0352 134.094 19.1699 133.965 19.2168C133.848 19.252 133.754 19.3223 133.684 19.4277L133.086 20.1133C132.969 20.2305 132.869 20.3359 132.787 20.4297C132.705 20.5234 132.641 20.5703 132.594 20.5703L132.453 20.4297C132.453 20.4062 132.43 20.3945 132.383 20.3945C132.266 20.3945 132.189 20.4648 132.154 20.6055C132.131 20.7461 132.072 20.8691 131.979 20.9746C131.627 21.1387 131.398 21.291 131.293 21.4316L131.188 21.4668H130.871C130.719 21.4668 130.613 21.584 130.555 21.8184C130.496 22.041 130.326 22.1699 130.045 22.2051C129.775 22.2402 129.582 22.3105 129.465 22.416C129.441 22.4395 129.389 22.4629 129.307 22.4863C129.225 22.5098 129.061 22.6035 128.814 22.7676L127.338 23.2949C127.221 23.3535 127.145 23.3828 127.109 23.3828L126.617 23.4531C126.547 23.4531 126.477 23.4062 126.406 23.3125C126.336 23.2188 126.289 23.1719 126.266 23.1719L125.949 23.2773C125.715 23.3477 125.492 23.3828 125.281 23.3828C125.164 23.3828 125.035 23.3418 124.895 23.2598C124.754 23.1777 124.643 23.1191 124.561 23.084C124.221 23.084 123.98 22.8203 123.84 22.293L123.629 22.3281C123.582 22.3281 123.424 21.9121 123.154 21.0801C123.084 20.9863 122.973 20.9219 122.82 20.8867C122.668 20.8398 122.592 20.7227 122.592 20.5352C122.592 20.0078 122.703 19.6562 122.926 19.4805C123.16 19.293 123.289 19.1523 123.312 19.0586L123.559 18.1445C123.605 18.1094 123.664 17.9922 123.734 17.793L124.139 17.0547C124.186 16.9727 124.291 16.7676 124.455 16.4395ZM128.164 15.3848L127.953 15.4902C127.906 15.5137 127.766 15.6191 127.531 15.8066C127.309 15.9824 127.086 16.1289 126.863 16.2461C126.652 16.3516 126.43 16.6387 126.195 17.1074C125.973 17.5762 125.861 17.8457 125.861 17.916C125.861 17.9863 125.896 18.0215 125.967 18.0215L126.564 17.7578C126.787 17.6523 126.992 17.5176 127.18 17.3535C127.379 17.1895 127.66 16.9902 128.023 16.7559L128.164 16.6152C128.188 16.5684 128.293 16.4863 128.48 16.3691C128.68 16.2402 128.826 16.1172 128.92 16L129.096 15.9297C129.295 15.6133 129.494 15.4199 129.693 15.3496C129.904 15.2793 130.01 15.209 130.01 15.1387C130.01 14.998 129.898 14.9277 129.676 14.9277C129.582 14.9277 129.441 14.9863 129.254 15.1035H128.85C128.803 15.1035 128.674 15.1738 128.463 15.3145L128.164 15.3848ZM147.043 19.0586L147.324 18.8125C147.5 18.8125 147.605 18.7363 147.641 18.584C147.676 18.4199 147.799 18.291 148.01 18.1973C148.232 18.1035 148.438 17.916 148.625 17.6348C148.812 17.3418 149.006 17.1953 149.205 17.1953C149.275 17.1953 149.357 17.2539 149.451 17.3711C149.545 17.4883 149.592 17.582 149.592 17.6523C149.592 18.0391 149.475 18.4375 149.24 18.8477L149.17 19.3398L149.047 19.5684C148.871 19.6621 148.754 19.7617 148.695 19.8672C148.648 19.9727 148.514 20.1016 148.291 20.2539L148.115 20.5C147.857 20.582 147.682 20.7168 147.588 20.9043C147.506 21.0918 147.383 21.1973 147.219 21.2207C147.066 21.2441 146.896 21.3613 146.709 21.5723C146.592 21.6309 146.451 21.6836 146.287 21.7305L146.252 21.9062C146.135 22.0234 145.947 22.1172 145.689 22.1875C145.443 22.2578 145.256 22.3281 145.127 22.3984C145.01 22.457 144.928 22.4863 144.881 22.4863C144.658 22.4863 144.453 22.4453 144.266 22.3633C144.078 22.2695 143.885 22.2109 143.686 22.1875C143.615 22.1172 143.574 22.041 143.562 21.959C143.551 21.877 143.492 21.7715 143.387 21.6426C143.281 21.502 143.229 21.3145 143.229 21.0801L143.299 20.7461C143.299 20.6992 143.27 20.6406 143.211 20.5703C143.152 20.5 143.123 20.4414 143.123 20.3945C143.123 20.3477 143.135 20.3125 143.158 20.2891C143.182 20.2656 143.193 20.2305 143.193 20.1836C143.193 20.125 143.182 20.0605 143.158 19.9902C143.135 19.9199 143.123 19.8613 143.123 19.8145L143.229 18.9531C143.229 18.8828 143.205 18.8477 143.158 18.8477C143.111 18.8477 143.023 18.9062 142.895 19.0234C142.777 19.1406 142.637 19.1992 142.473 19.1992C142.379 19.2695 142.303 19.416 142.244 19.6387C142.15 19.7559 142.033 19.8613 141.893 19.9551L141.822 20.0605C141.799 20.1426 141.711 20.2129 141.559 20.2715C141.406 20.3184 141.301 20.3828 141.242 20.4648L141.066 20.6406L140.732 20.6055C140.709 20.6289 140.645 20.7344 140.539 20.9219C140.434 21.0977 140.299 21.2441 140.135 21.3613L138.799 22.4512C138.658 22.5449 138.453 22.6621 138.184 22.8027L138.078 22.9082C137.141 23.5293 136.479 23.8398 136.092 23.8398C135.775 23.8398 135.406 23.752 134.984 23.5762C134.562 23.4004 134.334 23.1895 134.299 22.9434L134.123 22.2227C134.018 22.0586 133.965 21.8301 133.965 21.5371C133.965 21.3965 133.977 21.3027 134 21.2559V21.1504L133.965 20.5703C133.965 20.4297 134.076 20.3594 134.299 20.3594L134.264 19.8848C134.264 19.8379 134.363 19.6562 134.562 19.3398C134.773 19.0117 134.914 18.8242 134.984 18.7773L135.16 18.5488C135.148 18.4082 135.23 18.2617 135.406 18.1094C135.582 17.9453 135.723 17.7812 135.828 17.6172C135.934 17.4531 136.133 17.2715 136.426 17.0723L136.953 16.5449C137.363 16.1348 137.809 15.8066 138.289 15.5605C138.359 15.5371 138.5 15.4199 138.711 15.209C138.934 14.998 139.18 14.8457 139.449 14.752C139.73 14.6465 140 14.5176 140.258 14.3652C140.527 14.2129 140.738 14.1367 140.891 14.1367H141.031C141.078 14.1367 141.389 13.9902 141.963 13.6973H142.068C142.115 13.6973 142.227 13.7441 142.402 13.8379H142.438L142.719 13.6973C142.766 13.6738 142.824 13.6621 142.895 13.6621C143.621 13.6621 144.02 14.166 144.09 15.1738C144.113 15.3848 144.172 15.4902 144.266 15.4902C144.383 15.4902 144.547 15.2793 144.758 14.8574C144.98 14.4238 145.443 14.207 146.146 14.207C146.65 14.207 146.902 14.5293 146.902 15.1738C146.902 15.9355 146.562 16.6562 145.883 17.3359C145.836 17.4297 145.801 17.5352 145.777 17.6523L145.531 18.373V18.4082C145.531 18.4785 145.479 18.5781 145.373 18.707C145.279 18.8242 145.232 18.9297 145.232 19.0234L145.268 19.4629L145.197 19.9551C145.197 20.1777 145.238 20.3242 145.32 20.3945C145.695 20.3008 145.965 20.1484 146.129 19.9375C146.305 19.7148 146.428 19.5918 146.498 19.5684L146.674 19.498C146.779 19.3223 146.902 19.1758 147.043 19.0586ZM141.207 19.0586C141.254 18.8008 141.395 18.6074 141.629 18.4785C141.875 18.3379 142.021 18.1973 142.068 18.0566C142.291 17.8926 142.607 17.5996 143.018 17.1777C143.439 16.7559 143.65 16.498 143.65 16.4043C143.65 16.3691 143.627 16.3516 143.58 16.3516H143.545L143.404 16.4395L143.088 16.4043L142.754 16.4395L142.508 16.3164L142.279 16.3516L141.928 16.2812C141.74 16.2812 141.576 16.3223 141.436 16.4043C141.307 16.4746 141.049 16.5566 140.662 16.6504C140.287 16.7441 139.947 16.9082 139.643 17.1426C139.338 17.3652 139.115 17.4766 138.975 17.4766C138.893 17.6523 138.617 17.9043 138.148 18.2324C137.867 18.3262 137.686 18.5312 137.604 18.8477C137.299 19.0938 137.146 19.2344 137.146 19.2695L137.023 19.5684C136.93 19.6504 136.812 19.7207 136.672 19.7793C136.531 19.8262 136.449 19.9492 136.426 20.1484C136.402 20.3359 136.32 20.5117 136.18 20.6758C136.051 20.8281 135.986 20.9512 135.986 21.0449C135.986 21.6191 136.098 21.9062 136.32 21.9062C136.414 21.9062 136.607 21.8477 136.9 21.7305C137.205 21.6016 137.381 21.5137 137.428 21.4668C137.475 21.4199 137.568 21.373 137.709 21.3262L138.043 21.1504C138.09 21.1035 138.143 21.0742 138.201 21.0625C138.26 21.0508 138.318 21.0156 138.377 20.957C138.436 20.8867 138.541 20.8164 138.693 20.7461C138.846 20.6641 138.963 20.5586 139.045 20.4297C139.244 20.3125 139.566 20.1309 140.012 19.8848L140.381 19.6035C140.639 19.4863 140.797 19.3867 140.855 19.3047C140.914 19.2227 141.031 19.1406 141.207 19.0586ZM149.873 21.9062L149.732 21.0098C149.732 20.9395 149.768 20.8281 149.838 20.6758C149.908 20.6758 149.967 20.6523 150.014 20.6055L149.908 20.2891C149.908 19.8789 150.02 19.5273 150.242 19.2344C150.477 18.9297 150.605 18.7246 150.629 18.6191C150.652 18.5137 150.816 18.1738 151.121 17.5996C151.438 17.0137 151.672 16.6387 151.824 16.4746L151.93 16.2461L152.07 16.2109C152.34 15.7773 152.721 15.3848 153.213 15.0332C153.377 14.7754 153.576 14.5645 153.811 14.4004C154.045 14.2363 154.203 14.1191 154.285 14.0488C154.367 13.9785 154.49 13.9316 154.654 13.9082L154.725 13.873C155.064 13.5332 155.357 13.3633 155.604 13.3633C155.686 13.2812 155.85 13.1875 156.096 13.082H156.289C156.359 13.082 156.43 13.0586 156.5 13.0117C156.57 12.9648 156.641 12.9414 156.711 12.9414C156.758 12.9414 156.881 12.9883 157.08 13.082C157.268 12.8945 157.42 12.8008 157.537 12.8008C157.783 12.8008 158.029 12.8945 158.275 13.082C158.533 13.2695 158.697 13.498 158.768 13.7676C158.838 14.0371 158.896 14.1953 158.943 14.2422C158.99 14.2891 159.037 14.3477 159.084 14.418C159.178 14.418 159.301 14.2012 159.453 13.7676L159.664 13.4863C159.98 13.0762 160.197 12.5957 160.314 12.0449C160.338 12.0215 160.373 11.9277 160.42 11.7637C160.467 11.5879 160.59 11.2949 160.789 10.8848C161.129 10.3926 161.369 9.88867 161.51 9.37305L161.721 9.05664C161.861 8.96289 161.938 8.86328 161.949 8.75781C161.961 8.64062 161.996 8.53516 162.055 8.44141C162.113 8.34766 162.178 8.23633 162.248 8.10742C162.33 7.9668 162.395 7.87305 162.441 7.82617C162.488 7.7793 162.559 7.62109 162.652 7.35156C162.746 7.07031 162.857 6.91211 162.986 6.87695C163.127 6.8418 163.268 6.77734 163.408 6.68359L163.443 6.56055L163.373 6.31445C163.373 6.17383 163.525 5.92773 163.83 5.57617C164.146 5.22461 164.369 4.9375 164.498 4.71484C164.639 4.48047 164.867 4.12891 165.184 3.66016C165.512 3.17969 165.746 2.88672 165.887 2.78125L166.291 2.35938C166.479 2.08984 166.742 1.95508 167.082 1.95508C167.34 1.95508 167.609 2.0957 167.891 2.37695C168.172 2.64648 168.312 2.91602 168.312 3.18555C168.312 3.2793 168.248 3.49609 168.119 3.83594L168.084 4.04688C168.084 4.23438 168.02 4.45703 167.891 4.71484C167.762 4.97266 167.686 5.17188 167.662 5.3125L166.678 7.7207C166.561 7.76758 166.49 7.80273 166.467 7.82617C166.162 8.49414 165.922 8.85742 165.746 8.91602V9.26758C165.746 9.39648 165.664 9.49023 165.5 9.54883L165.43 9.58398C165.324 10.0293 165.189 10.3516 165.025 10.5508C164.861 10.75 164.738 10.9551 164.656 11.166C164.586 11.3652 164.469 11.4766 164.305 11.5C164.141 11.5234 164.059 11.752 164.059 12.1855C164.012 12.4199 163.895 12.5371 163.707 12.5371C163.531 12.5371 163.42 12.6895 163.373 12.9941C163.326 13.2988 163.098 13.4629 162.688 13.4863C162.57 13.5566 162.5 13.6387 162.477 13.7324L162.617 14.1719C162.617 14.2422 162.4 14.5176 161.967 14.998L161.826 15.4551C161.604 15.5371 161.422 16.1406 161.281 17.2656L161.07 18.4785L161.105 18.9531L161.035 19.1992L161.246 19.9199L161.211 20.3242C161.211 20.5117 161.281 20.6055 161.422 20.6055C161.492 20.6055 161.65 20.5 161.896 20.2891L162.143 20.1836C162.881 19.8086 163.338 19.4453 163.514 19.0938C163.561 19.0469 163.643 19 163.76 18.9531C163.889 18.9062 163.982 18.8418 164.041 18.7598C164.1 18.6777 164.146 18.6191 164.182 18.584C164.896 18.1152 165.359 17.7051 165.57 17.3535C165.781 17.002 165.998 16.791 166.221 16.7207L166.361 16.5801C166.502 16.4629 166.619 16.4043 166.713 16.4043C166.912 16.4043 167.012 16.4629 167.012 16.5801L166.871 17.0723C166.988 17.3887 167.047 17.5703 167.047 17.6172C167.047 18.0273 166.865 18.2793 166.502 18.373C166.35 18.5254 166.227 18.7012 166.133 18.9004C166.051 19.0996 165.863 19.2227 165.57 19.2695C165.371 19.5508 165.189 19.7383 165.025 19.832C164.861 19.9141 164.779 20.002 164.779 20.0957V20.2539C164.686 20.3945 164.604 20.4883 164.533 20.5352L164.199 20.4648C164.152 20.6055 164.047 20.7988 163.883 21.0449C163.824 20.998 163.771 20.9746 163.725 20.9746C163.561 20.9746 163.426 21.0742 163.32 21.2734C163.215 21.4727 163.139 21.5723 163.092 21.5723H162.688C162.629 21.6074 162.535 21.6836 162.406 21.8008C162.277 21.918 162.061 21.9766 161.756 21.9766L161.211 22.082C160.695 22.082 160.221 21.918 159.787 21.5898C159.354 21.25 159.119 20.9453 159.084 20.6758C159.061 20.3945 158.967 20.0605 158.803 19.6738L158.768 18.9531C158.639 18.2031 158.492 17.8281 158.328 17.8281L158.293 18.0566L158.152 18.127C158.082 18.4902 157.965 18.6719 157.801 18.6719C157.73 18.707 157.654 18.7656 157.572 18.8477L157.467 18.918C157.42 18.9414 157.35 19.041 157.256 19.2168C157.174 19.3926 156.934 19.6387 156.535 19.9551C156.371 20.3887 156.248 20.6055 156.166 20.6055L155.955 20.4648H155.92C155.826 20.4648 155.75 20.6055 155.691 20.8867C155.633 21.1562 155.516 21.291 155.34 21.291C155.293 21.291 155.246 21.373 155.199 21.5371C155.164 21.6895 155.064 21.7891 154.9 21.8359C154.736 21.8711 154.59 22.0293 154.461 22.3105C154.332 22.5918 154.244 22.7324 154.197 22.7324C154.174 22.7324 154.139 22.7207 154.092 22.6973L153.793 22.7676C153.734 22.8496 153.652 22.9844 153.547 23.1719C153.441 23.207 153.348 23.2539 153.266 23.3125C152.902 23.6641 152.422 23.8398 151.824 23.8398C151.402 23.8398 151.068 23.752 150.822 23.5762C150.576 23.3887 150.43 23.2305 150.383 23.1016C150.336 22.9727 150.248 22.8145 150.119 22.627C149.99 22.4277 149.908 22.1875 149.873 21.9062ZM162.969 10.7793L162.793 11.2891C162.945 11.2656 163.08 11.1074 163.197 10.8145C163.549 10.3105 163.789 10 163.918 9.88281C164.07 9.88281 164.182 9.78906 164.252 9.60156C164.334 9.40234 164.475 9.20898 164.674 9.02148C164.674 8.93945 164.762 8.78125 164.938 8.54688C165.113 8.3125 165.225 8.14844 165.271 8.05469C165.33 7.94922 165.441 7.81445 165.605 7.65039C165.77 7.48633 165.922 7.20508 166.062 6.80664C166.215 6.4082 166.344 6.16797 166.449 6.08594C166.555 6.00391 166.607 5.83984 166.607 5.59375C166.607 5.25391 166.584 5.08398 166.537 5.08398C166.432 5.08398 166.35 5.1543 166.291 5.29492C166.244 5.42383 166.133 5.59375 165.957 5.80469L165.359 6.80664C165.125 7.20508 164.967 7.52148 164.885 7.75586C164.814 7.99023 164.727 8.13086 164.621 8.17773C164.527 8.21289 164.41 8.32422 164.27 8.51172L164.023 8.75781C163.965 8.89844 163.918 9.06836 163.883 9.26758L163.725 9.4082V9.74219C163.725 9.89453 163.637 10.0352 163.461 10.1641C163.285 10.2812 163.197 10.3574 163.197 10.3926L162.969 10.7793ZM156.887 17.916L157.01 17.6875C157.209 17.6172 157.338 17.4414 157.396 17.1602C157.49 17.0898 157.73 16.7852 158.117 16.2461C158.504 15.707 158.697 15.4082 158.697 15.3496C158.58 15.2324 158.445 15.1738 158.293 15.1738C158.27 15.1738 158.199 15.1973 158.082 15.2441C157.965 15.291 157.842 15.3262 157.713 15.3496C157.596 15.373 157.467 15.4199 157.326 15.4902L156.887 15.4199C156.758 15.4199 156.471 15.5898 156.025 15.9297L155.621 15.8594C155.551 15.8594 155.434 16.0117 155.27 16.3164L154.373 17.0371H154.268C154.104 17.0371 153.992 17.1836 153.934 17.4766C153.734 17.7344 153.547 17.916 153.371 18.0215C153.195 18.1152 153.072 18.2559 153.002 18.4434V18.6719C152.674 19.0352 152.51 19.3105 152.51 19.498C152.264 19.7324 152.1 19.9844 152.018 20.2539C151.947 20.5234 151.859 20.752 151.754 20.9395C151.801 21.1035 151.836 21.3086 151.859 21.5547C151.883 21.7891 152 21.9062 152.211 21.9062C152.551 21.9062 152.926 21.7012 153.336 21.291C153.359 21.2676 153.459 21.2031 153.635 21.0977C153.811 20.9922 154.051 20.7871 154.355 20.4824C154.672 20.166 154.848 20.002 154.883 19.9902C155 19.873 155.07 19.8145 155.094 19.8145L155.234 19.6738C155.234 19.627 155.281 19.5742 155.375 19.5156C155.48 19.457 155.615 19.3398 155.779 19.1641C155.943 18.9766 156.066 18.8652 156.148 18.8301C156.242 18.7949 156.307 18.748 156.342 18.6895C156.377 18.6191 156.436 18.5547 156.518 18.4961C156.6 18.4375 156.641 18.373 156.641 18.3027L156.676 18.0918L156.887 17.916ZM178.543 19.3398V19.5332L178.578 19.6738V19.7441C178.578 19.7676 178.555 19.9023 178.508 20.1484C178.332 20.3359 178.232 20.5996 178.209 20.9395L177.998 21.2559C177.998 21.4199 177.939 21.5488 177.822 21.6426C177.717 21.7363 177.623 21.9238 177.541 22.2051C177.459 22.4863 177.359 22.7852 177.242 23.1016L176.838 24.1035C176.838 24.1504 176.861 24.1738 176.908 24.1738C176.932 24.1738 176.967 24.1621 177.014 24.1387C177.072 24.1152 177.125 24.1035 177.172 24.1035C177.219 24.1035 177.266 24.1152 177.312 24.1387C177.359 24.1621 177.395 24.1738 177.418 24.1738C177.441 24.1738 177.523 24.1328 177.664 24.0508C177.816 23.9688 177.986 23.916 178.174 23.8926L178.824 23.7344C178.965 23.6875 179.252 23.6641 179.686 23.6641L180.23 23.6289C180.664 23.6289 181.098 23.7402 181.531 23.9629C181.977 24.1855 182.252 24.4199 182.357 24.666C182.475 24.9121 182.533 25.3105 182.533 25.8613C182.533 26.2949 182.387 26.5117 182.094 26.5117C181.918 26.5117 181.689 26.4004 181.408 26.1777C181.139 25.9551 180.951 25.6738 180.846 25.334C180.74 24.9941 180.57 24.8242 180.336 24.8242L179.896 24.6836L179.65 24.7539H179.58C179.533 24.7539 179.428 24.7188 179.264 24.6484H179.211L178.684 24.7891H177.963L177.629 24.9648C177.465 25.0117 177.283 25.0469 177.084 25.0703C176.896 25.0938 176.727 25.1406 176.574 25.2109C176.422 25.2812 176.346 25.3457 176.346 25.4043C176.346 25.7676 176.188 26.0781 175.871 26.3359C175.754 26.5234 175.689 26.6699 175.678 26.7754C175.666 26.8926 175.596 27.0156 175.467 27.1445C175.35 27.2852 175.221 27.4961 175.08 27.7773L174.939 28.0234C174.893 28.0938 174.869 28.1523 174.869 28.1992C174.869 28.2227 174.881 28.2695 174.904 28.3398V28.498C174.904 28.8262 174.711 29.1367 174.324 29.4297V29.6055C174.324 29.6992 174.23 29.834 174.043 30.0098L174.113 30.3613C174.113 30.4082 174.049 30.502 173.92 30.6426C173.791 30.7949 173.68 30.959 173.586 31.1348C173.504 31.3223 173.34 31.4863 173.094 31.627V31.7324L173.199 31.9434C173.234 31.9434 173.252 31.9668 173.252 32.0137C173.252 32.0957 173.164 32.2188 172.988 32.3828C172.941 32.5703 172.859 32.752 172.742 32.9277L172.021 33.8945C171.904 34.0586 171.846 34.1875 171.846 34.2812L171.723 34.6152C171.594 34.7207 171.5 34.8262 171.441 34.9316C171.395 35.0488 171.242 35.2715 170.984 35.5996C170.727 35.9277 170.557 36.0918 170.475 36.0918C170.545 36.2324 170.58 36.3145 170.58 36.3379C170.58 36.4785 170.486 36.6484 170.299 36.8477C169.994 36.8477 169.842 36.9121 169.842 37.041L169.93 37.3926C169.93 37.4395 169.865 37.5098 169.736 37.6035C169.607 37.6973 169.502 37.7441 169.42 37.7441H169.174L169.244 38.0605C169.197 38.1895 169.127 38.2773 169.033 38.3242C168.939 38.3711 168.781 38.5059 168.559 38.7285C168.348 38.9629 168.195 39.1035 168.102 39.1504L167.873 39.291L167.188 39.3613C167 39.3027 166.637 39.1094 166.098 38.7812C165.57 38.4531 165.271 38.1426 165.201 37.8496C165.119 37.5684 165.078 37.1641 165.078 36.6367C165.078 36.5781 165.137 36.4785 165.254 36.3379L165.289 36.1973V35.8633C165.289 35.8398 165.348 35.6289 165.465 35.2305C165.582 34.8438 165.682 34.627 165.764 34.5801C165.846 34.5449 165.975 34.3164 166.15 33.8945C166.326 33.4727 166.461 33.1973 166.555 33.0684L168.172 30.6953C168.172 30.543 168.195 30.4434 168.242 30.3965H168.348C168.441 30.3965 168.506 30.3613 168.541 30.291C168.576 30.2324 168.629 30.1621 168.699 30.0801C168.699 29.8574 168.799 29.6758 168.998 29.5352C169.209 29.3945 169.355 29.2363 169.438 29.0605C169.531 28.8965 169.637 28.7441 169.754 28.6035L169.789 28.498C169.836 28.4512 169.936 28.3926 170.088 28.3223C170.252 28.2637 170.346 28.1758 170.369 28.0586L170.967 27.4785C171.025 27.4316 171.119 27.373 171.248 27.3027C171.377 27.2324 171.512 27.1035 171.652 26.916L171.775 26.8633H171.881L171.951 26.8281C172.092 26.5234 172.232 26.3594 172.373 26.3359C172.525 26.3125 172.625 26.2773 172.672 26.2305C172.66 25.8672 172.865 25.6855 173.287 25.6855C173.381 25.6855 173.451 25.6621 173.498 25.6152L173.92 25.2812C173.979 25.2344 174.09 25.0059 174.254 24.5957V24.5605L174.57 24.6484L174.605 24.5605L174.535 24.1738C174.57 24.127 174.641 23.9688 174.746 23.6992C174.852 23.418 174.951 23.2539 175.045 23.207C175.139 23.1602 175.186 23.1074 175.186 23.0488V22.8379L175.15 22.627L175.221 22.4863V22.2578L175.256 22.1875C175.314 22.1289 175.385 21.9121 175.467 21.5371C175.514 21.4902 175.578 21.4434 175.66 21.3965L176.451 19.1641C176.475 19.1055 176.51 18.9531 176.557 18.707L176.697 18.5137C176.838 18.1387 176.908 17.8984 176.908 17.793C176.908 17.7461 176.885 17.7227 176.838 17.7227C176.791 17.7227 176.686 17.793 176.521 17.9336C176.357 18.0625 176.234 18.127 176.152 18.127L175.871 18.0566H175.801C175.73 18.0566 175.631 18.1152 175.502 18.2324C175.385 18.3496 175.314 18.4082 175.291 18.4082L175.08 18.4434C174.963 18.6426 174.857 18.7539 174.764 18.7773L174.324 19.0586H174.289L174.043 18.8828C174.043 18.8594 174.014 18.8477 173.955 18.8477C173.908 18.8477 173.838 18.9883 173.744 19.2695L173.199 19.5332C173.082 19.5098 173.012 19.498 172.988 19.498C172.871 19.498 172.76 19.6094 172.654 19.832C172.549 20.043 172.408 20.1602 172.232 20.1836C172.139 20.2891 171.922 20.3711 171.582 20.4297L170.545 21.1504C170.428 21.1973 170.346 21.2559 170.299 21.3262C170.053 21.3496 169.824 21.4844 169.613 21.7305L169.139 21.6953C169.021 21.6953 168.904 21.7715 168.787 21.9238C168.682 22.0762 168.57 22.1523 168.453 22.1523H168.348L168.137 22.1172L167.557 22.2578C167.393 22.2578 167.141 22.1348 166.801 21.8887C166.461 21.6309 166.291 21.4082 166.291 21.2207L166.186 20.4297C166.186 20.4062 166.232 20.3242 166.326 20.1836C166.42 20.043 166.467 19.9434 166.467 19.8848C166.467 19.8613 166.455 19.8145 166.432 19.7441V19.6035C166.432 19.1934 166.578 18.7012 166.871 18.127V18.0566C166.871 18.0098 166.836 17.9863 166.766 17.9863C166.613 17.9863 166.484 18.1152 166.379 18.373C166.273 18.6191 166.15 18.7949 166.01 18.9004C165.869 19.0059 165.764 19.0938 165.693 19.1641C165.635 19.2344 165.582 19.2695 165.535 19.2695C165.465 19.2227 165.383 19.1875 165.289 19.1641C165.266 19.1406 165.225 19.0703 165.166 18.9531C165.107 18.8359 165.02 18.7422 164.902 18.6719C164.773 18.5898 164.709 18.4551 164.709 18.2676C164.709 18.1387 164.879 17.9688 165.219 17.7578L165.43 17.5469C165.969 17.0078 166.332 16.7207 166.52 16.6855L166.625 16.4395C166.789 16.3105 166.988 16.1348 167.223 15.9121C167.469 15.6777 167.686 15.5137 167.873 15.4199L168.822 14.5938C169.104 14.3359 169.49 14.207 169.982 14.207C170.357 14.207 170.545 14.4473 170.545 14.9277C170.545 15.4082 170.457 15.7832 170.281 16.0527C170.117 16.3105 170.012 16.5508 169.965 16.7734C169.93 16.9844 169.777 17.2715 169.508 17.6348C169.238 17.9863 169.074 18.25 169.016 18.4258C168.957 18.5898 168.834 18.8242 168.646 19.1289C168.471 19.4219 168.383 19.6855 168.383 19.9199C168.383 20.0371 168.453 20.0957 168.594 20.0957C168.793 20.0957 169.045 19.9902 169.35 19.7793L169.508 19.709C169.625 19.6621 169.742 19.6035 169.859 19.5332L170.299 19.3398C170.381 19.1641 170.51 19.0469 170.686 18.9883L171.02 18.8125C171.184 18.7422 171.383 18.6543 171.617 18.5488C171.863 18.4316 172.021 18.3203 172.092 18.2148C172.162 18.1094 172.25 18.0273 172.355 17.9688C172.473 17.8984 172.602 17.793 172.742 17.6523C173.047 17.6523 173.469 17.3887 174.008 16.8613C174.547 16.5449 175.051 16.2344 175.52 15.9297C175.988 15.6133 176.299 15.3848 176.451 15.2441C176.521 15.1973 176.645 15.1328 176.82 15.0508C177.008 14.9688 177.213 14.8398 177.436 14.6641C177.67 14.4766 177.963 14.3828 178.314 14.3828C178.619 14.3828 178.912 14.5 179.193 14.7344C179.475 14.957 179.615 15.1797 179.615 15.4023L179.58 16.2461C179.58 16.7852 179.434 17.2422 179.141 17.6172C179.07 18.0859 178.988 18.4082 178.895 18.584L178.93 18.9883C178.93 19.0586 178.801 19.1758 178.543 19.3398ZM170.211 32.8047L170.299 32.5586C170.322 32.4766 170.404 32.3945 170.545 32.3125C170.662 31.8086 170.82 31.4805 171.02 31.3281C171.02 31.0703 171.031 30.9238 171.055 30.8887L171.301 30.6602L171.986 29.5C172.057 29.3359 172.133 29.1777 172.215 29.0254C172.297 28.8848 172.361 28.7441 172.408 28.6035C172.408 28.4395 172.602 28.1172 172.988 27.6367V27.5137C172.988 27.3496 172.953 27.2676 172.883 27.2676C172.812 27.3496 172.695 27.4316 172.531 27.5137L171.406 28.4629C171.348 28.5098 171.189 28.6973 170.932 29.0254L170.598 29.377C170.41 29.5762 170.264 29.6992 170.158 29.7461C170.064 29.8047 169.941 29.9746 169.789 30.2559C169.648 30.5488 169.525 30.6953 169.42 30.6953H169.35C169.338 30.6953 169.279 30.666 169.174 30.6074C169.104 30.6426 169.068 30.6953 169.068 30.7656L169.174 31.1875C169.174 31.2344 169.127 31.3047 169.033 31.3984C168.939 31.5039 168.857 31.6152 168.787 31.7324C168.729 31.8496 168.664 31.9199 168.594 31.9434C168.523 31.9668 168.395 32.1836 168.207 32.5938L167.873 32.7695C167.838 33.4609 167.621 34.0176 167.223 34.4395C167.129 34.627 167.053 34.8086 166.994 34.9844C166.936 35.1719 166.883 35.2891 166.836 35.3359C166.766 35.7695 166.643 36.0215 166.467 36.0918C166.42 36.1152 166.396 36.1504 166.396 36.1973C166.396 36.2676 166.449 36.3379 166.555 36.4082L166.625 36.4785C166.473 36.9355 166.396 37.2754 166.396 37.498C166.396 37.5449 166.42 37.5684 166.467 37.5684L166.994 37.3047C167.369 37.1289 167.621 36.9062 167.75 36.6367L168.031 36.0918C168.078 36.0215 168.16 35.9746 168.277 35.9512C168.348 35.7051 168.459 35.5469 168.611 35.4766C168.775 35.4062 168.857 35.3125 168.857 35.1953C168.857 35.0781 169.074 34.6738 169.508 33.9824C169.953 33.291 170.188 32.8984 170.211 32.8047ZM202.625 7.7207L202.449 7.86133L201.975 8.72266C201.951 8.79297 201.904 8.86914 201.834 8.95117L201.605 9.26758C201.535 9.51367 201.436 9.71289 201.307 9.86523C201.178 10.0176 201.096 10.1699 201.061 10.3223C201.025 10.4629 200.967 10.5742 200.885 10.6562C200.814 10.7383 200.732 10.9727 200.639 11.3594L200.252 12.5371L200.023 12.8359V13.0469C200.023 13.1172 199.93 13.2109 199.742 13.3281V13.9434C199.613 14.1191 199.479 14.3477 199.338 14.6289L199.18 15.8066C199.062 16.8496 198.893 17.4648 198.67 17.6523L198.441 17.8633C198.383 17.9922 198.266 18.0566 198.09 18.0566C197.996 18.0566 197.791 17.8984 197.475 17.582L197.264 17.5117C197.064 17.418 196.865 17.1953 196.666 16.8438C196.479 16.4922 196.385 16.1641 196.385 15.8594C196.385 15.4492 196.438 15.1562 196.543 14.9805C196.66 14.793 196.725 14.6523 196.736 14.5586L197.633 12.2031C197.984 11.2656 198.365 10.4922 198.775 9.88281L199.021 9.19727L199.197 8.98633L199.373 8.30078C199.42 8.25391 199.496 8.18945 199.602 8.10742C199.777 7.52148 199.947 7.13477 200.111 6.94727C200.275 6.74805 200.393 6.51367 200.463 6.24414C200.533 5.97461 200.621 5.81055 200.727 5.75195C200.832 5.69336 200.914 5.50586 200.973 5.18945C201.043 4.87305 201.266 4.66211 201.641 4.55664L201.535 4.32812V4.29297C201.535 4.26953 201.605 4.16406 201.746 3.97656C201.898 3.78906 202.109 3.29102 202.379 2.48242C202.66 1.67383 203.018 1.26953 203.451 1.26953C203.674 1.26953 203.99 1.5625 204.4 2.14844C204.822 2.72266 205.033 3.15039 205.033 3.43164C205.033 3.79492 204.805 4.24609 204.348 4.78516C203.891 5.32422 203.533 5.83398 203.275 6.31445C203.029 6.79492 202.871 7.14062 202.801 7.35156C202.742 7.55078 202.684 7.67383 202.625 7.7207ZM197.51 19.6035L197.65 19.7441C197.885 19.9785 198.014 20.166 198.037 20.3066C198.072 20.4355 198.137 20.5762 198.23 20.7285C198.324 20.8691 198.371 20.998 198.371 21.1152C198.371 21.1621 198.301 21.2734 198.16 21.4492C198.02 21.6133 197.902 21.9824 197.809 22.5566C197.727 23.1309 197.434 23.418 196.93 23.418C196.496 23.418 196.186 23.3066 195.998 23.084C195.799 23.084 195.664 23.0605 195.594 23.0137C195.535 22.9551 195.43 22.7676 195.277 22.4512C195.137 22.1348 195.014 21.9238 194.908 21.8184C194.814 21.7129 194.768 21.5605 194.768 21.3613C194.768 21.1035 194.861 20.8633 195.049 20.6406C195.236 20.4062 195.371 20.166 195.453 19.9199C195.816 19.5566 196.062 19.3691 196.191 19.3574C196.32 19.3457 196.426 19.3223 196.508 19.2871C196.602 19.252 196.707 19.2344 196.824 19.2344C197.035 19.2344 197.264 19.3574 197.51 19.6035Z" fill="#F7F3F3"/>
</svg>
