<svg width="320" height="170" viewBox="0 0 320 170" fill="none" xmlns="http://www.w3.org/2000/svg">
<g clip-path="url(#clip0_1_1813)">
<rect width="320" height="170" rx="5" fill="#003049"/>
<circle opacity="0.22" cx="351" cy="84" r="100" fill="#DBDBDB"/>
<circle opacity="0.22" cx="314" cy="133" r="82" fill="#D92F25"/>
<circle opacity="0.2" cx="332" cy="11" r="100" fill="#EF6A09"/>
<path d="M47.878 29L44.42 19.13H45.624L48.41 27.32L51.266 19.13H52.19L55.018 27.39L57.86 19.13H59.008L55.55 29H54.528L51.714 20.88L48.872 29H47.878ZM62.7179 29.126C61.6446 29.126 60.7952 28.8133 60.1699 28.188C59.5446 27.5533 59.2319 26.6947 59.2319 25.612C59.2319 24.912 59.3719 24.296 59.6519 23.764C59.9319 23.2227 60.3146 22.8073 60.7999 22.518C61.2946 22.2193 61.8639 22.07 62.5079 22.07C63.4319 22.07 64.1552 22.3687 64.6779 22.966C65.2006 23.554 65.4619 24.366 65.4619 25.402V25.836H60.3379C60.3752 26.6107 60.5992 27.2033 61.0099 27.614C61.4206 28.0153 61.9899 28.216 62.7179 28.216C63.1286 28.216 63.5206 28.1553 63.8939 28.034C64.2672 27.9033 64.6219 27.6933 64.9579 27.404L65.3499 28.202C65.0419 28.4913 64.6499 28.72 64.1739 28.888C63.6979 29.0467 63.2126 29.126 62.7179 29.126ZM62.5359 22.91C61.8919 22.91 61.3832 23.1107 61.0099 23.512C60.6366 23.9133 60.4172 24.4407 60.3519 25.094H64.4819C64.4539 24.4033 64.2719 23.8667 63.9359 23.484C63.6092 23.1013 63.1426 22.91 62.5359 22.91ZM67.1311 29V22.196H68.2371V23.344C68.4424 22.9333 68.7271 22.6207 69.0911 22.406C69.4551 22.182 69.8797 22.07 70.3651 22.07C71.4291 22.07 72.1104 22.532 72.4091 23.456C72.6144 23.0267 72.9177 22.6907 73.3191 22.448C73.7204 22.196 74.1824 22.07 74.7051 22.07C76.2171 22.07 76.9731 22.966 76.9731 24.758V29H75.8391V24.814C75.8391 24.1887 75.7271 23.7313 75.5031 23.442C75.2884 23.1433 74.9291 22.994 74.4251 22.994C73.8744 22.994 73.4357 23.19 73.1091 23.582C72.7824 23.974 72.6191 24.4967 72.6191 25.15V29H71.4851V24.814C71.4851 24.1887 71.3731 23.7313 71.1491 23.442C70.9344 23.1433 70.5751 22.994 70.0711 22.994C69.5111 22.994 69.0677 23.19 68.7411 23.582C68.4237 23.974 68.2651 24.4967 68.2651 25.15V29H67.1311ZM81.2353 29.126C80.7686 29.126 80.3486 29.0373 79.9753 28.86C79.6113 28.6733 79.322 28.4213 79.1073 28.104C78.8926 27.7867 78.7853 27.432 78.7853 27.04C78.7853 26.5453 78.9113 26.1533 79.1633 25.864C79.4246 25.5747 79.8493 25.3693 80.4373 25.248C81.0346 25.1173 81.8466 25.052 82.8733 25.052H83.3213V24.618C83.3213 24.0393 83.2 23.624 82.9573 23.372C82.724 23.1107 82.346 22.98 81.8233 22.98C81.4126 22.98 81.016 23.0407 80.6333 23.162C80.2506 23.274 79.8586 23.4607 79.4573 23.722L79.0653 22.896C79.42 22.644 79.8493 22.4433 80.3533 22.294C80.8666 22.1447 81.3566 22.07 81.8233 22.07C82.7006 22.07 83.3493 22.2847 83.7693 22.714C84.1986 23.1433 84.4133 23.8107 84.4133 24.716V29H83.3493V27.824C83.172 28.2253 82.8966 28.5427 82.5233 28.776C82.1593 29.0093 81.73 29.126 81.2353 29.126ZM81.4173 28.272C81.9773 28.272 82.4346 28.0807 82.7893 27.698C83.144 27.306 83.3213 26.8113 83.3213 26.214V25.794H82.8873C82.1313 25.794 81.534 25.8313 81.0953 25.906C80.666 25.9713 80.3626 26.0927 80.1853 26.27C80.0173 26.438 79.9333 26.6713 79.9333 26.97C79.9333 27.3527 80.064 27.6653 80.3253 27.908C80.596 28.1507 80.96 28.272 81.4173 28.272ZM90.2668 29V19.13H94.2148C95.2322 19.13 96.0162 19.3587 96.5668 19.816C97.1268 20.264 97.4068 20.894 97.4068 21.706C97.4068 22.2473 97.2668 22.7093 96.9868 23.092C96.7068 23.4747 96.3195 23.7547 95.8248 23.932C96.3942 24.0813 96.8375 24.3567 97.1548 24.758C97.4815 25.1593 97.6448 25.668 97.6448 26.284C97.6448 27.1613 97.3602 27.8333 96.7908 28.3C96.2215 28.7667 95.4188 29 94.3828 29H90.2668ZM91.3868 23.54H94.0468C95.5308 23.54 96.2728 22.9613 96.2728 21.804C96.2728 20.6373 95.5308 20.054 94.0468 20.054H91.3868V23.54ZM91.3868 28.076H94.2708C95.7642 28.076 96.5108 27.474 96.5108 26.27C96.5108 25.066 95.7642 24.464 94.2708 24.464H91.3868V28.076ZM101.716 29.126C101.249 29.126 100.829 29.0373 100.456 28.86C100.092 28.6733 99.8024 28.4213 99.5878 28.104C99.3731 27.7867 99.2658 27.432 99.2658 27.04C99.2658 26.5453 99.3918 26.1533 99.6438 25.864C99.9051 25.5747 100.33 25.3693 100.918 25.248C101.515 25.1173 102.327 25.052 103.354 25.052H103.802V24.618C103.802 24.0393 103.68 23.624 103.438 23.372C103.204 23.1107 102.826 22.98 102.304 22.98C101.893 22.98 101.496 23.0407 101.114 23.162C100.731 23.274 100.339 23.4607 99.9378 23.722L99.5458 22.896C99.9004 22.644 100.33 22.4433 100.834 22.294C101.347 22.1447 101.837 22.07 102.304 22.07C103.181 22.07 103.83 22.2847 104.25 22.714C104.679 23.1433 104.894 23.8107 104.894 24.716V29H103.83V27.824C103.652 28.2253 103.377 28.5427 103.004 28.776C102.64 29.0093 102.21 29.126 101.716 29.126ZM101.898 28.272C102.458 28.272 102.915 28.0807 103.27 27.698C103.624 27.306 103.802 26.8113 103.802 26.214V25.794H103.368C102.612 25.794 102.014 25.8313 101.576 25.906C101.146 25.9713 100.843 26.0927 100.666 26.27C100.498 26.438 100.414 26.6713 100.414 26.97C100.414 27.3527 100.544 27.6653 100.806 27.908C101.076 28.1507 101.44 28.272 101.898 28.272ZM106.998 29V22.196H108.104V23.358C108.328 22.9287 108.645 22.6067 109.056 22.392C109.466 22.1773 109.928 22.07 110.442 22.07C112.056 22.07 112.864 22.966 112.864 24.758V29H111.73V24.828C111.73 24.1933 111.604 23.7313 111.352 23.442C111.109 23.1433 110.717 22.994 110.176 22.994C109.55 22.994 109.051 23.19 108.678 23.582C108.314 23.9647 108.132 24.478 108.132 25.122V29H106.998ZM114.955 29V19.13H116.089V25.22H116.117L119.267 22.196H120.709L117.293 25.472L121.003 29H119.561L116.117 25.808H116.089V29H114.955Z" fill="white"/>
<g filter="url(#filter0_d_1_1813)">
<path d="M25.53 90V88.614L29.76 84.078C30.348 83.442 30.768 82.866 31.02 82.35C31.284 81.834 31.416 81.312 31.416 80.784C31.416 79.416 30.612 78.732 29.004 78.732C27.78 78.732 26.682 79.194 25.71 80.118L25.044 78.696C25.524 78.228 26.136 77.856 26.88 77.58C27.624 77.292 28.398 77.148 29.202 77.148C30.51 77.148 31.512 77.448 32.208 78.048C32.916 78.648 33.27 79.506 33.27 80.622C33.27 81.378 33.084 82.116 32.712 82.836C32.352 83.556 31.782 84.324 31.002 85.14L27.87 88.434H33.774V90H25.53ZM39.995 90.162C39.143 90.162 38.333 90.036 37.565 89.784C36.797 89.52 36.155 89.154 35.639 88.686L36.287 87.246C36.851 87.702 37.433 88.038 38.033 88.254C38.633 88.47 39.269 88.578 39.941 88.578C40.805 88.578 41.459 88.392 41.903 88.02C42.359 87.648 42.587 87.114 42.587 86.418C42.587 85.722 42.359 85.206 41.903 84.87C41.459 84.534 40.811 84.366 39.959 84.366H37.997V82.8H39.779C40.535 82.8 41.129 82.608 41.561 82.224C42.005 81.84 42.227 81.312 42.227 80.64C42.227 80.028 42.023 79.56 41.615 79.236C41.207 78.9 40.625 78.732 39.869 78.732C38.585 78.732 37.463 79.194 36.503 80.118L35.855 78.696C36.347 78.204 36.959 77.826 37.691 77.562C38.435 77.286 39.209 77.148 40.013 77.148C41.285 77.148 42.275 77.442 42.983 78.03C43.691 78.606 44.045 79.41 44.045 80.442C44.045 81.138 43.865 81.75 43.505 82.278C43.157 82.806 42.671 83.19 42.047 83.43C42.803 83.622 43.385 83.994 43.793 84.546C44.201 85.086 44.405 85.752 44.405 86.544C44.405 87.66 44.009 88.542 43.217 89.19C42.437 89.838 41.363 90.162 39.995 90.162ZM52.1379 90V87.426H46.4319V86.04L52.4619 77.31H53.9919V85.86H55.8459V87.426H53.9919V90H52.1379ZM52.1379 85.86V80.226L48.2859 85.86H52.1379ZM61.9769 90.162C61.1609 90.162 60.3689 90.036 59.6009 89.784C58.8449 89.52 58.2149 89.154 57.7109 88.686L58.3409 87.246C59.4449 88.134 60.6449 88.578 61.9409 88.578C62.7689 88.578 63.4169 88.356 63.8849 87.912C64.3529 87.456 64.5869 86.862 64.5869 86.13C64.5869 85.374 64.3649 84.756 63.9209 84.276C63.4769 83.796 62.8589 83.556 62.0669 83.556C60.9509 83.556 60.0569 84.018 59.3849 84.942H58.0889V77.31H65.6489V78.876H59.9069V82.89C60.5789 82.302 61.4309 82.008 62.4629 82.008C63.2669 82.008 63.9629 82.176 64.5509 82.512C65.1389 82.848 65.5949 83.322 65.9189 83.934C66.2429 84.534 66.4049 85.236 66.4049 86.04C66.4049 86.856 66.2249 87.576 65.8649 88.2C65.5049 88.812 64.9949 89.292 64.3349 89.64C63.6749 89.988 62.8889 90.162 61.9769 90.162Z" fill="white"/>
<path d="M84.85 90.162C83.314 90.162 82.126 89.616 81.286 88.524C80.458 87.432 80.044 85.902 80.044 83.934C80.044 81.762 80.512 80.088 81.448 78.912C82.384 77.736 83.68 77.148 85.336 77.148C85.984 77.148 86.638 77.28 87.298 77.544C87.958 77.796 88.51 78.156 88.954 78.624L88.306 80.028C87.874 79.596 87.394 79.272 86.866 79.056C86.35 78.84 85.828 78.732 85.3 78.732C84.184 78.732 83.326 79.14 82.726 79.956C82.138 80.76 81.844 81.966 81.844 83.574V84.294C82.084 83.562 82.498 82.992 83.086 82.584C83.686 82.164 84.376 81.954 85.156 81.954C85.9 81.954 86.554 82.128 87.118 82.476C87.694 82.824 88.144 83.304 88.468 83.916C88.792 84.516 88.954 85.206 88.954 85.986C88.954 86.802 88.78 87.528 88.432 88.164C88.084 88.788 87.598 89.28 86.974 89.64C86.362 89.988 85.654 90.162 84.85 90.162ZM84.742 88.65C85.474 88.65 86.068 88.41 86.524 87.93C86.98 87.45 87.208 86.826 87.208 86.058C87.208 85.29 86.98 84.666 86.524 84.186C86.068 83.706 85.474 83.466 84.742 83.466C84.01 83.466 83.416 83.706 82.96 84.186C82.504 84.666 82.276 85.29 82.276 86.058C82.276 86.826 82.504 87.45 82.96 87.93C83.416 88.41 84.01 88.65 84.742 88.65ZM95.643 90.162C94.107 90.162 92.919 89.616 92.079 88.524C91.251 87.432 90.837 85.902 90.837 83.934C90.837 81.762 91.305 80.088 92.241 78.912C93.177 77.736 94.473 77.148 96.129 77.148C96.777 77.148 97.431 77.28 98.091 77.544C98.751 77.796 99.303 78.156 99.747 78.624L99.099 80.028C98.667 79.596 98.187 79.272 97.659 79.056C97.143 78.84 96.621 78.732 96.093 78.732C94.977 78.732 94.119 79.14 93.519 79.956C92.931 80.76 92.637 81.966 92.637 83.574V84.294C92.877 83.562 93.291 82.992 93.879 82.584C94.479 82.164 95.169 81.954 95.949 81.954C96.693 81.954 97.347 82.128 97.911 82.476C98.487 82.824 98.937 83.304 99.261 83.916C99.585 84.516 99.747 85.206 99.747 85.986C99.747 86.802 99.573 87.528 99.225 88.164C98.877 88.788 98.391 89.28 97.767 89.64C97.155 89.988 96.447 90.162 95.643 90.162ZM95.535 88.65C96.267 88.65 96.861 88.41 97.317 87.93C97.773 87.45 98.001 86.826 98.001 86.058C98.001 85.29 97.773 84.666 97.317 84.186C96.861 83.706 96.267 83.466 95.535 83.466C94.803 83.466 94.209 83.706 93.753 84.186C93.297 84.666 93.069 85.29 93.069 86.058C93.069 86.826 93.297 87.45 93.753 87.93C94.209 88.41 94.803 88.65 95.535 88.65ZM106.436 90.162C104.9 90.162 103.712 89.616 102.872 88.524C102.044 87.432 101.63 85.902 101.63 83.934C101.63 81.762 102.098 80.088 103.034 78.912C103.97 77.736 105.266 77.148 106.922 77.148C107.57 77.148 108.224 77.28 108.884 77.544C109.544 77.796 110.096 78.156 110.54 78.624L109.892 80.028C109.46 79.596 108.98 79.272 108.452 79.056C107.936 78.84 107.414 78.732 106.886 78.732C105.77 78.732 104.912 79.14 104.312 79.956C103.724 80.76 103.43 81.966 103.43 83.574V84.294C103.67 83.562 104.084 82.992 104.672 82.584C105.272 82.164 105.962 81.954 106.742 81.954C107.486 81.954 108.14 82.128 108.704 82.476C109.28 82.824 109.73 83.304 110.054 83.916C110.378 84.516 110.54 85.206 110.54 85.986C110.54 86.802 110.366 87.528 110.018 88.164C109.67 88.788 109.184 89.28 108.56 89.64C107.948 89.988 107.24 90.162 106.436 90.162ZM106.328 88.65C107.06 88.65 107.654 88.41 108.11 87.93C108.566 87.45 108.794 86.826 108.794 86.058C108.794 85.29 108.566 84.666 108.11 84.186C107.654 83.706 107.06 83.466 106.328 83.466C105.596 83.466 105.002 83.706 104.546 84.186C104.09 84.666 103.862 85.29 103.862 86.058C103.862 86.826 104.09 87.45 104.546 87.93C105.002 88.41 105.596 88.65 106.328 88.65ZM117.229 90.162C115.693 90.162 114.505 89.616 113.665 88.524C112.837 87.432 112.423 85.902 112.423 83.934C112.423 81.762 112.891 80.088 113.827 78.912C114.763 77.736 116.059 77.148 117.715 77.148C118.363 77.148 119.017 77.28 119.677 77.544C120.337 77.796 120.889 78.156 121.333 78.624L120.685 80.028C120.253 79.596 119.773 79.272 119.245 79.056C118.729 78.84 118.207 78.732 117.679 78.732C116.563 78.732 115.705 79.14 115.105 79.956C114.517 80.76 114.223 81.966 114.223 83.574V84.294C114.463 83.562 114.877 82.992 115.465 82.584C116.065 82.164 116.755 81.954 117.535 81.954C118.279 81.954 118.933 82.128 119.497 82.476C120.073 82.824 120.523 83.304 120.847 83.916C121.171 84.516 121.333 85.206 121.333 85.986C121.333 86.802 121.159 87.528 120.811 88.164C120.463 88.788 119.977 89.28 119.353 89.64C118.741 89.988 118.033 90.162 117.229 90.162ZM117.121 88.65C117.853 88.65 118.447 88.41 118.903 87.93C119.359 87.45 119.587 86.826 119.587 86.058C119.587 85.29 119.359 84.666 118.903 84.186C118.447 83.706 117.853 83.466 117.121 83.466C116.389 83.466 115.795 83.706 115.339 84.186C114.883 84.666 114.655 85.29 114.655 86.058C114.655 86.826 114.883 87.45 115.339 87.93C115.795 88.41 116.389 88.65 117.121 88.65Z" fill="white"/>
<path d="M139.598 90.162C138.782 90.162 137.99 90.036 137.222 89.784C136.466 89.52 135.836 89.154 135.332 88.686L135.962 87.246C137.066 88.134 138.266 88.578 139.562 88.578C140.39 88.578 141.038 88.356 141.506 87.912C141.974 87.456 142.208 86.862 142.208 86.13C142.208 85.374 141.986 84.756 141.542 84.276C141.098 83.796 140.48 83.556 139.688 83.556C138.572 83.556 137.678 84.018 137.006 84.942H135.71V77.31H143.27V78.876H137.528V82.89C138.2 82.302 139.052 82.008 140.084 82.008C140.888 82.008 141.584 82.176 142.172 82.512C142.76 82.848 143.216 83.322 143.54 83.934C143.864 84.534 144.026 85.236 144.026 86.04C144.026 86.856 143.846 87.576 143.486 88.2C143.126 88.812 142.616 89.292 141.956 89.64C141.296 89.988 140.51 90.162 139.598 90.162ZM151.345 90V87.426H145.639V86.04L151.669 77.31H153.199V85.86H155.053V87.426H153.199V90H151.345ZM151.345 85.86V80.226L147.493 85.86H151.345ZM160.788 90.162C159.936 90.162 159.126 90.036 158.358 89.784C157.59 89.52 156.948 89.154 156.432 88.686L157.08 87.246C157.644 87.702 158.226 88.038 158.826 88.254C159.426 88.47 160.062 88.578 160.734 88.578C161.598 88.578 162.252 88.392 162.696 88.02C163.152 87.648 163.38 87.114 163.38 86.418C163.38 85.722 163.152 85.206 162.696 84.87C162.252 84.534 161.604 84.366 160.752 84.366H158.79V82.8H160.572C161.328 82.8 161.922 82.608 162.354 82.224C162.798 81.84 163.02 81.312 163.02 80.64C163.02 80.028 162.816 79.56 162.408 79.236C162 78.9 161.418 78.732 160.662 78.732C159.378 78.732 158.256 79.194 157.296 80.118L156.648 78.696C157.14 78.204 157.752 77.826 158.484 77.562C159.228 77.286 160.002 77.148 160.806 77.148C162.078 77.148 163.068 77.442 163.776 78.03C164.484 78.606 164.838 79.41 164.838 80.442C164.838 81.138 164.658 81.75 164.298 82.278C163.95 82.806 163.464 83.19 162.84 83.43C163.596 83.622 164.178 83.994 164.586 84.546C164.994 85.086 165.198 85.752 165.198 86.544C165.198 87.66 164.802 88.542 164.01 89.19C163.23 89.838 162.156 90.162 160.788 90.162ZM167.909 90V88.614L172.139 84.078C172.727 83.442 173.147 82.866 173.399 82.35C173.663 81.834 173.795 81.312 173.795 80.784C173.795 79.416 172.991 78.732 171.383 78.732C170.159 78.732 169.061 79.194 168.089 80.118L167.423 78.696C167.903 78.228 168.515 77.856 169.259 77.58C170.003 77.292 170.777 77.148 171.581 77.148C172.889 77.148 173.891 77.448 174.587 78.048C175.295 78.648 175.649 79.506 175.649 80.622C175.649 81.378 175.463 82.116 175.091 82.836C174.731 83.556 174.161 84.324 173.381 85.14L170.249 88.434H176.153V90H167.909Z" fill="white"/>
<path d="M191.106 91V89.434H193.986V80.47L191.736 81.874L190.98 80.488L194.526 78.31H195.84V89.434H198.54V91H191.106ZM201.323 91V89.614L205.553 85.078C206.141 84.442 206.561 83.866 206.813 83.35C207.077 82.834 207.209 82.312 207.209 81.784C207.209 80.416 206.405 79.732 204.797 79.732C203.573 79.732 202.475 80.194 201.503 81.118L200.837 79.696C201.317 79.228 201.929 78.856 202.673 78.58C203.417 78.292 204.191 78.148 204.995 78.148C206.303 78.148 207.305 78.448 208.001 79.048C208.709 79.648 209.063 80.506 209.063 81.622C209.063 82.378 208.877 83.116 208.505 83.836C208.145 84.556 207.575 85.324 206.795 86.14L203.663 89.434H209.567V91H201.323ZM215.788 91.162C214.936 91.162 214.126 91.036 213.358 90.784C212.59 90.52 211.948 90.154 211.432 89.686L212.08 88.246C212.644 88.702 213.226 89.038 213.826 89.254C214.426 89.47 215.062 89.578 215.734 89.578C216.598 89.578 217.252 89.392 217.696 89.02C218.152 88.648 218.38 88.114 218.38 87.418C218.38 86.722 218.152 86.206 217.696 85.87C217.252 85.534 216.604 85.366 215.752 85.366H213.79V83.8H215.572C216.328 83.8 216.922 83.608 217.354 83.224C217.798 82.84 218.02 82.312 218.02 81.64C218.02 81.028 217.816 80.56 217.408 80.236C217 79.9 216.418 79.732 215.662 79.732C214.378 79.732 213.256 80.194 212.296 81.118L211.648 79.696C212.14 79.204 212.752 78.826 213.484 78.562C214.228 78.286 215.002 78.148 215.806 78.148C217.078 78.148 218.068 78.442 218.776 79.03C219.484 79.606 219.838 80.41 219.838 81.442C219.838 82.138 219.658 82.75 219.298 83.278C218.95 83.806 218.464 84.19 217.84 84.43C218.596 84.622 219.178 84.994 219.586 85.546C219.994 86.086 220.198 86.752 220.198 87.544C220.198 88.66 219.802 89.542 219.01 90.19C218.23 90.838 217.156 91.162 215.788 91.162ZM222.909 91V89.614L227.139 85.078C227.727 84.442 228.147 83.866 228.399 83.35C228.663 82.834 228.795 82.312 228.795 81.784C228.795 80.416 227.991 79.732 226.383 79.732C225.159 79.732 224.061 80.194 223.089 81.118L222.423 79.696C222.903 79.228 223.515 78.856 224.259 78.58C225.003 78.292 225.777 78.148 226.581 78.148C227.889 78.148 228.891 78.448 229.587 79.048C230.295 79.648 230.649 80.506 230.649 81.622C230.649 82.378 230.463 83.116 230.091 83.836C229.731 84.556 229.161 85.324 228.381 86.14L225.249 89.434H231.153V91H222.909Z" fill="white"/>
</g>
<path d="M23.93 145.098L23.86 144.342L24.644 144.286C25.1387 144.249 25.5213 144.067 25.792 143.74C26.0627 143.413 26.198 142.979 26.198 142.438V135.13H27.066V142.452C27.066 143.227 26.8653 143.838 26.464 144.286C26.0627 144.734 25.484 144.986 24.728 145.042L23.93 145.098ZM33.64 145.112C32.7347 145.112 31.9507 144.907 31.288 144.496C30.6347 144.085 30.126 143.502 29.762 142.746C29.4073 141.99 29.23 141.094 29.23 140.058C29.23 139.022 29.4073 138.126 29.762 137.37C30.1167 136.614 30.6253 136.035 31.288 135.634C31.9507 135.223 32.7347 135.018 33.64 135.018C34.5547 135.018 35.3387 135.223 35.992 135.634C36.6547 136.035 37.1633 136.614 37.518 137.37C37.882 138.117 38.064 139.008 38.064 140.044C38.064 141.089 37.882 141.99 37.518 142.746C37.1633 143.502 36.6547 144.085 35.992 144.496C35.3293 144.907 34.5453 145.112 33.64 145.112ZM33.64 144.328C34.7507 144.328 35.614 143.955 36.23 143.208C36.846 142.461 37.154 141.411 37.154 140.058C37.154 138.705 36.846 137.659 36.23 136.922C35.6233 136.175 34.76 135.802 33.64 135.802C32.5293 135.802 31.666 136.175 31.05 136.922C30.4433 137.669 30.14 138.714 30.14 140.058C30.14 141.402 30.4433 142.452 31.05 143.208C31.666 143.955 32.5293 144.328 33.64 144.328ZM40.245 145V135.13H41.099V139.61H47.399V135.13H48.253V145H47.399V140.38H41.099V145H40.245ZM50.8271 145V135.13H51.5131L57.7571 143.544V135.13H58.5551V145H57.8831L51.6251 136.572V145H50.8271ZM68.6673 145.112C67.762 145.112 66.978 144.907 66.3153 144.496C65.662 144.085 65.1533 143.502 64.7893 142.746C64.4347 141.99 64.2573 141.094 64.2573 140.058C64.2573 139.022 64.4347 138.126 64.7893 137.37C65.144 136.614 65.6527 136.035 66.3153 135.634C66.978 135.223 67.762 135.018 68.6673 135.018C69.582 135.018 70.366 135.223 71.0193 135.634C71.682 136.035 72.1907 136.614 72.5453 137.37C72.9093 138.117 73.0913 139.008 73.0913 140.044C73.0913 141.089 72.9093 141.99 72.5453 142.746C72.1907 143.502 71.682 144.085 71.0193 144.496C70.3567 144.907 69.5727 145.112 68.6673 145.112ZM68.6673 144.328C69.778 144.328 70.6413 143.955 71.2573 143.208C71.8733 142.461 72.1813 141.411 72.1813 140.058C72.1813 138.705 71.8733 137.659 71.2573 136.922C70.6507 136.175 69.7873 135.802 68.6673 135.802C67.5567 135.802 66.6933 136.175 66.0773 136.922C65.4707 137.669 65.1673 138.714 65.1673 140.058C65.1673 141.402 65.4707 142.452 66.0773 143.208C66.6933 143.955 67.5567 144.328 68.6673 144.328ZM75.2724 145V135.13H75.9584L82.2024 143.544V135.13H83.0004V145H82.3284L76.0704 136.572V145H75.2724ZM87.961 145V140.268L84.195 135.13H85.203L88.409 139.512L91.629 135.13H92.595L88.829 140.282V145H87.961ZM93.8935 145V135.13H99.9695V135.872H94.7335V139.624H99.6755V140.366H94.7335V144.258H99.9695V145H93.8935ZM101.96 145V135.13H102.814V139.666H102.842L107.826 135.13H108.96L103.654 139.946L109.296 145H108.12L102.842 140.31H102.814V145H101.96ZM109.144 145L113.442 135.13H114.212L118.496 145H117.6L116.466 142.368H111.174L110.054 145H109.144ZM113.806 136.194L111.496 141.626H116.144L113.834 136.194H113.806ZM124.123 145.112C123.18 145.112 122.373 144.911 121.701 144.51C121.029 144.099 120.511 143.516 120.147 142.76C119.792 142.004 119.615 141.103 119.615 140.058C119.615 139.022 119.792 138.126 120.147 137.37C120.511 136.614 121.029 136.035 121.701 135.634C122.373 135.223 123.18 135.018 124.123 135.018C124.804 135.018 125.429 135.13 125.999 135.354C126.577 135.569 127.067 135.886 127.469 136.306L127.091 137.02C126.652 136.591 126.195 136.283 125.719 136.096C125.252 135.909 124.725 135.816 124.137 135.816C122.979 135.816 122.088 136.189 121.463 136.936C120.847 137.673 120.539 138.714 120.539 140.058C120.539 141.411 120.847 142.461 121.463 143.208C122.088 143.945 122.979 144.314 124.137 144.314C124.725 144.314 125.252 144.221 125.719 144.034C126.195 143.847 126.652 143.539 127.091 143.11L127.469 143.824C127.067 144.244 126.577 144.566 125.999 144.79C125.429 145.005 124.804 145.112 124.123 145.112ZM129.386 145V135.13H130.24V139.61H136.54V135.13H137.394V145H136.54V140.38H130.24V145H129.386ZM139.968 145V135.13H140.822V145H139.968Z" fill="white"/>
<path d="M169.736 116V110.36H173.208V110.784H170.216V112.928H173.04V113.352H170.216V115.576H173.208V116H169.736ZM173.785 116L175.385 113.992L173.873 112.12H174.457L175.673 113.656L176.897 112.12H177.473L175.961 114L177.569 116H176.977L175.673 114.36L174.361 116H173.785ZM178.367 117.44V112.12H178.855V112.848C178.972 112.603 179.148 112.408 179.383 112.264C179.623 112.12 179.9 112.048 180.215 112.048C180.561 112.048 180.863 112.131 181.119 112.296C181.38 112.461 181.58 112.693 181.719 112.992C181.863 113.291 181.935 113.645 181.935 114.056C181.935 114.467 181.863 114.824 181.719 115.128C181.58 115.427 181.38 115.659 181.119 115.824C180.863 115.984 180.561 116.064 180.215 116.064C179.9 116.064 179.623 115.995 179.383 115.856C179.148 115.717 178.972 115.525 178.855 115.28V117.44H178.367ZM180.143 115.656C180.537 115.656 180.852 115.517 181.087 115.24C181.321 114.957 181.439 114.563 181.439 114.056C181.439 113.549 181.321 113.157 181.087 112.88C180.852 112.603 180.537 112.464 180.143 112.464C179.748 112.464 179.433 112.603 179.199 112.88C178.964 113.157 178.847 113.549 178.847 114.056C178.847 114.563 178.964 114.957 179.199 115.24C179.433 115.517 179.748 115.656 180.143 115.656ZM185.072 116V110.36H186.888C187.784 110.36 188.475 110.6 188.96 111.08C189.451 111.56 189.696 112.259 189.696 113.176C189.696 114.093 189.451 114.795 188.96 115.28C188.475 115.76 187.784 116 186.888 116H185.072ZM185.56 115.568H186.848C188.395 115.568 189.168 114.771 189.168 113.176C189.168 111.587 188.395 110.792 186.848 110.792H185.56V115.568ZM192.043 116.064C191.782 116.064 191.547 116.013 191.339 115.912C191.136 115.811 190.974 115.672 190.851 115.496C190.734 115.32 190.675 115.123 190.675 114.904C190.675 114.616 190.747 114.392 190.891 114.232C191.035 114.067 191.278 113.949 191.619 113.88C191.96 113.811 192.43 113.776 193.027 113.776H193.275V113.488C193.275 113.131 193.203 112.872 193.059 112.712C192.915 112.547 192.686 112.464 192.371 112.464C192.136 112.464 191.91 112.499 191.691 112.568C191.478 112.637 191.256 112.747 191.027 112.896L190.835 112.52C191.038 112.376 191.278 112.261 191.555 112.176C191.832 112.091 192.102 112.048 192.363 112.048C192.832 112.048 193.179 112.168 193.403 112.408C193.632 112.648 193.747 113.016 193.747 113.512V116H193.283V115.304C193.176 115.544 193.014 115.731 192.795 115.864C192.582 115.997 192.331 116.064 192.043 116.064ZM192.107 115.672C192.336 115.672 192.536 115.619 192.707 115.512C192.883 115.4 193.022 115.248 193.123 115.056C193.224 114.864 193.275 114.645 193.275 114.4V114.136H193.035C192.555 114.136 192.179 114.157 191.907 114.2C191.64 114.243 191.454 114.317 191.347 114.424C191.24 114.531 191.187 114.677 191.187 114.864C191.187 115.104 191.27 115.299 191.435 115.448C191.6 115.597 191.824 115.672 192.107 115.672ZM196.487 116.064C196.055 116.064 195.729 115.947 195.511 115.712C195.297 115.477 195.191 115.141 195.191 114.704V112.512H194.423V112.12H195.191V110.92H195.679V112.12H196.935V112.512H195.679V114.64C195.679 114.965 195.745 115.213 195.879 115.384C196.012 115.555 196.233 115.64 196.543 115.64C196.633 115.64 196.721 115.629 196.807 115.608C196.892 115.587 196.967 115.563 197.031 115.536L197.127 115.92C197.068 115.957 196.975 115.989 196.847 116.016C196.719 116.048 196.599 116.064 196.487 116.064ZM199.351 116.064C198.754 116.064 198.282 115.888 197.935 115.536C197.594 115.179 197.423 114.691 197.423 114.072C197.423 113.672 197.501 113.32 197.655 113.016C197.81 112.712 198.023 112.475 198.295 112.304C198.573 112.133 198.89 112.048 199.247 112.048C199.765 112.048 200.167 112.216 200.455 112.552C200.743 112.888 200.887 113.349 200.887 113.936V114.16H197.903C197.919 114.64 198.05 115.011 198.295 115.272C198.546 115.528 198.893 115.656 199.335 115.656C199.575 115.656 199.799 115.619 200.007 115.544C200.221 115.469 200.429 115.344 200.631 115.168L200.823 115.536C200.653 115.701 200.434 115.832 200.167 115.928C199.901 116.019 199.629 116.064 199.351 116.064ZM199.255 112.44C198.85 112.44 198.533 112.568 198.303 112.824C198.079 113.075 197.949 113.4 197.911 113.8H200.447C200.437 113.373 200.33 113.04 200.127 112.8C199.925 112.56 199.634 112.44 199.255 112.44Z" fill="white"/>
<path d="M172 131.08C171.207 131.08 170.603 130.773 170.19 130.16C169.783 129.547 169.58 128.653 169.58 127.48C169.58 126.293 169.783 125.397 170.19 124.79C170.603 124.177 171.207 123.87 172 123.87C172.8 123.87 173.403 124.173 173.81 124.78C174.217 125.387 174.42 126.283 174.42 127.47C174.42 128.643 174.213 129.54 173.8 130.16C173.387 130.773 172.787 131.08 172 131.08ZM172 130.53C172.607 130.53 173.057 130.28 173.35 129.78C173.643 129.28 173.79 128.51 173.79 127.47C173.79 126.417 173.643 125.647 173.35 125.16C173.063 124.667 172.613 124.42 172 124.42C171.393 124.42 170.943 124.667 170.65 125.16C170.357 125.653 170.21 126.423 170.21 127.47C170.21 128.51 170.357 129.28 170.65 129.78C170.943 130.28 171.393 130.53 172 130.53ZM177.996 131.08C177.216 131.08 176.609 130.913 176.176 130.58C175.743 130.24 175.526 129.763 175.526 129.15C175.526 128.703 175.649 128.327 175.896 128.02C176.143 127.707 176.469 127.5 176.876 127.4C176.509 127.273 176.219 127.06 176.006 126.76C175.799 126.46 175.696 126.117 175.696 125.73C175.696 125.143 175.903 124.687 176.316 124.36C176.736 124.033 177.296 123.87 177.996 123.87C178.696 123.87 179.253 124.033 179.666 124.36C180.086 124.687 180.296 125.143 180.296 125.73C180.296 126.117 180.189 126.46 179.976 126.76C179.769 127.06 179.483 127.273 179.116 127.4C179.523 127.507 179.849 127.713 180.096 128.02C180.343 128.327 180.466 128.703 180.466 129.15C180.466 129.763 180.249 130.24 179.816 130.58C179.383 130.913 178.776 131.08 177.996 131.08ZM177.996 127.16C178.523 127.16 178.936 127.037 179.236 126.79C179.536 126.543 179.686 126.203 179.686 125.77C179.686 125.337 179.536 125 179.236 124.76C178.936 124.52 178.523 124.4 177.996 124.4C177.469 124.4 177.056 124.52 176.756 124.76C176.456 125 176.306 125.337 176.306 125.77C176.306 126.203 176.456 126.543 176.756 126.79C177.056 127.037 177.469 127.16 177.996 127.16ZM177.996 130.55C179.229 130.55 179.846 130.073 179.846 129.12C179.846 128.173 179.229 127.7 177.996 127.7C176.763 127.7 176.146 128.173 176.146 129.12C176.146 130.073 176.763 130.55 177.996 130.55ZM181.312 131.59L180.812 131.44L183.362 123.52L183.872 123.67L181.312 131.59ZM184.618 131V130.54L187.088 127.85C187.441 127.463 187.698 127.107 187.858 126.78C188.024 126.447 188.108 126.107 188.108 125.76C188.108 125.327 187.978 124.997 187.718 124.77C187.458 124.543 187.078 124.43 186.578 124.43C185.831 124.43 185.184 124.71 184.638 125.27L184.378 124.77C184.631 124.503 184.954 124.287 185.348 124.12C185.748 123.953 186.168 123.87 186.608 123.87C187.288 123.87 187.811 124.033 188.178 124.36C188.551 124.68 188.738 125.137 188.738 125.73C188.738 126.15 188.631 126.567 188.418 126.98C188.211 127.387 187.898 127.817 187.478 128.27L185.418 130.46H189.028V131H184.618ZM190.614 131V130.54L193.084 127.85C193.437 127.463 193.694 127.107 193.854 126.78C194.02 126.447 194.104 126.107 194.104 125.76C194.104 125.327 193.974 124.997 193.714 124.77C193.454 124.543 193.074 124.43 192.574 124.43C191.827 124.43 191.18 124.71 190.634 125.27L190.374 124.77C190.627 124.503 190.95 124.287 191.344 124.12C191.744 123.953 192.164 123.87 192.604 123.87C193.284 123.87 193.807 124.033 194.174 124.36C194.547 124.68 194.734 125.137 194.734 125.73C194.734 126.15 194.627 126.567 194.414 126.98C194.207 127.387 193.894 127.817 193.474 128.27L191.414 130.46H195.024V131H190.614Z" fill="white"/>
<ellipse opacity="0.5" cx="218" cy="44.5" rx="3" ry="3.5" fill="white"/>
<circle opacity="0.5" cx="26" cy="162" r="3" fill="white"/>
<circle opacity="0.5" cx="204.5" cy="36.5" r="3.5" fill="#E1441B"/>
<circle opacity="0.5" cx="13" cy="154" r="3" fill="#E1441B"/>
<path d="M20.1143 16H27.4285V30H20.1143V16Z" fill="#FF5F00"/>
<path d="M21.2423 23C21.2423 19.8056 22.5996 16.9722 24.6857 15.1388C23.1526 13.8055 21.2172 13 19.1059 13C14.1038 13 10.0571 17.4722 10.0571 23C10.0571 28.5277 14.1038 33 19.1058 33C21.2171 33 23.1525 32.1945 24.6857 30.861C22.5996 29.0555 21.2423 26.1944 21.2423 23V23Z" fill="#EB001B"/>
<path d="M37.4856 23C37.4856 28.5277 33.439 33 28.4371 33C26.3257 33 24.3904 32.1945 22.8572 30.861C24.9685 29.0278 26.3007 26.1944 26.3007 23C26.3007 19.8056 24.9433 16.9722 22.8572 15.1388C24.3903 13.8055 26.3257 13 28.4371 13C33.439 13 37.4858 17.5 37.4858 23H37.4856Z" fill="#F79E1B"/>
</g>
<defs>
<filter id="filter0_d_1_1813" x="21.0439" y="77.1479" width="214.109" height="22.0142" filterUnits="userSpaceOnUse" color-interpolation-filters="sRGB">
<feFlood flood-opacity="0" result="BackgroundImageFix"/>
<feColorMatrix in="SourceAlpha" type="matrix" values="0 0 0 0 0 0 0 0 0 0 0 0 0 0 0 0 0 0 127 0" result="hardAlpha"/>
<feOffset dy="4"/>
<feGaussianBlur stdDeviation="2"/>
<feComposite in2="hardAlpha" operator="out"/>
<feColorMatrix type="matrix" values="0 0 0 0 0 0 0 0 0 0 0 0 0 0 0 0 0 0 0.25 0"/>
<feBlend mode="normal" in2="BackgroundImageFix" result="effect1_dropShadow_1_1813"/>
<feBlend mode="normal" in="SourceGraphic" in2="effect1_dropShadow_1_1813" result="shape"/>
</filter>
<clipPath id="clip0_1_1813">
<rect width="320" height="170" rx="5" fill="white"/>
</clipPath>
</defs>
</svg>
