<svg width="338" height="235" viewBox="0 0 338 235" fill="none" xmlns="http://www.w3.org/2000/svg">
<g opacity="0.1" filter="url(#filter0_d_1_1810)">
<rect x="32.7715" y="75" width="272.457" height="138" rx="10" fill="#455A64"/>
</g>
<g opacity="0.2" filter="url(#filter1_d_1_1810)">
<rect x="20.8857" y="18" width="296.229" height="184" rx="10" fill="#455A64"/>
</g>
<g clip-path="url(#clip0_1_1810)">
<rect x="9" y="18" width="320" height="170" rx="5" fill="#003049"/>
<circle opacity="0.22" cx="360" cy="102" r="100" fill="#DBDBDB"/>
<circle opacity="0.22" cx="323" cy="151" r="82" fill="#D92F25"/>
<circle opacity="0.2" cx="341" cy="29" r="100" fill="#EF6A09"/>
<path d="M56.878 47L53.42 37.13H54.624L57.41 45.32L60.266 37.13H61.19L64.018 45.39L66.86 37.13H68.008L64.55 47H63.528L60.714 38.88L57.872 47H56.878ZM71.7179 47.126C70.6446 47.126 69.7952 46.8133 69.1699 46.188C68.5446 45.5533 68.2319 44.6947 68.2319 43.612C68.2319 42.912 68.3719 42.296 68.6519 41.764C68.9319 41.2227 69.3146 40.8073 69.7999 40.518C70.2946 40.2193 70.8639 40.07 71.5079 40.07C72.4319 40.07 73.1552 40.3687 73.6779 40.966C74.2006 41.554 74.4619 42.366 74.4619 43.402V43.836H69.3379C69.3752 44.6107 69.5992 45.2033 70.0099 45.614C70.4206 46.0153 70.9899 46.216 71.7179 46.216C72.1286 46.216 72.5206 46.1553 72.8939 46.034C73.2672 45.9033 73.6219 45.6933 73.9579 45.404L74.3499 46.202C74.0419 46.4913 73.6499 46.72 73.1739 46.888C72.6979 47.0467 72.2126 47.126 71.7179 47.126ZM71.5359 40.91C70.8919 40.91 70.3832 41.1107 70.0099 41.512C69.6366 41.9133 69.4172 42.4407 69.3519 43.094H73.4819C73.4539 42.4033 73.2719 41.8667 72.9359 41.484C72.6092 41.1013 72.1426 40.91 71.5359 40.91ZM76.1311 47V40.196H77.2371V41.344C77.4424 40.9333 77.7271 40.6207 78.0911 40.406C78.4551 40.182 78.8797 40.07 79.3651 40.07C80.4291 40.07 81.1104 40.532 81.4091 41.456C81.6144 41.0267 81.9177 40.6907 82.3191 40.448C82.7204 40.196 83.1824 40.07 83.7051 40.07C85.2171 40.07 85.9731 40.966 85.9731 42.758V47H84.8391V42.814C84.8391 42.1887 84.7271 41.7313 84.5031 41.442C84.2884 41.1433 83.9291 40.994 83.4251 40.994C82.8744 40.994 82.4357 41.19 82.1091 41.582C81.7824 41.974 81.6191 42.4967 81.6191 43.15V47H80.4851V42.814C80.4851 42.1887 80.3731 41.7313 80.1491 41.442C79.9344 41.1433 79.5751 40.994 79.0711 40.994C78.5111 40.994 78.0677 41.19 77.7411 41.582C77.4237 41.974 77.2651 42.4967 77.2651 43.15V47H76.1311ZM90.2353 47.126C89.7686 47.126 89.3486 47.0373 88.9753 46.86C88.6113 46.6733 88.322 46.4213 88.1073 46.104C87.8926 45.7867 87.7853 45.432 87.7853 45.04C87.7853 44.5453 87.9113 44.1533 88.1633 43.864C88.4246 43.5747 88.8493 43.3693 89.4373 43.248C90.0346 43.1173 90.8466 43.052 91.8733 43.052H92.3213V42.618C92.3213 42.0393 92.2 41.624 91.9573 41.372C91.724 41.1107 91.346 40.98 90.8233 40.98C90.4126 40.98 90.016 41.0407 89.6333 41.162C89.2506 41.274 88.8586 41.4607 88.4573 41.722L88.0653 40.896C88.42 40.644 88.8493 40.4433 89.3533 40.294C89.8666 40.1447 90.3566 40.07 90.8233 40.07C91.7006 40.07 92.3493 40.2847 92.7693 40.714C93.1986 41.1433 93.4133 41.8107 93.4133 42.716V47H92.3493V45.824C92.172 46.2253 91.8966 46.5427 91.5233 46.776C91.1593 47.0093 90.73 47.126 90.2353 47.126ZM90.4173 46.272C90.9773 46.272 91.4346 46.0807 91.7893 45.698C92.144 45.306 92.3213 44.8113 92.3213 44.214V43.794H91.8873C91.1313 43.794 90.534 43.8313 90.0953 43.906C89.666 43.9713 89.3626 44.0927 89.1853 44.27C89.0173 44.438 88.9333 44.6713 88.9333 44.97C88.9333 45.3527 89.064 45.6653 89.3253 45.908C89.596 46.1507 89.96 46.272 90.4173 46.272ZM99.2668 47V37.13H103.215C104.232 37.13 105.016 37.3587 105.567 37.816C106.127 38.264 106.407 38.894 106.407 39.706C106.407 40.2473 106.267 40.7093 105.987 41.092C105.707 41.4747 105.319 41.7547 104.825 41.932C105.394 42.0813 105.837 42.3567 106.155 42.758C106.481 43.1593 106.645 43.668 106.645 44.284C106.645 45.1613 106.36 45.8333 105.791 46.3C105.221 46.7667 104.419 47 103.383 47H99.2668ZM100.387 41.54H103.047C104.531 41.54 105.273 40.9613 105.273 39.804C105.273 38.6373 104.531 38.054 103.047 38.054H100.387V41.54ZM100.387 46.076H103.271C104.764 46.076 105.511 45.474 105.511 44.27C105.511 43.066 104.764 42.464 103.271 42.464H100.387V46.076ZM110.716 47.126C110.249 47.126 109.829 47.0373 109.456 46.86C109.092 46.6733 108.802 46.4213 108.588 46.104C108.373 45.7867 108.266 45.432 108.266 45.04C108.266 44.5453 108.392 44.1533 108.644 43.864C108.905 43.5747 109.33 43.3693 109.918 43.248C110.515 43.1173 111.327 43.052 112.354 43.052H112.802V42.618C112.802 42.0393 112.68 41.624 112.438 41.372C112.204 41.1107 111.826 40.98 111.304 40.98C110.893 40.98 110.496 41.0407 110.114 41.162C109.731 41.274 109.339 41.4607 108.938 41.722L108.546 40.896C108.9 40.644 109.33 40.4433 109.834 40.294C110.347 40.1447 110.837 40.07 111.304 40.07C112.181 40.07 112.83 40.2847 113.25 40.714C113.679 41.1433 113.894 41.8107 113.894 42.716V47H112.83V45.824C112.652 46.2253 112.377 46.5427 112.004 46.776C111.64 47.0093 111.21 47.126 110.716 47.126ZM110.898 46.272C111.458 46.272 111.915 46.0807 112.27 45.698C112.624 45.306 112.802 44.8113 112.802 44.214V43.794H112.368C111.612 43.794 111.014 43.8313 110.576 43.906C110.146 43.9713 109.843 44.0927 109.666 44.27C109.498 44.438 109.414 44.6713 109.414 44.97C109.414 45.3527 109.544 45.6653 109.806 45.908C110.076 46.1507 110.44 46.272 110.898 46.272ZM115.998 47V40.196H117.104V41.358C117.328 40.9287 117.645 40.6067 118.056 40.392C118.466 40.1773 118.928 40.07 119.442 40.07C121.056 40.07 121.864 40.966 121.864 42.758V47H120.73V42.828C120.73 42.1933 120.604 41.7313 120.352 41.442C120.109 41.1433 119.717 40.994 119.176 40.994C118.55 40.994 118.051 41.19 117.678 41.582C117.314 41.9647 117.132 42.478 117.132 43.122V47H115.998ZM123.955 47V37.13H125.089V43.22H125.117L128.267 40.196H129.709L126.293 43.472L130.003 47H128.561L125.117 43.808H125.089V47H123.955Z" fill="white"/>
<g filter="url(#filter2_d_1_1810)">
<path d="M34.53 108V106.614L38.76 102.078C39.348 101.442 39.768 100.866 40.02 100.35C40.284 99.834 40.416 99.312 40.416 98.784C40.416 97.416 39.612 96.732 38.004 96.732C36.78 96.732 35.682 97.194 34.71 98.118L34.044 96.696C34.524 96.228 35.136 95.856 35.88 95.58C36.624 95.292 37.398 95.148 38.202 95.148C39.51 95.148 40.512 95.448 41.208 96.048C41.916 96.648 42.27 97.506 42.27 98.622C42.27 99.378 42.084 100.116 41.712 100.836C41.352 101.556 40.782 102.324 40.002 103.14L36.87 106.434H42.774V108H34.53ZM48.995 108.162C48.143 108.162 47.333 108.036 46.565 107.784C45.797 107.52 45.155 107.154 44.639 106.686L45.287 105.246C45.851 105.702 46.433 106.038 47.033 106.254C47.633 106.47 48.269 106.578 48.941 106.578C49.805 106.578 50.459 106.392 50.903 106.02C51.359 105.648 51.587 105.114 51.587 104.418C51.587 103.722 51.359 103.206 50.903 102.87C50.459 102.534 49.811 102.366 48.959 102.366H46.997V100.8H48.779C49.535 100.8 50.129 100.608 50.561 100.224C51.005 99.84 51.227 99.312 51.227 98.64C51.227 98.028 51.023 97.56 50.615 97.236C50.207 96.9 49.625 96.732 48.869 96.732C47.585 96.732 46.463 97.194 45.503 98.118L44.855 96.696C45.347 96.204 45.959 95.826 46.691 95.562C47.435 95.286 48.209 95.148 49.013 95.148C50.285 95.148 51.275 95.442 51.983 96.03C52.691 96.606 53.045 97.41 53.045 98.442C53.045 99.138 52.865 99.75 52.505 100.278C52.157 100.806 51.671 101.19 51.047 101.43C51.803 101.622 52.385 101.994 52.793 102.546C53.201 103.086 53.405 103.752 53.405 104.544C53.405 105.66 53.009 106.542 52.217 107.19C51.437 107.838 50.363 108.162 48.995 108.162ZM61.1379 108V105.426H55.4319V104.04L61.4619 95.31H62.9919V103.86H64.8459V105.426H62.9919V108H61.1379ZM61.1379 103.86V98.226L57.2859 103.86H61.1379ZM70.9769 108.162C70.1609 108.162 69.3689 108.036 68.6009 107.784C67.8449 107.52 67.2149 107.154 66.7109 106.686L67.3409 105.246C68.4449 106.134 69.6449 106.578 70.9409 106.578C71.7689 106.578 72.4169 106.356 72.8849 105.912C73.3529 105.456 73.5869 104.862 73.5869 104.13C73.5869 103.374 73.3649 102.756 72.9209 102.276C72.4769 101.796 71.8589 101.556 71.0669 101.556C69.9509 101.556 69.0569 102.018 68.3849 102.942H67.0889V95.31H74.6489V96.876H68.9069V100.89C69.5789 100.302 70.4309 100.008 71.4629 100.008C72.2669 100.008 72.9629 100.176 73.5509 100.512C74.1389 100.848 74.5949 101.322 74.9189 101.934C75.2429 102.534 75.4049 103.236 75.4049 104.04C75.4049 104.856 75.2249 105.576 74.8649 106.2C74.5049 106.812 73.9949 107.292 73.3349 107.64C72.6749 107.988 71.8889 108.162 70.9769 108.162Z" fill="white"/>
<path d="M93.85 108.162C92.314 108.162 91.126 107.616 90.286 106.524C89.458 105.432 89.044 103.902 89.044 101.934C89.044 99.762 89.512 98.088 90.448 96.912C91.384 95.736 92.68 95.148 94.336 95.148C94.984 95.148 95.638 95.28 96.298 95.544C96.958 95.796 97.51 96.156 97.954 96.624L97.306 98.028C96.874 97.596 96.394 97.272 95.866 97.056C95.35 96.84 94.828 96.732 94.3 96.732C93.184 96.732 92.326 97.14 91.726 97.956C91.138 98.76 90.844 99.966 90.844 101.574V102.294C91.084 101.562 91.498 100.992 92.086 100.584C92.686 100.164 93.376 99.954 94.156 99.954C94.9 99.954 95.554 100.128 96.118 100.476C96.694 100.824 97.144 101.304 97.468 101.916C97.792 102.516 97.954 103.206 97.954 103.986C97.954 104.802 97.78 105.528 97.432 106.164C97.084 106.788 96.598 107.28 95.974 107.64C95.362 107.988 94.654 108.162 93.85 108.162ZM93.742 106.65C94.474 106.65 95.068 106.41 95.524 105.93C95.98 105.45 96.208 104.826 96.208 104.058C96.208 103.29 95.98 102.666 95.524 102.186C95.068 101.706 94.474 101.466 93.742 101.466C93.01 101.466 92.416 101.706 91.96 102.186C91.504 102.666 91.276 103.29 91.276 104.058C91.276 104.826 91.504 105.45 91.96 105.93C92.416 106.41 93.01 106.65 93.742 106.65ZM104.643 108.162C103.107 108.162 101.919 107.616 101.079 106.524C100.251 105.432 99.837 103.902 99.837 101.934C99.837 99.762 100.305 98.088 101.241 96.912C102.177 95.736 103.473 95.148 105.129 95.148C105.777 95.148 106.431 95.28 107.091 95.544C107.751 95.796 108.303 96.156 108.747 96.624L108.099 98.028C107.667 97.596 107.187 97.272 106.659 97.056C106.143 96.84 105.621 96.732 105.093 96.732C103.977 96.732 103.119 97.14 102.519 97.956C101.931 98.76 101.637 99.966 101.637 101.574V102.294C101.877 101.562 102.291 100.992 102.879 100.584C103.479 100.164 104.169 99.954 104.949 99.954C105.693 99.954 106.347 100.128 106.911 100.476C107.487 100.824 107.937 101.304 108.261 101.916C108.585 102.516 108.747 103.206 108.747 103.986C108.747 104.802 108.573 105.528 108.225 106.164C107.877 106.788 107.391 107.28 106.767 107.64C106.155 107.988 105.447 108.162 104.643 108.162ZM104.535 106.65C105.267 106.65 105.861 106.41 106.317 105.93C106.773 105.45 107.001 104.826 107.001 104.058C107.001 103.29 106.773 102.666 106.317 102.186C105.861 101.706 105.267 101.466 104.535 101.466C103.803 101.466 103.209 101.706 102.753 102.186C102.297 102.666 102.069 103.29 102.069 104.058C102.069 104.826 102.297 105.45 102.753 105.93C103.209 106.41 103.803 106.65 104.535 106.65ZM115.436 108.162C113.9 108.162 112.712 107.616 111.872 106.524C111.044 105.432 110.63 103.902 110.63 101.934C110.63 99.762 111.098 98.088 112.034 96.912C112.97 95.736 114.266 95.148 115.922 95.148C116.57 95.148 117.224 95.28 117.884 95.544C118.544 95.796 119.096 96.156 119.54 96.624L118.892 98.028C118.46 97.596 117.98 97.272 117.452 97.056C116.936 96.84 116.414 96.732 115.886 96.732C114.77 96.732 113.912 97.14 113.312 97.956C112.724 98.76 112.43 99.966 112.43 101.574V102.294C112.67 101.562 113.084 100.992 113.672 100.584C114.272 100.164 114.962 99.954 115.742 99.954C116.486 99.954 117.14 100.128 117.704 100.476C118.28 100.824 118.73 101.304 119.054 101.916C119.378 102.516 119.54 103.206 119.54 103.986C119.54 104.802 119.366 105.528 119.018 106.164C118.67 106.788 118.184 107.28 117.56 107.64C116.948 107.988 116.24 108.162 115.436 108.162ZM115.328 106.65C116.06 106.65 116.654 106.41 117.11 105.93C117.566 105.45 117.794 104.826 117.794 104.058C117.794 103.29 117.566 102.666 117.11 102.186C116.654 101.706 116.06 101.466 115.328 101.466C114.596 101.466 114.002 101.706 113.546 102.186C113.09 102.666 112.862 103.29 112.862 104.058C112.862 104.826 113.09 105.45 113.546 105.93C114.002 106.41 114.596 106.65 115.328 106.65ZM126.229 108.162C124.693 108.162 123.505 107.616 122.665 106.524C121.837 105.432 121.423 103.902 121.423 101.934C121.423 99.762 121.891 98.088 122.827 96.912C123.763 95.736 125.059 95.148 126.715 95.148C127.363 95.148 128.017 95.28 128.677 95.544C129.337 95.796 129.889 96.156 130.333 96.624L129.685 98.028C129.253 97.596 128.773 97.272 128.245 97.056C127.729 96.84 127.207 96.732 126.679 96.732C125.563 96.732 124.705 97.14 124.105 97.956C123.517 98.76 123.223 99.966 123.223 101.574V102.294C123.463 101.562 123.877 100.992 124.465 100.584C125.065 100.164 125.755 99.954 126.535 99.954C127.279 99.954 127.933 100.128 128.497 100.476C129.073 100.824 129.523 101.304 129.847 101.916C130.171 102.516 130.333 103.206 130.333 103.986C130.333 104.802 130.159 105.528 129.811 106.164C129.463 106.788 128.977 107.28 128.353 107.64C127.741 107.988 127.033 108.162 126.229 108.162ZM126.121 106.65C126.853 106.65 127.447 106.41 127.903 105.93C128.359 105.45 128.587 104.826 128.587 104.058C128.587 103.29 128.359 102.666 127.903 102.186C127.447 101.706 126.853 101.466 126.121 101.466C125.389 101.466 124.795 101.706 124.339 102.186C123.883 102.666 123.655 103.29 123.655 104.058C123.655 104.826 123.883 105.45 124.339 105.93C124.795 106.41 125.389 106.65 126.121 106.65Z" fill="white"/>
<path d="M148.598 108.162C147.782 108.162 146.99 108.036 146.222 107.784C145.466 107.52 144.836 107.154 144.332 106.686L144.962 105.246C146.066 106.134 147.266 106.578 148.562 106.578C149.39 106.578 150.038 106.356 150.506 105.912C150.974 105.456 151.208 104.862 151.208 104.13C151.208 103.374 150.986 102.756 150.542 102.276C150.098 101.796 149.48 101.556 148.688 101.556C147.572 101.556 146.678 102.018 146.006 102.942H144.71V95.31H152.27V96.876H146.528V100.89C147.2 100.302 148.052 100.008 149.084 100.008C149.888 100.008 150.584 100.176 151.172 100.512C151.76 100.848 152.216 101.322 152.54 101.934C152.864 102.534 153.026 103.236 153.026 104.04C153.026 104.856 152.846 105.576 152.486 106.2C152.126 106.812 151.616 107.292 150.956 107.64C150.296 107.988 149.51 108.162 148.598 108.162ZM160.345 108V105.426H154.639V104.04L160.669 95.31H162.199V103.86H164.053V105.426H162.199V108H160.345ZM160.345 103.86V98.226L156.493 103.86H160.345ZM169.788 108.162C168.936 108.162 168.126 108.036 167.358 107.784C166.59 107.52 165.948 107.154 165.432 106.686L166.08 105.246C166.644 105.702 167.226 106.038 167.826 106.254C168.426 106.47 169.062 106.578 169.734 106.578C170.598 106.578 171.252 106.392 171.696 106.02C172.152 105.648 172.38 105.114 172.38 104.418C172.38 103.722 172.152 103.206 171.696 102.87C171.252 102.534 170.604 102.366 169.752 102.366H167.79V100.8H169.572C170.328 100.8 170.922 100.608 171.354 100.224C171.798 99.84 172.02 99.312 172.02 98.64C172.02 98.028 171.816 97.56 171.408 97.236C171 96.9 170.418 96.732 169.662 96.732C168.378 96.732 167.256 97.194 166.296 98.118L165.648 96.696C166.14 96.204 166.752 95.826 167.484 95.562C168.228 95.286 169.002 95.148 169.806 95.148C171.078 95.148 172.068 95.442 172.776 96.03C173.484 96.606 173.838 97.41 173.838 98.442C173.838 99.138 173.658 99.75 173.298 100.278C172.95 100.806 172.464 101.19 171.84 101.43C172.596 101.622 173.178 101.994 173.586 102.546C173.994 103.086 174.198 103.752 174.198 104.544C174.198 105.66 173.802 106.542 173.01 107.19C172.23 107.838 171.156 108.162 169.788 108.162ZM176.909 108V106.614L181.139 102.078C181.727 101.442 182.147 100.866 182.399 100.35C182.663 99.834 182.795 99.312 182.795 98.784C182.795 97.416 181.991 96.732 180.383 96.732C179.159 96.732 178.061 97.194 177.089 98.118L176.423 96.696C176.903 96.228 177.515 95.856 178.259 95.58C179.003 95.292 179.777 95.148 180.581 95.148C181.889 95.148 182.891 95.448 183.587 96.048C184.295 96.648 184.649 97.506 184.649 98.622C184.649 99.378 184.463 100.116 184.091 100.836C183.731 101.556 183.161 102.324 182.381 103.14L179.249 106.434H185.153V108H176.909Z" fill="white"/>
<path d="M200.106 109V107.434H202.986V98.47L200.736 99.874L199.98 98.488L203.526 96.31H204.84V107.434H207.54V109H200.106ZM210.323 109V107.614L214.553 103.078C215.141 102.442 215.561 101.866 215.813 101.35C216.077 100.834 216.209 100.312 216.209 99.784C216.209 98.416 215.405 97.732 213.797 97.732C212.573 97.732 211.475 98.194 210.503 99.118L209.837 97.696C210.317 97.228 210.929 96.856 211.673 96.58C212.417 96.292 213.191 96.148 213.995 96.148C215.303 96.148 216.305 96.448 217.001 97.048C217.709 97.648 218.063 98.506 218.063 99.622C218.063 100.378 217.877 101.116 217.505 101.836C217.145 102.556 216.575 103.324 215.795 104.14L212.663 107.434H218.567V109H210.323ZM224.788 109.162C223.936 109.162 223.126 109.036 222.358 108.784C221.59 108.52 220.948 108.154 220.432 107.686L221.08 106.246C221.644 106.702 222.226 107.038 222.826 107.254C223.426 107.47 224.062 107.578 224.734 107.578C225.598 107.578 226.252 107.392 226.696 107.02C227.152 106.648 227.38 106.114 227.38 105.418C227.38 104.722 227.152 104.206 226.696 103.87C226.252 103.534 225.604 103.366 224.752 103.366H222.79V101.8H224.572C225.328 101.8 225.922 101.608 226.354 101.224C226.798 100.84 227.02 100.312 227.02 99.64C227.02 99.028 226.816 98.56 226.408 98.236C226 97.9 225.418 97.732 224.662 97.732C223.378 97.732 222.256 98.194 221.296 99.118L220.648 97.696C221.14 97.204 221.752 96.826 222.484 96.562C223.228 96.286 224.002 96.148 224.806 96.148C226.078 96.148 227.068 96.442 227.776 97.03C228.484 97.606 228.838 98.41 228.838 99.442C228.838 100.138 228.658 100.75 228.298 101.278C227.95 101.806 227.464 102.19 226.84 102.43C227.596 102.622 228.178 102.994 228.586 103.546C228.994 104.086 229.198 104.752 229.198 105.544C229.198 106.66 228.802 107.542 228.01 108.19C227.23 108.838 226.156 109.162 224.788 109.162ZM231.909 109V107.614L236.139 103.078C236.727 102.442 237.147 101.866 237.399 101.35C237.663 100.834 237.795 100.312 237.795 99.784C237.795 98.416 236.991 97.732 235.383 97.732C234.159 97.732 233.061 98.194 232.089 99.118L231.423 97.696C231.903 97.228 232.515 96.856 233.259 96.58C234.003 96.292 234.777 96.148 235.581 96.148C236.889 96.148 237.891 96.448 238.587 97.048C239.295 97.648 239.649 98.506 239.649 99.622C239.649 100.378 239.463 101.116 239.091 101.836C238.731 102.556 238.161 103.324 237.381 104.14L234.249 107.434H240.153V109H231.909Z" fill="white"/>
</g>
<path d="M32.93 163.098L32.86 162.342L33.644 162.286C34.1387 162.249 34.5213 162.067 34.792 161.74C35.0627 161.413 35.198 160.979 35.198 160.438V153.13H36.066V160.452C36.066 161.227 35.8653 161.838 35.464 162.286C35.0627 162.734 34.484 162.986 33.728 163.042L32.93 163.098ZM42.64 163.112C41.7347 163.112 40.9507 162.907 40.288 162.496C39.6347 162.085 39.126 161.502 38.762 160.746C38.4073 159.99 38.23 159.094 38.23 158.058C38.23 157.022 38.4073 156.126 38.762 155.37C39.1167 154.614 39.6253 154.035 40.288 153.634C40.9507 153.223 41.7347 153.018 42.64 153.018C43.5547 153.018 44.3387 153.223 44.992 153.634C45.6547 154.035 46.1633 154.614 46.518 155.37C46.882 156.117 47.064 157.008 47.064 158.044C47.064 159.089 46.882 159.99 46.518 160.746C46.1633 161.502 45.6547 162.085 44.992 162.496C44.3293 162.907 43.5453 163.112 42.64 163.112ZM42.64 162.328C43.7507 162.328 44.614 161.955 45.23 161.208C45.846 160.461 46.154 159.411 46.154 158.058C46.154 156.705 45.846 155.659 45.23 154.922C44.6233 154.175 43.76 153.802 42.64 153.802C41.5293 153.802 40.666 154.175 40.05 154.922C39.4433 155.669 39.14 156.714 39.14 158.058C39.14 159.402 39.4433 160.452 40.05 161.208C40.666 161.955 41.5293 162.328 42.64 162.328ZM49.245 163V153.13H50.099V157.61H56.399V153.13H57.253V163H56.399V158.38H50.099V163H49.245ZM59.8271 163V153.13H60.5131L66.7571 161.544V153.13H67.5551V163H66.8831L60.6251 154.572V163H59.8271ZM77.6673 163.112C76.762 163.112 75.978 162.907 75.3153 162.496C74.662 162.085 74.1533 161.502 73.7893 160.746C73.4347 159.99 73.2573 159.094 73.2573 158.058C73.2573 157.022 73.4347 156.126 73.7893 155.37C74.144 154.614 74.6527 154.035 75.3153 153.634C75.978 153.223 76.762 153.018 77.6673 153.018C78.582 153.018 79.366 153.223 80.0193 153.634C80.682 154.035 81.1907 154.614 81.5453 155.37C81.9093 156.117 82.0913 157.008 82.0913 158.044C82.0913 159.089 81.9093 159.99 81.5453 160.746C81.1907 161.502 80.682 162.085 80.0193 162.496C79.3567 162.907 78.5727 163.112 77.6673 163.112ZM77.6673 162.328C78.778 162.328 79.6413 161.955 80.2573 161.208C80.8733 160.461 81.1813 159.411 81.1813 158.058C81.1813 156.705 80.8733 155.659 80.2573 154.922C79.6507 154.175 78.7873 153.802 77.6673 153.802C76.5567 153.802 75.6933 154.175 75.0773 154.922C74.4707 155.669 74.1673 156.714 74.1673 158.058C74.1673 159.402 74.4707 160.452 75.0773 161.208C75.6933 161.955 76.5567 162.328 77.6673 162.328ZM84.2724 163V153.13H84.9584L91.2024 161.544V153.13H92.0004V163H91.3284L85.0704 154.572V163H84.2724ZM96.961 163V158.268L93.195 153.13H94.203L97.409 157.512L100.629 153.13H101.595L97.829 158.282V163H96.961ZM102.893 163V153.13H108.969V153.872H103.733V157.624H108.675V158.366H103.733V162.258H108.969V163H102.893ZM110.96 163V153.13H111.814V157.666H111.842L116.826 153.13H117.96L112.654 157.946L118.296 163H117.12L111.842 158.31H111.814V163H110.96ZM118.144 163L122.442 153.13H123.212L127.496 163H126.6L125.466 160.368H120.174L119.054 163H118.144ZM122.806 154.194L120.496 159.626H125.144L122.834 154.194H122.806ZM133.123 163.112C132.18 163.112 131.373 162.911 130.701 162.51C130.029 162.099 129.511 161.516 129.147 160.76C128.792 160.004 128.615 159.103 128.615 158.058C128.615 157.022 128.792 156.126 129.147 155.37C129.511 154.614 130.029 154.035 130.701 153.634C131.373 153.223 132.18 153.018 133.123 153.018C133.804 153.018 134.429 153.13 134.999 153.354C135.577 153.569 136.067 153.886 136.469 154.306L136.091 155.02C135.652 154.591 135.195 154.283 134.719 154.096C134.252 153.909 133.725 153.816 133.137 153.816C131.979 153.816 131.088 154.189 130.463 154.936C129.847 155.673 129.539 156.714 129.539 158.058C129.539 159.411 129.847 160.461 130.463 161.208C131.088 161.945 131.979 162.314 133.137 162.314C133.725 162.314 134.252 162.221 134.719 162.034C135.195 161.847 135.652 161.539 136.091 161.11L136.469 161.824C136.067 162.244 135.577 162.566 134.999 162.79C134.429 163.005 133.804 163.112 133.123 163.112ZM138.386 163V153.13H139.24V157.61H145.54V153.13H146.394V163H145.54V158.38H139.24V163H138.386ZM148.968 163V153.13H149.822V163H148.968Z" fill="white"/>
<path d="M178.736 134V128.36H182.208V128.784H179.216V130.928H182.04V131.352H179.216V133.576H182.208V134H178.736ZM182.785 134L184.385 131.992L182.873 130.12H183.457L184.673 131.656L185.897 130.12H186.473L184.961 132L186.569 134H185.977L184.673 132.36L183.361 134H182.785ZM187.367 135.44V130.12H187.855V130.848C187.972 130.603 188.148 130.408 188.383 130.264C188.623 130.12 188.9 130.048 189.215 130.048C189.561 130.048 189.863 130.131 190.119 130.296C190.38 130.461 190.58 130.693 190.719 130.992C190.863 131.291 190.935 131.645 190.935 132.056C190.935 132.467 190.863 132.824 190.719 133.128C190.58 133.427 190.38 133.659 190.119 133.824C189.863 133.984 189.561 134.064 189.215 134.064C188.9 134.064 188.623 133.995 188.383 133.856C188.148 133.717 187.972 133.525 187.855 133.28V135.44H187.367ZM189.143 133.656C189.537 133.656 189.852 133.517 190.087 133.24C190.321 132.957 190.439 132.563 190.439 132.056C190.439 131.549 190.321 131.157 190.087 130.88C189.852 130.603 189.537 130.464 189.143 130.464C188.748 130.464 188.433 130.603 188.199 130.88C187.964 131.157 187.847 131.549 187.847 132.056C187.847 132.563 187.964 132.957 188.199 133.24C188.433 133.517 188.748 133.656 189.143 133.656ZM194.072 134V128.36H195.888C196.784 128.36 197.475 128.6 197.96 129.08C198.451 129.56 198.696 130.259 198.696 131.176C198.696 132.093 198.451 132.795 197.96 133.28C197.475 133.76 196.784 134 195.888 134H194.072ZM194.56 133.568H195.848C197.395 133.568 198.168 132.771 198.168 131.176C198.168 129.587 197.395 128.792 195.848 128.792H194.56V133.568ZM201.043 134.064C200.782 134.064 200.547 134.013 200.339 133.912C200.136 133.811 199.974 133.672 199.851 133.496C199.734 133.32 199.675 133.123 199.675 132.904C199.675 132.616 199.747 132.392 199.891 132.232C200.035 132.067 200.278 131.949 200.619 131.88C200.96 131.811 201.43 131.776 202.027 131.776H202.275V131.488C202.275 131.131 202.203 130.872 202.059 130.712C201.915 130.547 201.686 130.464 201.371 130.464C201.136 130.464 200.91 130.499 200.691 130.568C200.478 130.637 200.256 130.747 200.027 130.896L199.835 130.52C200.038 130.376 200.278 130.261 200.555 130.176C200.832 130.091 201.102 130.048 201.363 130.048C201.832 130.048 202.179 130.168 202.403 130.408C202.632 130.648 202.747 131.016 202.747 131.512V134H202.283V133.304C202.176 133.544 202.014 133.731 201.795 133.864C201.582 133.997 201.331 134.064 201.043 134.064ZM201.107 133.672C201.336 133.672 201.536 133.619 201.707 133.512C201.883 133.4 202.022 133.248 202.123 133.056C202.224 132.864 202.275 132.645 202.275 132.4V132.136H202.035C201.555 132.136 201.179 132.157 200.907 132.2C200.64 132.243 200.454 132.317 200.347 132.424C200.24 132.531 200.187 132.677 200.187 132.864C200.187 133.104 200.27 133.299 200.435 133.448C200.6 133.597 200.824 133.672 201.107 133.672ZM205.487 134.064C205.055 134.064 204.729 133.947 204.511 133.712C204.297 133.477 204.191 133.141 204.191 132.704V130.512H203.423V130.12H204.191V128.92H204.679V130.12H205.935V130.512H204.679V132.64C204.679 132.965 204.745 133.213 204.879 133.384C205.012 133.555 205.233 133.64 205.543 133.64C205.633 133.64 205.721 133.629 205.807 133.608C205.892 133.587 205.967 133.563 206.031 133.536L206.127 133.92C206.068 133.957 205.975 133.989 205.847 134.016C205.719 134.048 205.599 134.064 205.487 134.064ZM208.351 134.064C207.754 134.064 207.282 133.888 206.935 133.536C206.594 133.179 206.423 132.691 206.423 132.072C206.423 131.672 206.501 131.32 206.655 131.016C206.81 130.712 207.023 130.475 207.295 130.304C207.573 130.133 207.89 130.048 208.247 130.048C208.765 130.048 209.167 130.216 209.455 130.552C209.743 130.888 209.887 131.349 209.887 131.936V132.16H206.903C206.919 132.64 207.05 133.011 207.295 133.272C207.546 133.528 207.893 133.656 208.335 133.656C208.575 133.656 208.799 133.619 209.007 133.544C209.221 133.469 209.429 133.344 209.631 133.168L209.823 133.536C209.653 133.701 209.434 133.832 209.167 133.928C208.901 134.019 208.629 134.064 208.351 134.064ZM208.255 130.44C207.85 130.44 207.533 130.568 207.303 130.824C207.079 131.075 206.949 131.4 206.911 131.8H209.447C209.437 131.373 209.33 131.04 209.127 130.8C208.925 130.56 208.634 130.44 208.255 130.44Z" fill="white"/>
<path d="M181 149.08C180.207 149.08 179.603 148.773 179.19 148.16C178.783 147.547 178.58 146.653 178.58 145.48C178.58 144.293 178.783 143.397 179.19 142.79C179.603 142.177 180.207 141.87 181 141.87C181.8 141.87 182.403 142.173 182.81 142.78C183.217 143.387 183.42 144.283 183.42 145.47C183.42 146.643 183.213 147.54 182.8 148.16C182.387 148.773 181.787 149.08 181 149.08ZM181 148.53C181.607 148.53 182.057 148.28 182.35 147.78C182.643 147.28 182.79 146.51 182.79 145.47C182.79 144.417 182.643 143.647 182.35 143.16C182.063 142.667 181.613 142.42 181 142.42C180.393 142.42 179.943 142.667 179.65 143.16C179.357 143.653 179.21 144.423 179.21 145.47C179.21 146.51 179.357 147.28 179.65 147.78C179.943 148.28 180.393 148.53 181 148.53ZM186.996 149.08C186.216 149.08 185.609 148.913 185.176 148.58C184.743 148.24 184.526 147.763 184.526 147.15C184.526 146.703 184.649 146.327 184.896 146.02C185.143 145.707 185.469 145.5 185.876 145.4C185.509 145.273 185.219 145.06 185.006 144.76C184.799 144.46 184.696 144.117 184.696 143.73C184.696 143.143 184.903 142.687 185.316 142.36C185.736 142.033 186.296 141.87 186.996 141.87C187.696 141.87 188.253 142.033 188.666 142.36C189.086 142.687 189.296 143.143 189.296 143.73C189.296 144.117 189.189 144.46 188.976 144.76C188.769 145.06 188.483 145.273 188.116 145.4C188.523 145.507 188.849 145.713 189.096 146.02C189.343 146.327 189.466 146.703 189.466 147.15C189.466 147.763 189.249 148.24 188.816 148.58C188.383 148.913 187.776 149.08 186.996 149.08ZM186.996 145.16C187.523 145.16 187.936 145.037 188.236 144.79C188.536 144.543 188.686 144.203 188.686 143.77C188.686 143.337 188.536 143 188.236 142.76C187.936 142.52 187.523 142.4 186.996 142.4C186.469 142.4 186.056 142.52 185.756 142.76C185.456 143 185.306 143.337 185.306 143.77C185.306 144.203 185.456 144.543 185.756 144.79C186.056 145.037 186.469 145.16 186.996 145.16ZM186.996 148.55C188.229 148.55 188.846 148.073 188.846 147.12C188.846 146.173 188.229 145.7 186.996 145.7C185.763 145.7 185.146 146.173 185.146 147.12C185.146 148.073 185.763 148.55 186.996 148.55ZM190.312 149.59L189.812 149.44L192.362 141.52L192.872 141.67L190.312 149.59ZM193.618 149V148.54L196.088 145.85C196.441 145.463 196.698 145.107 196.858 144.78C197.024 144.447 197.108 144.107 197.108 143.76C197.108 143.327 196.978 142.997 196.718 142.77C196.458 142.543 196.078 142.43 195.578 142.43C194.831 142.43 194.184 142.71 193.638 143.27L193.378 142.77C193.631 142.503 193.954 142.287 194.348 142.12C194.748 141.953 195.168 141.87 195.608 141.87C196.288 141.87 196.811 142.033 197.178 142.36C197.551 142.68 197.738 143.137 197.738 143.73C197.738 144.15 197.631 144.567 197.418 144.98C197.211 145.387 196.898 145.817 196.478 146.27L194.418 148.46H198.028V149H193.618ZM199.614 149V148.54L202.084 145.85C202.437 145.463 202.694 145.107 202.854 144.78C203.02 144.447 203.104 144.107 203.104 143.76C203.104 143.327 202.974 142.997 202.714 142.77C202.454 142.543 202.074 142.43 201.574 142.43C200.827 142.43 200.18 142.71 199.634 143.27L199.374 142.77C199.627 142.503 199.95 142.287 200.344 142.12C200.744 141.953 201.164 141.87 201.604 141.87C202.284 141.87 202.807 142.033 203.174 142.36C203.547 142.68 203.734 143.137 203.734 143.73C203.734 144.15 203.627 144.567 203.414 144.98C203.207 145.387 202.894 145.817 202.474 146.27L200.414 148.46H204.024V149H199.614Z" fill="white"/>
<ellipse opacity="0.5" cx="227" cy="62.5" rx="3" ry="3.5" fill="white"/>
<circle opacity="0.5" cx="35" cy="180" r="3" fill="white"/>
<circle opacity="0.5" cx="213.5" cy="54.5" r="3.5" fill="#E1441B"/>
<circle opacity="0.5" cx="22" cy="172" r="3" fill="#E1441B"/>
<path d="M29.1143 34H36.4285V48H29.1143V34Z" fill="#FF5F00"/>
<path d="M30.2423 41C30.2423 37.8056 31.5996 34.9722 33.6857 33.1388C32.1526 31.8055 30.2172 31 28.1059 31C23.1038 31 19.0571 35.4722 19.0571 41C19.0571 46.5277 23.1038 51 28.1058 51C30.2171 51 32.1525 50.1945 33.6857 48.861C31.5996 47.0555 30.2423 44.1944 30.2423 41Z" fill="#EB001B"/>
<path d="M46.4856 41C46.4856 46.5277 42.439 51 37.4371 51C35.3257 51 33.3904 50.1945 31.8572 48.861C33.9685 47.0278 35.3007 44.1944 35.3007 41C35.3007 37.8056 33.9433 34.9722 31.8572 33.1388C33.3903 31.8055 35.3257 31 37.4371 31C42.439 31 46.4858 35.5 46.4858 41H46.4856Z" fill="#F79E1B"/>
</g>
<defs>
<filter id="filter0_d_1_1810" x="12.7715" y="57" width="312.457" height="178" filterUnits="userSpaceOnUse" color-interpolation-filters="sRGB">
<feFlood flood-opacity="0" result="BackgroundImageFix"/>
<feColorMatrix in="SourceAlpha" type="matrix" values="0 0 0 0 0 0 0 0 0 0 0 0 0 0 0 0 0 0 127 0" result="hardAlpha"/>
<feOffset dy="2"/>
<feGaussianBlur stdDeviation="10"/>
<feColorMatrix type="matrix" values="0 0 0 0 0 0 0 0 0 0.188235 0 0 0 0 0.286275 0 0 0 0.1 0"/>
<feBlend mode="normal" in2="BackgroundImageFix" result="effect1_dropShadow_1_1810"/>
<feBlend mode="normal" in="SourceGraphic" in2="effect1_dropShadow_1_1810" result="shape"/>
</filter>
<filter id="filter1_d_1_1810" x="0.885742" y="0" width="336.229" height="224" filterUnits="userSpaceOnUse" color-interpolation-filters="sRGB">
<feFlood flood-opacity="0" result="BackgroundImageFix"/>
<feColorMatrix in="SourceAlpha" type="matrix" values="0 0 0 0 0 0 0 0 0 0 0 0 0 0 0 0 0 0 127 0" result="hardAlpha"/>
<feOffset dy="2"/>
<feGaussianBlur stdDeviation="10"/>
<feColorMatrix type="matrix" values="0 0 0 0 0 0 0 0 0 0.188235 0 0 0 0 0.286275 0 0 0 0.1 0"/>
<feBlend mode="normal" in2="BackgroundImageFix" result="effect1_dropShadow_1_1810"/>
<feBlend mode="normal" in="SourceGraphic" in2="effect1_dropShadow_1_1810" result="shape"/>
</filter>
<filter id="filter2_d_1_1810" x="30.0439" y="95.1479" width="214.109" height="22.0142" filterUnits="userSpaceOnUse" color-interpolation-filters="sRGB">
<feFlood flood-opacity="0" result="BackgroundImageFix"/>
<feColorMatrix in="SourceAlpha" type="matrix" values="0 0 0 0 0 0 0 0 0 0 0 0 0 0 0 0 0 0 127 0" result="hardAlpha"/>
<feOffset dy="4"/>
<feGaussianBlur stdDeviation="2"/>
<feComposite in2="hardAlpha" operator="out"/>
<feColorMatrix type="matrix" values="0 0 0 0 0 0 0 0 0 0 0 0 0 0 0 0 0 0 0.25 0"/>
<feBlend mode="normal" in2="BackgroundImageFix" result="effect1_dropShadow_1_1810"/>
<feBlend mode="normal" in="SourceGraphic" in2="effect1_dropShadow_1_1810" result="shape"/>
</filter>
<clipPath id="clip0_1_1810">
<rect x="9" y="18" width="320" height="170" rx="5" fill="white"/>
</clipPath>
</defs>
</svg>
