<svg width="266" height="27" viewBox="0 0 266 27" fill="none" xmlns="http://www.w3.org/2000/svg">
<path d="M0.171875 21V0.492188H2.16406V9.7207H5.32812V11.6543H2.16406V21H0.171875ZM6.73438 11.6543V9.7207H9.89844V0.492188H11.8906V21H9.89844V11.6543H6.73438ZM14.1758 16.752V9.66211C14.1758 8.76367 14.5859 7.875 15.4062 6.99609C16.3828 5.96094 17.6133 5.44336 19.0977 5.44336V7.31836C17.8672 7.31836 16.9785 7.83594 16.4316 8.87109C16.2168 9.28125 16.1094 9.67188 16.1094 10.043V16.3711C16.1094 17.1133 16.4609 17.7969 17.1641 18.4219C17.75 18.9102 18.4043 19.1543 19.127 19.1543V21.0293C17.3105 21.0293 15.9043 20.2969 14.9082 18.832C14.4199 18.0898 14.1758 17.3965 14.1758 16.752ZM20.3574 21.0293V19.1543C21.4902 19.1543 22.3398 18.6465 22.9062 17.6309C23.1211 17.2012 23.2285 16.8008 23.2285 16.4297V10.043C23.2285 9.22266 22.877 8.51953 22.1738 7.93359C21.6465 7.52344 21.041 7.31836 20.3574 7.31836V5.44336C22.1348 5.44336 23.4922 6.16602 24.4297 7.61133C24.8984 8.33398 25.1328 9.01758 25.1328 9.66211V16.752C25.1328 17.6699 24.7422 18.5684 23.9609 19.4473C23.0039 20.4824 21.8027 21.0098 20.3574 21.0293ZM26.5098 5.44336L31.7539 20.9707H32.7793L33.3945 19.1836L28.6777 5.44336H26.5098ZM32.7793 14.4668L33.7168 17.1621H34.0684L36.8516 8.72461L40.9824 20.9707H42.0371L42.623 19.1836L37.9355 5.44336H35.7383L32.7793 14.4668ZM42.0371 14.4668L42.9453 17.1621H43.2969L47.1641 5.44336H44.9961L42.0371 14.4668ZM54.6348 5.44336L59.8789 20.9707H60.9043L61.5195 19.1836L56.8027 5.44336H54.6348ZM60.9043 14.4668L61.8418 17.1621H62.1934L64.9766 8.72461L69.1074 20.9707H70.1621L70.748 19.1836L66.0605 5.44336H63.8633L60.9043 14.4668ZM70.1621 14.4668L71.0703 17.1621H71.4219L75.2891 5.44336H73.1211L70.1621 14.4668ZM76.8418 3.36328C76.8418 2.83594 77.0957 2.47461 77.6035 2.2793C77.7598 2.2207 77.9062 2.19141 78.043 2.19141C78.5703 2.19141 78.9316 2.44531 79.127 2.95312C79.166 3.08984 79.1855 3.22656 79.1855 3.36328C79.1855 3.91016 78.9316 4.27148 78.4238 4.44727C78.2871 4.48633 78.1602 4.50586 78.043 4.50586C77.4961 4.50586 77.125 4.26172 76.9297 3.77344C76.8711 3.63672 76.8418 3.5 76.8418 3.36328ZM77.0762 21V5.67773H79.0098V21H77.0762ZM81.7344 21V0.404297H83.7559V21H81.7344ZM86.2168 21V0.404297H88.2383V21H86.2168ZM96.5586 5.47266H98.5508L103.209 17.6309L100.279 26.4785H98.3164L101.188 17.6016L96.5586 5.47266ZM102.887 13.2656L106.051 5.47266H108.072L103.941 15.8145H103.736L102.887 13.2656ZM109.273 16.752V9.66211C109.273 8.76367 109.684 7.875 110.504 6.99609C111.48 5.96094 112.711 5.44336 114.195 5.44336V7.31836C112.965 7.31836 112.076 7.83594 111.529 8.87109C111.314 9.28125 111.207 9.67188 111.207 10.043V16.3711C111.207 17.1133 111.559 17.7969 112.262 18.4219C112.848 18.9102 113.502 19.1543 114.225 19.1543V21.0293C112.408 21.0293 111.002 20.2969 110.006 18.832C109.518 18.0898 109.273 17.3965 109.273 16.752ZM115.455 21.0293V19.1543C116.588 19.1543 117.438 18.6465 118.004 17.6309C118.219 17.2012 118.326 16.8008 118.326 16.4297V10.043C118.326 9.22266 117.975 8.51953 117.271 7.93359C116.744 7.52344 116.139 7.31836 115.455 7.31836V5.44336C117.232 5.44336 118.59 6.16602 119.527 7.61133C119.996 8.33398 120.23 9.01758 120.23 9.66211V16.752C120.23 17.6699 119.84 18.5684 119.059 19.4473C118.102 20.4824 116.9 21.0098 115.455 21.0293ZM122.457 16.8691V5.47266H124.42V16.6348C124.42 17.377 124.801 18.0312 125.562 18.5977C126.148 19.0078 126.783 19.2129 127.467 19.2129V21.1465C125.592 21.1465 124.166 20.4238 123.189 18.9785C122.701 18.2363 122.457 17.5332 122.457 16.8691ZM128.727 21.1465V19.2129C129.879 19.2129 130.758 18.7539 131.363 17.8359C131.617 17.4258 131.744 17.0254 131.744 16.6348V5.47266H133.707V16.8691C133.707 17.748 133.307 18.627 132.506 19.5059C131.49 20.5801 130.23 21.127 128.727 21.1465ZM142.994 21V0.404297H145.016V21H142.994ZM147.535 3.36328C147.535 2.83594 147.789 2.47461 148.297 2.2793C148.453 2.2207 148.6 2.19141 148.736 2.19141C149.264 2.19141 149.625 2.44531 149.82 2.95312C149.859 3.08984 149.879 3.22656 149.879 3.36328C149.879 3.91016 149.625 4.27148 149.117 4.44727C148.98 4.48633 148.854 4.50586 148.736 4.50586C148.189 4.50586 147.818 4.26172 147.623 3.77344C147.564 3.63672 147.535 3.5 147.535 3.36328ZM147.77 21V5.67773H149.703V21H147.77ZM152.398 21V0.404297H154.361V21H152.398ZM155.064 13.2363L161.891 5.47266H164.352L157.496 13.2363L164.381 21H161.92L155.064 13.2363ZM166.109 16.752V9.63281C166.129 8.73438 166.559 7.85547 167.398 6.99609C168.375 5.98047 169.576 5.46289 171.002 5.44336V7.28906C169.967 7.28906 169.137 7.74805 168.512 8.66602C168.219 9.0957 168.072 9.49609 168.072 9.86719V12.0352H175.426V9.86719C175.426 8.92969 174.947 8.19727 173.99 7.66992C173.482 7.37695 172.955 7.23047 172.408 7.23047V5.44336C173.736 5.44336 174.928 5.92188 175.982 6.87891C176.842 7.69922 177.281 8.60742 177.301 9.60352V13.9102H168.072V16.752C168.072 17.3184 168.414 17.8848 169.098 18.4512C169.703 18.9395 170.348 19.1836 171.031 19.1836V21C169.293 21 167.916 20.2871 166.9 18.8613C166.373 18.0996 166.109 17.3965 166.109 16.752ZM172.408 21V19.125C173.639 19.125 174.576 18.6172 175.221 17.6016C175.416 17.3086 175.543 17.0254 175.602 16.752L177.33 17.3965C176.939 18.7832 176.1 19.7988 174.811 20.4434C174.068 20.8145 173.268 21 172.408 21ZM185.943 7.58203V5.70703H187.848V0.375H189.811V5.70703H191.656V7.58203H189.811V16.2246C189.811 17.6699 190.299 18.5586 191.275 18.8906C191.666 19.0078 192.115 19.0664 192.623 19.0664H192.887L193.297 21H192.506C190.123 20.9805 188.668 20.082 188.141 18.3047C187.945 17.6602 187.848 16.8691 187.848 15.9316V7.58203H185.943ZM194.498 16.752V9.66211C194.498 8.76367 194.908 7.875 195.729 6.99609C196.705 5.96094 197.936 5.44336 199.42 5.44336V7.31836C198.189 7.31836 197.301 7.83594 196.754 8.87109C196.539 9.28125 196.432 9.67188 196.432 10.043V16.3711C196.432 17.1133 196.783 17.7969 197.486 18.4219C198.072 18.9102 198.727 19.1543 199.449 19.1543V21.0293C197.633 21.0293 196.227 20.2969 195.23 18.832C194.742 18.0898 194.498 17.3965 194.498 16.752ZM200.68 21.0293V19.1543C201.812 19.1543 202.662 18.6465 203.229 17.6309C203.443 17.2012 203.551 16.8008 203.551 16.4297V10.043C203.551 9.22266 203.199 8.51953 202.496 7.93359C201.969 7.52344 201.363 7.31836 200.68 7.31836V5.44336C202.457 5.44336 203.814 6.16602 204.752 7.61133C205.221 8.33398 205.455 9.01758 205.455 9.66211V16.752C205.455 17.6699 205.064 18.5684 204.283 19.4473C203.326 20.4824 202.125 21.0098 200.68 21.0293ZM218.229 21V19.125H220.836C222.086 19.125 222.965 18.6562 223.473 17.7188C223.668 17.3867 223.766 17.0449 223.766 16.6934V9.7793C223.766 9.11523 223.434 8.51953 222.77 7.99219C222.164 7.54297 221.451 7.31836 220.631 7.31836H218.082V5.44336H220.631C222.525 5.44336 223.971 6.16602 224.967 7.61133C225.455 8.33398 225.699 9.02734 225.699 9.69141V16.7812C225.699 17.7578 225.279 18.6758 224.439 19.5352C223.463 20.5117 222.252 21 220.807 21H218.229ZM214.713 26.4785V5.44336H216.705V26.4785H214.713ZM227.867 17.3672C227.867 18.4219 228.385 19.3203 229.42 20.0625C230.299 20.668 231.334 20.9707 232.525 20.9707V19.1543C230.943 19.1543 230.006 18.6172 229.713 17.543C229.654 17.3281 229.625 17.1133 229.625 16.8984V15.9609C229.645 15.5117 229.762 15.1797 229.977 14.9648C230.27 14.6719 231.432 14.291 233.463 13.8223C235.104 13.4316 236.197 13.0996 236.744 12.8262V16.5176C236.744 18.1387 235.934 19.0078 234.312 19.125C234.176 19.1445 234.049 19.1543 233.932 19.1543V20.9707C235.318 20.9707 236.402 20.6387 237.184 19.9746C237.203 19.9551 237.223 19.9355 237.242 19.916C237.789 20.6191 238.512 20.9707 239.41 20.9707V19.125C238.922 19.0859 238.668 18.7637 238.648 18.1582V9.95508C238.648 8.64648 238.16 7.5332 237.184 6.61523C236.305 5.79492 235.221 5.38477 233.932 5.38477V7.14258C234.869 7.14258 235.621 7.5332 236.188 8.31445C236.539 8.80273 236.715 9.35938 236.715 9.98438V10.5117C236.734 11 235.553 11.5469 233.17 12.1523C230.943 12.7188 229.664 13.0898 229.332 13.2656C228.375 13.8125 227.887 14.7207 227.867 15.9902V17.3672ZM228.072 9.28125L229.801 9.95508C229.801 8.8418 230.279 8.03125 231.236 7.52344C231.646 7.30859 232.086 7.20117 232.555 7.20117V5.38477C231.227 5.38477 230.094 5.85352 229.156 6.79102C228.414 7.5332 228.053 8.36328 228.072 9.28125ZM240.611 5.47266H242.604L247.262 17.6309L244.332 26.4785H242.369L245.24 17.6016L240.611 5.47266ZM246.939 13.2656L250.104 5.47266H252.125L247.994 15.8145H247.789L246.939 13.2656ZM253.297 3.09961C254.43 1.67383 255.777 0.814453 257.34 0.521484C257.809 0.443359 258.297 0.404297 258.805 0.404297C261.246 0.404297 263.004 1.32227 264.078 3.1582C264.664 4.1543 264.977 5.30664 265.016 6.61523C265.016 9.38867 263.756 11.3027 261.236 12.3574C260.475 12.6699 259.771 12.8555 259.127 12.9141V18.1289H257.252V11.1562C261.178 11.0586 263.15 9.53516 263.17 6.58594C263.17 4.98438 262.545 3.79297 261.295 3.01172C260.553 2.54297 259.703 2.30859 258.746 2.30859C256.988 2.32812 255.592 3.02148 254.557 4.38867L253.297 3.09961ZM257.018 20.4727C257.018 19.9258 257.271 19.5645 257.779 19.3887C257.916 19.3301 258.053 19.3008 258.189 19.3008C258.736 19.3008 259.098 19.5547 259.273 20.0625C259.332 20.1992 259.361 20.3359 259.361 20.4727C259.361 21.0195 259.107 21.3809 258.6 21.5566C258.463 21.6152 258.326 21.6445 258.189 21.6445C257.643 21.6445 257.281 21.3906 257.105 20.8828C257.047 20.7461 257.018 20.6094 257.018 20.4727Z" fill="white"/>
</svg>
