<svg width="22" height="26" viewBox="0 0 22 26" fill="none" xmlns="http://www.w3.org/2000/svg">
<path d="M13.4257 22.1332C13.7725 21.8237 14.3048 21.8045 14.675 22.1083C15.0823 22.4423 15.1394 23.0406 14.8026 23.4446C13.9721 24.5216 12.6873 25.1587 11.3203 25.1714L11.0489 25.16C9.78853 25.0685 8.622 24.447 7.84914 23.4446L7.767 23.33C7.52555 22.934 7.6064 22.412 7.97667 22.1083C8.38398 21.7742 8.98724 21.8308 9.32411 22.2347C9.47205 22.4309 9.64758 22.605 9.84534 22.7517C10.3739 23.142 11.0377 23.3069 11.6894 23.2098C12.3411 23.1128 12.9268 22.7618 13.3165 22.2347H13.3276L13.4257 22.1332ZM11.3314 0.171387C15.1685 0.171387 19.4715 2.87706 19.9594 7.22154V9.48727C20.126 10.305 20.5088 11.0642 21.0684 11.687C21.1016 11.7246 21.1313 11.7651 21.1572 11.808C21.6646 12.5719 21.9557 13.457 22 14.3707L21.9667 14.6017C22.005 15.852 21.5876 17.0742 20.7912 18.0442C19.7741 19.1417 18.3837 19.8273 16.8875 19.969C13.2021 20.3736 9.4829 20.3736 5.79749 19.969C4.32318 19.8176 2.95696 19.1323 1.96034 18.0442C1.15077 17.0881 0.720934 15.8718 0.751528 14.6237V14.4697C0.8125 13.5286 1.12651 12.6209 1.66091 11.841L1.74963 11.731C2.3054 11.1055 2.68757 10.3475 2.85863 9.53126V7.26554L2.91996 7.13897C3.1064 6.81763 3.46954 6.62969 3.84986 6.67083C4.27772 6.71712 4.62131 7.04189 4.68848 7.46351V9.72924C4.6928 9.76945 4.6928 9.81001 4.68848 9.85023C4.45757 10.9849 3.92977 12.0394 3.15806 12.9079C2.86087 13.3774 2.69265 13.9158 2.6701 14.4697V14.7116C2.64548 15.4907 2.90541 16.2523 3.40204 16.8564C4.09058 17.5617 5.01133 17.9988 5.99711 18.0882C9.56496 18.4732 13.1644 18.4732 16.7322 18.0882C17.7449 17.9961 18.6882 17.5381 19.3828 16.8014C19.855 16.2116 20.1024 15.4755 20.0814 14.7226V14.4697C20.0587 13.9139 19.8946 13.3729 19.6046 12.8969C18.8007 12.0383 18.2419 10.9829 17.9854 9.83923C17.9811 9.79901 17.9811 9.75846 17.9854 9.71824V7.44151C17.6638 4.11991 14.3257 2.06316 11.4201 2.06316C10.1848 2.06034 8.96984 2.37485 7.8935 2.97605L7.76167 3.04149C7.49066 3.15092 7.18059 3.13171 6.92289 2.98318C6.62224 2.80989 6.44051 2.48805 6.44864 2.14327C6.45676 1.79849 6.65345 1.48542 6.96194 1.32625C8.29568 0.578976 9.79958 0.18149 11.3314 0.171387Z" fill="#010F07"/>
</svg>
