<svg width="20" height="20" viewBox="0 0 20 20" fill="none" xmlns="http://www.w3.org/2000/svg">
<path fill-rule="evenodd" clip-rule="evenodd" d="M0 9.99997C0 15.5228 4.47715 19.9999 10 19.9999C15.5228 19.9999 20 15.5228 20 9.99997C20 4.47714 15.5228 0 10 0C4.47715 0 0 4.47714 0 9.99997ZM10.0522 3.88893H9.95833C9.66803 3.88893 9.42668 4.11243 9.40441 4.40187L8.92353 10.6533C8.90309 10.919 9.07418 11.1618 9.33127 11.2319L14.4634 12.6316C14.4998 12.6415 14.5374 12.6465 14.5751 12.6465C14.8094 12.6465 14.9994 12.4566 14.9994 12.2222V11.9891C14.9994 11.7897 14.8926 11.6056 14.7195 11.5067L11.1105 9.44444L10.605 4.3892C10.5766 4.1052 10.3376 3.88893 10.0522 3.88893Z" fill="#010F07"/>
</svg>
